<svg width="332" height="333" viewBox="0 0 332 333" fill="none" xmlns="http://www.w3.org/2000/svg">
<path fill-rule="evenodd" clip-rule="evenodd" d="M62.0893 243.074C82.1288 264.888 159.623 252.358 210.649 252.358C232.662 252.358 306.534 263.39 276.029 187.622C176.008 -60.8122 -1.40614 173.958 62.0893 243.074Z" fill="#D1CCEC"/>
<path fill-rule="evenodd" clip-rule="evenodd" d="M33.7957 69.5885C33.8173 69.7626 33.7231 69.9455 33.5687 70.0289C33.4458 69.9059 33.3229 69.7829 33.2 69.6599C33.3842 69.5793 33.5932 69.5564 33.7906 69.595L33.7957 69.5885Z" fill="#00160A"/>
<path fill-rule="evenodd" clip-rule="evenodd" d="M152.011 238.352C152.442 238.487 152.868 238.654 153.243 238.906C153.949 239.378 154.429 240.111 154.889 240.824C155.219 241.335 155.554 241.857 155.719 242.442C155.897 243.077 155.866 243.754 155.746 244.402C155.374 246.421 154.128 248.264 152.392 249.361C150.657 250.458 148.458 250.794 146.475 250.265C146.088 250.162 145.7 250.021 145.403 249.754C145.153 249.529 144.985 249.23 144.831 248.931C144.023 247.365 143.478 245.624 143.54 243.863C143.603 242.101 144.327 240.319 145.698 239.211C147.42 237.822 149.9 237.689 152.011 238.352M149.592 248.84C150.671 248.676 151.62 247.971 152.24 247.073C152.861 246.175 153.179 245.098 153.332 244.018C153.419 243.4 153.427 242.693 152.991 242.248C152.73 241.981 152.358 241.862 152.001 241.755C150.659 241.353 149.128 241.012 147.926 241.731C147.051 242.255 146.563 243.225 146.121 244.144C145.603 245.22 145.731 246.578 146.441 247.538C147.15 248.498 148.411 249.019 149.592 248.84V248.84Z" fill="#00160A"/>
<path fill-rule="evenodd" clip-rule="evenodd" d="M201.298 189.888C201.317 189.659 201.344 189.414 201.496 189.241C201.644 189.072 201.877 189.012 202.096 188.961C207.733 187.648 213.555 187.135 219.334 187.44C220.07 187.479 221.017 187.728 221.066 188.464C221.345 192.681 221.624 196.897 221.903 201.114C221.917 201.327 221.925 201.564 221.788 201.729C221.677 201.863 221.497 201.915 221.329 201.959C215.317 203.526 208.981 203.835 202.846 202.86C202.688 202.835 202.522 202.805 202.399 202.702C202.251 202.578 202.199 202.376 202.156 202.187C201.252 198.162 200.961 194 201.298 189.888ZM202.627 196.883C202.738 198.476 203.072 200.052 203.616 201.553C204.159 201.631 204.697 201.744 205.238 201.835C209.9 202.625 214.669 201.831 219.33 201.037C219.661 200.981 220.024 200.906 220.228 200.64C220.437 200.368 220.409 199.989 220.371 199.648C220.211 198.195 220.05 196.742 219.89 195.289C219.877 195.172 219.86 195.047 219.781 194.959C219.684 194.854 219.527 194.836 219.384 194.827C216.071 194.609 212.748 194.856 209.437 195.103C207.607 195.24 205.777 195.376 203.947 195.513C203.517 195.545 203.028 195.609 202.781 195.962C202.599 196.222 202.605 196.566 202.627 196.883ZM202.679 190.806C202.389 191.735 202.337 192.736 202.529 193.69C202.563 193.861 202.612 194.042 202.742 194.159C202.935 194.332 203.229 194.303 203.485 194.266C206.603 193.809 209.754 193.582 212.905 193.587C213.35 193.588 213.486 192.99 213.481 192.545C213.474 191.894 213.467 191.243 213.46 190.591C213.456 190.215 213.437 189.799 213.179 189.525C212.869 189.195 212.351 189.205 211.899 189.239C210.855 189.319 209.812 189.399 208.768 189.479C208.268 189.517 206.944 189.856 206.335 189.896C205.275 190.065 204.215 190.234 203.156 190.403C203.043 190.421 202.923 190.442 202.836 190.516C202.751 190.589 202.712 190.699 202.679 190.806ZM216.656 193.639C217.485 193.65 218.314 193.567 219.124 193.392C219.317 193.351 219.52 193.298 219.657 193.157C219.859 192.949 219.858 192.624 219.843 192.335C219.8 191.495 219.757 190.655 219.714 189.815C219.699 189.516 219.665 189.179 219.431 188.991C219.225 188.826 218.934 188.836 218.671 188.854C217.75 188.917 216.829 188.979 215.908 189.042C215.762 189.052 215.608 189.064 215.486 189.145C215.263 189.292 215.23 189.601 215.224 189.869C215.203 190.759 215.24 191.65 215.333 192.535C215.359 192.792 215.397 193.062 215.555 193.265C215.802 193.581 216.255 193.634 216.656 193.639Z" fill="#FF611D"/>
<path fill-rule="evenodd" clip-rule="evenodd" d="M215.724 171.461C216.956 170.928 218.467 171.106 219.54 171.911C220.613 172.717 221.207 174.117 221.04 175.449C221.795 175.041 222.752 174.639 223.456 175.129C224.251 175.682 224.069 176.873 223.95 177.834C223.741 179.514 224.012 181.25 224.722 182.786C225.015 183.421 225.267 184.383 224.616 184.639C224.507 184.683 224.387 184.692 224.269 184.702C216.642 185.317 209.015 185.931 201.388 186.546C201.179 186.563 200.945 186.572 200.787 186.434C200.625 186.293 200.605 186.054 200.596 185.84C200.523 184.046 200.45 182.252 200.377 180.458C200.357 179.977 200.348 179.458 200.62 179.06C201.069 178.402 202.012 178.404 202.799 178.278C203.586 178.152 204.501 177.488 204.198 176.751C203.861 175.929 205.012 175.329 205.89 175.195C206.769 175.061 207.934 174.537 207.668 173.69C207.377 172.764 208.652 172.189 209.614 172.061C210.293 171.971 211.003 171.884 211.647 172.117C212.291 172.349 212.835 173.013 212.69 173.682C212.524 174.448 213.458 175.162 214.193 174.892C214.929 174.621 215.228 173.615 214.855 172.925C214.551 172.362 215.137 171.715 215.724 171.461ZM219.663 183.283C219.378 182.754 219.376 182.124 219.373 181.523C219.361 178.702 219.188 175.881 218.854 173.079C218.837 172.937 218.811 172.779 218.695 172.696C218.595 172.625 218.461 172.633 218.338 172.645C217.743 172.701 217.037 172.832 216.801 173.382C216.701 173.617 216.713 173.882 216.726 174.137C216.877 176.965 217.028 179.793 217.179 182.621C217.193 182.885 217.228 183.187 217.447 183.334C217.567 183.415 217.717 183.43 217.86 183.437C218.465 183.47 219.073 183.418 219.663 183.283ZM209.404 178.935C209.331 179.406 209.227 179.873 209.199 180.35C209.153 181.145 209.32 181.936 209.487 182.715C209.594 183.215 210.24 183.461 210.713 183.269C211.186 183.076 211.472 182.571 211.551 182.066C211.63 181.561 211.538 181.047 211.457 180.542C211.141 178.56 211.004 176.549 211.049 174.542C211.06 174.034 210.565 173.575 210.059 173.625C209.553 173.675 209.158 174.222 209.269 174.718C209.577 176.099 209.624 177.537 209.404 178.935ZM214.421 176.226C214.123 175.837 213.442 176.044 213.21 176.476C212.978 176.907 213.049 177.431 213.106 177.917C213.256 179.188 213.271 180.475 213.149 181.749C213.113 182.125 213.073 182.535 213.28 182.85C213.599 183.335 214.299 183.33 214.876 183.271C215.057 183.253 215.265 183.218 215.357 183.061C215.42 182.951 215.405 182.815 215.388 182.689C215.122 180.713 214.856 178.736 214.589 176.76C214.564 176.573 214.535 176.376 214.421 176.226ZM221.027 177.076C220.803 177.381 220.756 177.779 220.736 178.157C220.67 179.454 220.842 180.751 221.013 182.038C221.081 182.546 221.313 183.198 221.823 183.163C222.341 183.128 222.476 182.436 222.464 181.917C222.432 180.544 222.4 179.17 222.368 177.797C222.36 177.436 222.322 177.018 222.022 176.816C221.708 176.604 221.251 176.77 221.027 177.076ZM205.394 176.751C205.394 176.751 205.621 178.543 205.7 179.457C205.8 180.603 205.926 181.748 206.08 182.888C206.103 183.054 206.133 183.233 206.255 183.347C206.467 183.545 207.284 183.413 207.434 183.166C207.585 182.918 207.577 182.609 207.563 182.32C207.522 181.404 207.48 180.489 207.439 179.573C207.395 178.592 207.161 176.476 207.161 176.476M202.429 183.241C202.495 183.447 202.572 183.662 202.738 183.799C203.062 184.067 203.587 183.901 203.843 183.567C204.098 183.233 204.156 182.793 204.204 182.375C204.264 181.863 204.322 181.33 204.156 180.842C203.99 180.353 203.531 179.923 203.017 179.969C202.544 180.01 202.178 180.442 202.068 180.904C201.957 181.365 202.05 181.849 202.165 182.31C202.243 182.623 202.331 182.934 202.429 183.241Z" fill="#E7EAEE"/>
<path fill-rule="evenodd" clip-rule="evenodd" d="M233.347 109.842C232.732 110.767 232.064 111.703 231.111 112.274C230.158 112.844 228.843 112.956 227.987 112.248C227.042 111.467 226.984 110.06 227.059 108.837C227.087 108.366 227.125 107.892 227.26 107.44C227.494 106.655 228.005 105.986 228.538 105.366C229.186 104.613 229.903 103.887 230.8 103.464C231.698 103.04 232.814 102.966 233.655 103.493C234.662 104.123 235.034 105.465 234.843 106.638C234.653 107.811 234.006 108.853 233.347 109.842ZM231.392 110.82C232.168 109.993 232.834 109.063 233.367 108.061C233.717 107.401 234.015 106.685 234.001 105.938C233.987 105.192 233.593 104.412 232.9 104.135C231.997 103.774 231.006 104.351 230.251 104.964C229.714 105.401 229.194 105.88 228.849 106.48C228.631 106.86 228.49 107.277 228.349 107.692C228.084 108.476 227.815 109.294 227.916 110.116C228.017 110.937 228.605 111.763 229.429 111.848C230.191 111.926 230.867 111.379 231.392 110.82Z" fill="#FF611D"/>
<path fill-rule="evenodd" clip-rule="evenodd" d="M74.7218 120.29C75.6865 121.267 76.4828 122.41 77.0653 123.653C77.6507 124.903 77.0605 126.509 75.9116 127.273C74.7627 128.038 73.2094 128.028 71.9496 127.464C70.6899 126.901 69.6999 125.849 68.9708 124.678C68.4211 123.794 67.9949 122.804 67.9492 121.765C67.9035 120.726 68.2862 119.632 69.1084 118.994C69.9401 118.35 71.1095 118.258 72.1152 118.567C73.121 118.876 73.9825 119.541 74.7218 120.29M70.9579 119.695C70.1232 119.609 69.3817 120.376 69.2386 121.202C69.0954 122.029 69.4105 122.868 69.8184 123.601C70.7028 125.192 72.2807 126.604 74.0982 126.516C75.0324 126.471 76.0565 125.824 76.0399 124.888C76.0327 124.484 75.8332 124.111 75.6339 123.759C75.1046 122.824 74.5328 121.898 73.7693 121.142C73.0057 120.386 72.0268 119.805 70.9579 119.695Z" fill="#FF611D"/>
<path fill-rule="evenodd" clip-rule="evenodd" d="M147.662 243.303C148.332 242.793 149.165 242.464 150.005 242.518C150.845 242.572 151.676 243.054 152.027 243.819C152.404 244.639 152.169 245.659 151.581 246.345C150.993 247.03 150.107 247.408 149.212 247.533C148.602 247.619 147.874 247.542 147.54 247.024C147.378 246.774 147.342 246.466 147.309 246.171C147.251 245.64 147.193 245.109 147.135 244.579C147.11 244.354 147.086 244.12 147.159 243.906C147.244 243.654 147.45 243.463 147.662 243.303M150.313 244.829C150.41 244.754 150.512 244.673 150.554 244.558C150.69 244.189 150.157 243.943 149.763 243.952C149.192 243.965 148.46 244.35 148.634 244.894C148.736 245.208 149.123 245.354 149.449 245.296C149.774 245.238 150.05 245.031 150.313 244.829H150.313Z" fill="#00160A"/>
<path fill-rule="evenodd" clip-rule="evenodd" d="M242.577 73.6184C247.797 79.023 251.918 85.4858 254.616 92.4994C254.801 92.9811 254.981 93.5162 254.804 94.0011C253.443 97.7346 250.817 100.847 248.242 103.874L243.305 109.676L243.305 109.676L243.305 109.676L243.305 109.676L243.305 109.676L243.304 109.677L243.304 109.677L243.304 109.677L243.304 109.677C241.733 111.523 240.163 113.369 238.539 115.168C230.271 124.332 220.501 132.345 209.186 137.275C208.759 137.461 208.301 137.647 207.841 137.573C207.381 137.498 206.95 137.052 207.071 136.602C208.47 131.372 209.878 125.905 208.755 120.61C208.484 119.332 208.182 117.724 209.238 116.955C217.784 110.732 223.936 101.837 229.833 93.0634C231.316 90.8572 232.795 88.6449 234.107 86.3331C236.436 82.2286 238.23 77.8207 239.429 73.256C239.594 72.6296 240.384 72.3476 241.011 72.5117C241.637 72.6759 242.127 73.1526 242.577 73.6184ZM238.923 80.33C238.392 80.1106 237.903 80.7041 237.633 81.2106C237.35 81.7409 237.067 82.2721 236.784 82.8037L236.774 82.8232L236.766 82.8375L236.761 82.8465L236.758 82.8516L236.756 82.8554L236.755 82.8578C231.346 93.0184 225.854 103.335 217.61 111.338C216.832 112.094 215.961 113.007 216.105 114.083C216.565 117.532 214.723 121.175 211.673 122.849C210.288 123.609 210.305 125.571 210.508 127.138C210.589 127.765 210.826 128.551 211.456 128.604C213.304 128.76 215.078 129.67 216.283 131.08C216.664 131.525 217.384 131.247 217.879 130.936C230.35 123.096 239.932 111.516 249.287 100.139C249.61 99.746 249.953 99.2514 249.785 98.7719C248.369 94.7391 248.596 90.156 250.404 86.2828C249.337 84.161 248.066 82.1422 246.615 80.2632C244.198 81.312 241.357 81.3368 238.923 80.33ZM209.344 135.204C209.836 135.462 210.431 135.217 210.923 134.96C212.217 134.285 213.463 133.519 214.649 132.669C214.962 132.444 215.055 131.995 214.945 131.626C214.834 131.257 214.556 130.959 214.249 130.726C213.291 129.998 211.95 129.807 210.826 130.237C210.618 130.317 210.412 130.42 210.269 130.591C210.101 130.79 210.04 131.055 209.986 131.31C209.714 132.598 209.5 133.898 209.344 135.204ZM244.364 77.6447C243.517 75.9879 242.21 74.569 240.629 73.5886C240.078 74.0736 239.971 74.8105 239.862 75.5619C239.788 76.0774 239.712 76.5997 239.491 77.052C239.419 77.1993 239.331 77.3402 239.244 77.4808C239.077 77.7485 238.91 78.015 238.857 78.3224C238.775 78.7912 239.172 79.3794 239.622 79.2242C239.988 79.0981 240.371 79.1791 240.758 79.2608C240.962 79.3039 241.167 79.3473 241.371 79.3604C242.558 79.4371 243.544 78.5066 244.364 77.6447ZM251.08 87.5749C250.172 89.3804 250.316 91.5129 250.481 93.527L250.718 96.4155C250.744 96.7332 250.917 97.1618 251.223 97.0739C251.413 96.5418 251.775 96.1029 252.138 95.6628C252.456 95.2778 252.774 94.892 252.979 94.4421C253.672 92.9187 252.902 91.163 252.145 89.6708L251.08 87.5749ZM210.447 119.634C210.485 120.199 211.072 120.622 211.638 120.606C212.204 120.59 212.714 120.224 213.045 119.764C213.375 119.305 213.557 118.757 213.733 118.219L214.317 116.443C214.48 115.947 214.49 115.19 213.972 115.132C213.785 115.111 213.606 115.21 213.453 115.319C212.872 115.732 212.449 116.325 212.038 116.906L210.917 118.49C210.673 118.834 210.419 119.214 210.447 119.634ZM76.7203 114.892C72.7812 107.68 70.2666 99.6935 69.3631 91.5256C69.3075 91.0233 68.7537 90.698 68.2486 90.7154C67.7436 90.7329 67.2851 90.9998 66.8556 91.266C60.7582 95.0464 55.5679 100.279 51.837 106.407C51.4593 107.027 51.087 107.686 51.0393 108.41C50.9925 109.122 51.2641 109.811 51.5439 110.467C55.6594 120.109 62.5225 128.287 69.4892 136.121C74.855 142.155 80.5991 148.263 88.0807 151.3C89.29 151.791 91.0464 151.991 91.559 150.791C91.7081 150.442 91.7002 150.049 91.6924 149.669L91.6922 149.654C91.6097 145.586 92.072 141.507 93.0629 137.56C93.2922 136.647 93.4113 135.416 92.5572 135.02C89.3448 133.531 87.1432 130.53 85.0844 127.649C82.1257 123.51 79.1592 119.358 76.7203 114.892ZM83.6741 146.418C83.2315 146.536 82.7896 146.257 82.4202 145.986C75.6108 140.997 70.3339 134.245 65.1493 127.583L55.9997 115.827C57.5441 114.843 57.7402 112.706 57.7739 110.875C57.8176 108.496 57.8496 106.046 56.99 103.826C56.7989 103.333 57.0476 102.786 57.314 102.329C58.4564 100.369 60.0407 98.6682 61.915 97.3896C62.0964 97.2658 62.2885 97.1428 62.506 97.1121C63.0799 97.031 63.5202 97.5892 63.827 98.0811C65.0383 100.024 66.7032 102.22 68.9869 102.06C69.8564 102 70.3386 103.024 70.5923 103.858C73.7469 114.229 79.6697 123.583 86.6154 131.905C87.518 132.986 87.7445 134.446 87.9689 135.892C88.2191 137.505 88.4668 139.101 89.6467 140.138C90.6541 141.024 90.4671 142.614 90.1953 143.927C90.1396 144.196 90.0734 144.484 89.8693 144.667C89.7176 144.804 89.5127 144.86 89.3158 144.913L83.6741 146.418ZM67.5312 99.6582C66.2821 98.7854 65.2031 97.6701 64.3721 96.3927C64.1924 96.1164 64.0178 95.8068 64.0493 95.4787C64.0837 95.1219 64.3521 94.8364 64.6192 94.5974C65.2787 94.0072 66.024 93.513 66.8245 93.1354C67.1176 92.9971 67.4961 92.8848 67.7396 93.0987C67.883 93.2246 67.9283 93.4258 67.9657 93.6129L69.1194 99.3832C69.1876 99.7243 68.8298 100.031 68.4821 100.041C68.1343 100.051 67.8164 99.8574 67.5312 99.6582ZM56.1139 110.819C56.0894 111.904 56.0065 113.122 55.1931 113.841C55.0229 113.861 54.9098 113.675 54.8431 113.517C54.2571 112.129 53.6629 110.709 53.5706 109.205C53.4783 107.702 53.9821 106.075 55.2104 105.203C55.3767 105.085 55.6204 104.988 55.7671 105.129C55.8261 105.186 55.8513 105.269 55.8728 105.348C56.2066 106.575 56.1804 107.867 56.1517 109.138L56.1139 110.819ZM89.2609 146.921C89.4582 147.082 89.4792 147.371 89.4846 147.626L89.5432 150.415C88.3988 149.781 87.3024 149.06 86.2665 148.26C86.0701 148.109 85.8543 147.863 85.9746 147.646C86.0342 147.539 86.1582 147.487 86.2737 147.444C87.0142 147.171 87.7798 146.967 88.5577 146.833C88.7982 146.792 89.0721 146.766 89.2609 146.921ZM89.3268 135.932C89.3163 135.806 89.3163 135.668 89.3912 135.567C89.5888 135.298 90.0177 135.541 90.199 135.821C90.6357 136.495 90.7321 137.378 90.4512 138.131C89.81 137.581 89.3969 136.773 89.3268 135.932ZM259.788 114.749C260.928 113.312 263.008 113.105 264.841 113.15C265.27 113.161 265.711 113.181 266.101 113.359C267.185 113.854 267.416 115.271 267.452 116.463C267.486 117.547 267.48 118.645 267.216 119.698C266.952 120.75 266.407 121.764 265.536 122.41C265.144 122.7 264.69 122.911 264.209 122.992C263.466 123.116 262.705 122.925 261.999 122.663C261.058 122.312 260.165 121.831 259.355 121.238C258.96 120.948 258.551 120.568 258.538 120.078C258.509 118.947 258.635 117.812 258.913 116.716C259.091 116.015 259.338 115.315 259.788 114.749ZM262.745 121.903C264.21 122.323 265.768 121.19 266.323 119.771C266.878 118.352 266.672 116.759 266.367 115.266C266.25 114.693 265.638 114.372 265.073 114.219C264.199 113.982 263.27 113.951 262.382 114.128C261.941 114.216 261.49 114.368 261.18 114.694C261.011 114.872 260.895 115.092 260.78 115.308L259.922 116.93C259.771 117.215 259.619 117.503 259.531 117.813C259.265 118.741 259.616 119.771 260.264 120.486C260.912 121.202 261.818 121.637 262.745 121.903ZM243.144 138.298C244.487 138.767 245.705 139.591 246.638 140.664C247.441 141.586 248.052 142.784 247.884 143.995C247.822 144.439 247.658 144.863 247.471 145.271C246.762 146.816 245.544 148.297 243.87 148.596C242.993 148.753 242.088 148.565 241.244 148.278C240.267 147.946 239.337 147.48 238.485 146.897C238.034 146.588 237.586 146.222 237.388 145.712C237.251 145.36 237.247 144.973 237.252 144.596C237.265 143.664 237.327 142.716 237.652 141.842C238.063 140.736 238.868 139.823 239.721 139.009C240.064 138.681 240.428 138.358 240.869 138.183C241.59 137.895 242.411 138.043 243.144 138.298ZM244.517 146.425C245.488 145.465 246.053 144.073 245.899 142.716C245.745 141.359 244.827 140.086 243.543 139.623C243.009 139.43 242.417 139.377 241.87 139.528C241.575 139.61 241.298 139.749 241.04 139.913C239.935 140.616 239.159 141.815 238.97 143.112C238.782 144.408 239.184 145.779 240.044 146.768C240.594 147.401 241.493 147.672 242.325 147.567C243.157 147.462 243.921 147.015 244.517 146.425ZM121.948 130.301C121.903 129.661 121.048 129.493 120.407 129.512C117.041 129.611 113.68 129.863 110.338 130.268C109.789 130.334 109.745 131.219 110.185 131.553C110.626 131.888 111.24 131.826 111.787 131.748L121.948 130.301ZM111.19 134.626C111.219 134.297 111.633 134.178 111.961 134.14L131.783 131.896C132.142 131.855 132.524 131.818 132.846 131.98C133.169 132.141 133.377 132.583 133.166 132.876C133.011 133.092 132.713 133.136 132.448 133.161L112.174 135.129C111.753 135.169 111.153 135.048 111.19 134.626ZM155.627 137.965C154.518 138.209 153.38 137.809 152.316 137.411C148.878 136.126 145.452 134.805 142.04 133.449C140.663 132.902 139.152 133.721 137.913 134.535C134.328 136.89 130.877 139.448 127.581 142.192C126.735 142.897 125.432 142.403 124.578 141.706C124.398 141.559 124.22 141.402 124.042 141.244C123.377 140.657 122.703 140.062 121.843 139.94C120.521 139.752 119.358 140.754 118.4 141.685L112.221 147.685C111.391 148.492 110.516 149.784 111.255 150.676C111.743 151.264 112.639 151.234 113.398 151.146C117.362 150.686 121.306 150.042 125.248 149.398L125.249 149.398C131.765 148.334 138.278 147.27 144.869 147.042C146.329 146.991 147.791 146.982 149.252 146.973C150.167 146.967 151.083 146.961 151.997 146.945C156.124 146.873 160.248 146.595 164.347 146.112C164.545 146.089 164.771 146.048 164.874 145.877C164.951 145.748 164.932 145.585 164.91 145.436L163.174 133.622C163.085 133.021 162.931 132.327 162.383 132.068C161.829 131.806 161.176 132.144 160.721 132.555C160.009 133.198 159.46 134.052 158.919 134.894C158.032 136.276 157.165 137.627 155.627 137.965ZM127.43 144.43C131.138 141.38 135.005 138.524 139.009 135.876C139.831 135.332 140.831 134.775 141.75 135.132L151.459 138.905C153.08 139.535 154.852 140.173 156.516 139.668C158.45 139.081 159.606 137.157 160.58 135.386C160.769 135.041 161.32 135.081 161.593 135.364C161.866 135.647 161.935 136.063 161.991 136.452L162.702 141.379C162.811 142.136 162.918 142.921 162.7 143.653C162.481 144.385 161.839 145.051 161.074 145.036C148.576 144.795 136.053 145.825 123.763 148.107C123.388 148.176 123.014 148.247 122.639 148.318L122.635 148.318L122.632 148.319L122.628 148.32L122.624 148.32L122.62 148.321C119.684 148.876 116.737 149.432 113.753 149.442C115.194 147.401 117.02 145.668 118.833 143.949C119.828 143.005 121.073 141.987 122.409 142.296C123.131 142.463 123.685 142.981 124.235 143.497C124.412 143.663 124.588 143.828 124.77 143.981C125.517 144.612 126.675 145.051 127.43 144.43ZM287.775 178.797C287.443 178.921 287.073 178.836 286.736 178.73C284.45 178.012 282.594 176.405 280.77 174.826L280.77 174.826C280.523 174.612 280.277 174.399 280.03 174.188C277.007 171.61 273.727 169.334 270.254 167.405C269.9 167.209 269.53 167.002 269.314 166.661C269.097 166.32 269.104 165.8 269.437 165.572C270.995 164.509 272.005 162.684 272.079 160.8C272.099 160.297 272.666 159.963 273.167 160.003C273.668 160.043 274.105 160.344 274.514 160.635L290.385 171.9C290.694 172.12 291.026 172.374 291.102 172.745C291.164 173.048 291.037 173.355 290.909 173.636C290.225 175.147 289.437 176.61 288.555 178.014C288.355 178.332 288.127 178.666 287.775 178.797ZM271.898 165.433C271.711 165.762 271.55 166.238 271.852 166.466L284.802 176.217C285.512 176.751 286.614 177.251 287.172 176.561C287.813 175.769 288.412 174.942 288.966 174.086C289.117 173.851 289.271 173.584 289.217 173.31C289.167 173.06 288.957 172.879 288.759 172.719C284.006 168.865 278.974 165.356 273.715 162.228L271.898 165.433ZM265.453 171.396C265.662 171.038 265.915 170.645 266.321 170.557C266.632 170.49 266.948 170.623 267.233 170.761C268.793 171.519 270.221 172.545 271.436 173.782C271.728 174.079 271.765 174.558 271.634 174.954C271.504 175.351 271.236 175.684 270.973 176.008C270.551 176.528 270.1 177.07 269.477 177.317C268.804 177.584 268.022 177.455 267.384 177.112C266.747 176.769 266.236 176.232 265.785 175.666C265.197 174.927 264.671 174.042 264.762 173.102C264.822 172.487 265.141 171.931 265.453 171.396ZM268.18 175.531C269.161 175.912 269.788 175.61 269.814 174.967C269.83 174.561 269.476 174.248 269.154 174.001L268.18 173.251C267.858 173.004 267.503 172.744 267.097 172.747C266.691 172.75 266.277 173.168 266.443 173.539C266.418 173.718 267.199 175.15 268.18 175.531ZM264.309 183.448C264.548 183.579 264.802 183.707 265.074 183.713C265.347 183.719 265.642 183.565 265.709 183.3C265.867 182.68 266.277 182.165 266.679 181.662L266.717 181.614L266.749 181.574L266.81 181.497C267.25 180.94 267.675 180.309 267.686 179.599C267.698 178.89 267.11 178.133 266.407 178.23C265.853 178.306 265.338 177.943 264.935 177.554C264.871 177.493 264.807 177.429 264.743 177.365C264.407 177.029 264.064 176.688 263.617 176.542C263.085 176.369 262.361 176.645 262.319 177.202C262.234 178.326 261.3 179.172 260.434 179.892C260.175 180.108 260.409 180.521 260.652 180.756C261.743 181.811 262.977 182.719 264.309 183.448ZM264.482 181.308L262.776 180.154C262.343 179.861 262.377 179.142 262.764 178.789C263.151 178.436 263.752 178.409 264.245 178.586C264.737 178.762 265.148 179.109 265.546 179.449C265.809 179.674 265.846 180.083 265.725 180.408C265.605 180.733 265.359 180.994 265.12 181.244C265.038 181.33 264.946 181.421 264.829 181.436C264.703 181.452 264.586 181.379 264.482 181.308ZM278.004 181.384L278.838 179.612C279.094 179.069 279.341 178.398 278.996 177.907C278.877 177.737 278.7 177.617 278.527 177.5L275.493 175.455C275.166 175.235 274.811 175.006 274.416 175.012C273.949 175.019 273.557 175.353 273.225 175.682C272.728 176.175 272.263 176.701 271.834 177.255C271.508 177.676 271.24 178.37 271.686 178.663L276.329 181.709C276.695 181.949 277.16 182.197 277.545 181.987C277.771 181.864 277.895 181.617 278.004 181.384ZM276.975 180.129C276.78 180.174 276.577 180.125 276.385 180.067C275.213 179.714 274.14 179.037 273.316 178.132C273.042 177.831 273.197 177.299 273.545 177.088C273.893 176.877 274.346 176.925 274.721 177.083C274.964 177.185 275.186 177.327 275.408 177.469C275.53 177.546 275.652 177.624 275.777 177.696C275.912 177.772 276.052 177.843 276.193 177.913L276.193 177.913C276.592 178.113 276.992 178.314 277.264 178.66C277.632 179.128 277.556 179.996 276.975 180.129ZM278.543 182.109C279.079 181.982 279.242 181.436 279.412 180.869C279.553 180.4 279.697 179.917 280.06 179.643C280.684 179.171 281.569 179.565 282.241 179.965L284.38 181.238C284.721 181.441 285.07 181.65 285.314 181.963C285.559 182.275 285.679 182.717 285.508 183.075C285.394 183.314 285.178 183.473 284.961 183.632C284.782 183.763 284.603 183.895 284.478 184.072C284.317 184.3 284.257 184.585 284.198 184.867C284.124 185.222 284.051 185.57 283.781 185.793C283.288 186.199 282.556 185.874 282.012 185.541L278.998 183.699C278.694 183.514 278.374 183.31 278.224 182.986C278.075 182.663 278.197 182.191 278.543 182.109ZM282.494 183.937C282.926 183.79 283.273 183.47 283.605 183.158C283.847 182.933 283.524 182.561 283.236 182.399L281.39 181.359C281.197 181.251 280.929 181.152 280.78 181.315C280.299 181.84 280.229 182.696 280.619 183.292C281.008 183.888 281.821 184.167 282.494 183.937ZM261.311 183.873C260.898 183.756 260.477 183.638 260.139 183.407C259.615 183.05 258.885 183.137 258.335 183.453C257.785 183.769 257.375 184.275 256.978 184.77C256.758 185.045 256.531 185.331 256.447 185.673C256.363 186.015 256.463 186.429 256.771 186.601L259.99 188.395C260.234 188.531 260.506 188.672 260.779 188.611C261.05 188.551 261.237 188.31 261.401 188.085L262.229 186.945C262.69 186.311 263.172 185.502 262.835 184.794C262.565 184.226 261.947 184.052 261.311 183.873ZM260.292 186.825C260.124 186.87 259.95 186.789 259.795 186.71L257.602 185.593C258.024 184.997 258.826 184.768 259.553 184.84C260.28 184.912 260.955 185.235 261.613 185.554L260.605 186.601C260.515 186.694 260.418 186.792 260.292 186.825ZM245.097 142.19C245.436 142.708 245.33 143.4 245.105 143.977C244.808 144.737 244.306 145.441 243.597 145.846C242.888 146.25 241.957 146.309 241.267 145.874C240.576 145.44 240.229 144.473 240.599 143.746C240.685 143.578 240.801 143.429 240.918 143.28C241.03 143.137 241.142 142.994 241.226 142.835C241.282 142.73 241.325 142.618 241.369 142.507L241.369 142.507C241.431 142.346 241.493 142.186 241.592 142.046C241.944 141.548 242.637 141.45 243.246 141.459C243.937 141.469 244.718 141.612 245.097 142.19ZM243.554 142.519C242.608 142.507 241.721 143.3 241.627 144.241C241.589 144.626 241.752 145.104 242.135 145.157C242.422 145.197 242.674 144.975 242.867 144.759C243.274 144.302 243.625 143.793 243.907 143.249C244.001 143.067 244.085 142.833 243.96 142.669C243.87 142.55 243.703 142.521 243.554 142.519ZM266.174 117.852C266.101 116.986 265.522 116.134 264.68 115.917C263.611 115.642 262.575 116.394 261.726 117.1C261.475 117.309 261.213 117.534 261.107 117.843C260.926 118.366 261.251 118.919 261.571 119.371C261.937 119.889 262.328 120.411 262.862 120.753C263.396 121.096 264.108 121.229 264.669 120.931C264.954 120.779 265.176 120.531 265.37 120.272C265.888 119.575 266.247 118.718 266.174 117.852ZM263.803 120.072C263.441 120.126 263.065 119.98 262.798 119.729C262.399 119.353 262.24 118.748 262.38 118.217C262.527 117.658 262.996 117.197 263.557 117.059C264.118 116.921 264.748 117.113 265.137 117.54C265.129 117.606 265.121 117.672 265.114 117.738C265.109 117.788 265.103 117.839 265.098 117.889L265.098 117.891C265.057 118.289 265.015 118.688 264.878 119.062C264.699 119.546 264.313 119.996 263.803 120.072ZM235.028 255.158C236.999 248.185 240.721 241.857 244.404 235.616C245.026 234.561 245.798 233.4 247.006 233.2C247.483 233.121 247.734 232.603 247.896 232.148C249.893 226.545 250.086 220.314 248.438 214.599C247.968 212.967 248.547 211.238 249.12 209.639L253.556 197.265C253.094 196.467 252.222 196.117 251.338 195.762C250.599 195.465 249.852 195.164 249.331 194.596C247.858 192.991 248.969 190.44 250.122 188.592L270.341 156.213C271.167 154.89 272.978 154.476 274.497 154.828C276.016 155.181 277.313 156.136 278.562 157.069L293.308 168.083C295.946 170.054 298.858 172.571 298.706 175.86C298.622 177.68 297.58 179.298 296.573 180.816L284.887 198.426C283.375 200.703 283.192 203.471 283.008 206.252C282.925 207.51 282.841 208.77 282.635 209.989C281.627 215.935 277.668 220.858 273.874 225.576L273.874 225.576C273.722 225.764 273.571 225.952 273.421 226.14C269.495 231.03 265.566 236.49 265.346 242.757C265.082 250.227 261.534 257.522 255.82 262.34L260.792 250.278C261.975 247.409 263.07 243.84 261.091 241.45C260.195 240.369 258.842 239.797 257.543 239.264L249.821 236.095C249.288 235.877 248.739 235.655 248.164 235.651C246.369 235.64 245.302 237.586 244.575 239.226C242.058 244.899 238.844 250.263 235.028 255.158ZM260.421 238.776C261.745 239.266 263.609 239.564 264.237 238.299C267.274 232.177 270.394 225.938 275.228 221.108C278.014 218.324 279.722 214.609 280.688 210.791C281.654 206.972 281.928 203.018 282.198 199.088C281.025 199.515 280.923 201.098 280.928 202.347C280.939 205.099 280.457 207.852 279.514 210.437C279.316 210.978 279.051 211.563 278.522 211.791C277.994 212.019 277.215 211.561 277.392 211.013C278.756 206.808 279.265 202.327 278.877 197.923C278.757 196.558 278.503 195.097 277.532 194.13C277.638 196.286 277.743 198.451 277.524 200.599C277.146 204.314 275.814 207.856 274.494 211.349C274.323 211.803 274.115 212.297 273.68 212.51C273.244 212.723 272.568 212.386 272.682 211.914L274.659 203.741C275.747 199.247 276.816 194.413 275.133 190.106C274.285 190.049 274.086 191.261 274.161 192.107C274.68 197.903 273.077 203.655 271.491 209.254C271.306 209.907 270.65 210.725 270.141 210.275C269.922 210.081 269.911 209.747 269.929 209.455C270.029 207.808 270.481 206.215 270.931 204.623L270.932 204.622C271.071 204.128 271.211 203.634 271.341 203.139C272.532 198.573 272.836 193.778 272.231 189.098C271.186 190.437 270.743 192.135 270.325 193.78L267.843 203.549C266.721 207.965 265.288 212.82 261.398 215.192C261.088 215.381 260.729 215.557 260.376 215.473C259.937 215.369 259.688 214.915 259.505 214.503C257.022 208.911 256.712 202.387 258.653 196.585C258.771 196.232 258.413 195.865 258.043 195.835C257.672 195.806 257.326 196.008 257.023 196.222C253.838 198.469 252.617 202.541 251.604 206.305L250.257 211.31C250.06 212.041 249.862 212.779 249.821 213.535C249.759 214.683 250.059 215.808 250.357 216.926C250.427 217.185 250.496 217.444 250.56 217.703C251.856 222.903 251.271 228.55 248.936 233.374C248.592 234.085 249.5 234.732 250.241 235.006L260.421 238.776ZM265.453 191.008C264.922 190.642 264.353 190.225 264.189 189.601C263.937 188.645 264.848 187.684 265.828 187.555C266.809 187.427 267.768 187.9 268.581 188.464C269.725 189.257 271.174 188.047 272.031 186.949C270.875 186.257 269.772 185.183 269.727 183.837C269.681 182.49 271.318 181.208 272.407 182C272.83 182.308 273.342 182.496 273.847 182.682C274.605 182.961 275.35 183.235 275.766 183.899C276.238 184.653 276.07 185.674 275.589 186.423C275.108 187.173 274.367 187.711 273.644 188.23C274.682 188.333 275.693 188.703 276.552 189.295L277.488 186.567C277.56 186.356 277.639 186.135 277.806 185.985C278.127 185.697 278.626 185.786 279.037 185.917C280.115 186.259 281.172 186.793 281.883 187.672C282.595 188.551 282.891 189.828 282.394 190.844C281.897 191.859 280.494 192.401 279.543 191.789C279.346 191.661 279.148 191.492 278.95 191.322L278.949 191.322C278.42 190.868 277.89 190.414 277.378 190.777C278.94 191.993 280.013 193.821 280.314 195.777C285.231 188.287 290.095 180.763 294.906 173.204C295.366 172.483 295.736 171.346 294.988 170.931C291.793 169.158 288.969 166.785 286.152 164.417L286.152 164.416C282.596 161.427 279.05 158.447 274.783 156.697C274.512 156.586 274.216 156.478 273.933 156.553C273.636 156.631 273.428 156.889 273.241 157.133C265.295 167.504 258.163 178.5 251.934 189.984C251.065 191.587 252.228 193.497 253.34 194.94C253.896 195.662 254.97 196.424 255.576 195.744C256.34 194.888 257.593 194.398 258.675 194.78C259.758 195.163 260.431 196.57 259.842 197.556C259.417 198.269 260.25 199.061 260.978 199.46C262.433 200.257 263.925 200.985 265.448 201.642C265.66 201.733 265.907 201.823 266.113 201.719C266.309 201.621 266.389 201.387 266.45 201.176L268.138 195.37C268.415 194.415 268.601 193.176 267.782 192.612L265.453 191.008ZM295.639 174.732C295.415 174.655 295.211 174.879 295.079 175.076L282.444 193.989C282.104 194.498 281.756 195.027 281.657 195.631C281.558 196.235 281.78 196.937 282.329 197.206C283.239 197.651 284.191 196.715 284.775 195.888L296.514 179.25C297.386 178.014 296.648 176.325 295.902 175.01C295.838 174.897 295.763 174.774 295.639 174.732ZM260.066 199.988C259.844 199.826 259.511 199.922 259.325 200.125C259.139 200.327 259.063 200.605 258.992 200.871C258.82 201.526 258.646 202.187 258.621 202.864C258.595 203.541 258.718 204.213 258.841 204.879L260.05 211.456C260.101 211.732 260.16 212.025 260.356 212.226C260.552 212.427 260.932 212.47 261.091 212.239C262.882 209.62 264.698 206.95 265.634 203.918C265.751 203.542 265.785 203.012 265.415 202.873C263.514 202.157 261.709 201.184 260.066 199.988ZM274.039 183.76C273.432 183.183 272.631 182.814 271.797 182.729C271.038 182.651 270.599 183.718 270.946 184.398C271.293 185.079 272.059 185.416 272.768 185.7C273.268 185.9 273.875 186.089 274.311 185.773C274.938 185.318 274.599 184.294 274.039 183.76ZM269.05 191.381C269.298 191.206 269.33 190.846 269.261 190.551C269 189.437 267.779 188.869 266.683 188.542C266.259 188.416 265.732 188.328 265.433 188.655C265.184 188.927 265.237 189.378 265.452 189.678C265.667 189.978 266.004 190.163 266.329 190.338L268.022 191.25C268.343 191.423 268.753 191.593 269.05 191.381ZM278.682 187.369C278.324 187.849 278.36 188.547 278.659 189.066C278.958 189.585 279.476 189.945 280.023 190.19C280.21 190.275 280.415 190.349 280.617 190.308C280.79 190.274 280.938 190.157 281.044 190.016C281.435 189.493 281.245 188.706 280.797 188.232C280.349 187.757 279.712 187.519 279.098 187.297C278.992 187.258 278.869 187.221 278.772 187.279C278.736 187.301 278.708 187.335 278.682 187.369ZM108.916 230.868C109.15 229.136 109.479 227.23 110.84 226.133C111.925 225.258 113.415 225.119 114.808 225.092C119.373 225.004 123.953 225.746 128.257 227.269C129.618 227.751 131.043 228.386 131.788 229.623C132.594 230.963 132.397 232.653 132.175 234.201L128.718 258.217C131.101 251.262 132.813 244.076 133.82 236.794C134.29 233.396 134.454 229.497 132.082 227.019C128.381 223.151 128.482 217.64 128.584 212.037C128.673 207.202 128.763 202.297 126.411 198.319C125.643 197.022 127.354 195.682 128.777 195.184C135.05 192.987 141.737 191.98 148.378 192.23C149.596 201.848 149.925 211.579 149.361 221.257C149.234 223.428 152.313 223.988 154.474 223.748L229.445 215.435C229.82 215.393 230.226 215.337 230.492 215.07C230.802 214.757 230.818 214.266 230.813 213.826C230.636 196.26 230.131 178.698 229.297 161.151C229.264 160.466 229.177 159.68 228.61 159.294C228.185 159.005 227.626 159.043 227.114 159.093L173.603 164.28C177.118 147.7 180.654 130.809 179.05 113.937C167.352 121.736 152.258 121.678 138.222 120.852C137.639 120.818 137.054 120.783 136.469 120.748C122.962 119.94 108.876 119.099 96.7338 124.941C103.092 141.799 109.523 160.199 104.238 177.423C103.77 178.947 103.214 180.444 102.658 181.94C101.8 184.247 100.943 186.552 100.414 188.952C99.5401 192.908 99.6714 197.337 102.013 200.644C105.403 205.432 108.097 210.876 108.712 216.71C109.295 222.247 107.992 227.738 106.69 233.223C105.33 238.953 103.972 244.677 104.769 250.439C104.903 251.414 105.147 252.463 105.91 253.084L108.916 230.868ZM114.22 161.294C115.638 161.344 116.202 163.124 116.383 164.531L117.818 175.673C115.016 174.219 111.073 176.686 111.153 179.842C108.792 175.283 108.433 170.059 108.078 164.888C108 163.763 107.923 162.64 107.826 161.528C106.783 149.63 103.197 138.122 99.6339 126.723C99.1257 125.097 101.321 124.043 103.006 123.796C114.063 122.175 125.254 122.399 136.451 122.623C141.526 122.724 146.602 122.826 151.667 122.756C160.667 122.631 170.19 121.779 177.491 116.514C179.132 127.453 176.902 138.49 174.7 149.388C174.402 150.862 174.104 152.333 173.817 153.802C171.407 166.126 169.766 179.263 174.378 190.943C174.572 191.436 173.91 191.807 173.392 191.915C169.599 192.706 165.677 192.876 161.829 192.417C160.179 192.22 158.546 191.909 156.912 191.597C155.682 191.363 154.452 191.128 153.214 190.943C143.895 189.544 134.168 190.996 125.663 195.054C125.322 195.216 124.916 195.14 124.559 195.017C122.837 194.42 121.608 192.829 120.995 191.112C120.382 189.396 120.294 187.543 120.212 185.722L119.869 178.085C119.857 177.81 119.929 177.438 120.203 177.429C135.102 176.964 149.984 175.959 164.811 174.418C164.184 170.91 164.122 167.302 164.627 163.775C164.946 161.548 162.852 159.518 160.623 159.22C158.393 158.922 156.188 159.932 154.336 161.21C153.644 161.688 152.979 162.207 152.314 162.726C151.202 163.594 150.091 164.462 148.854 165.134C148.044 165.574 147.07 165.929 146.22 165.573C145.179 165.138 144.831 163.9 144.519 162.795C144.5 162.726 144.48 162.657 144.461 162.589C144.055 161.166 143.385 159.749 142.206 158.854C141.028 157.959 139.25 157.736 138.086 158.651C137.092 159.433 136.777 160.788 136.611 162.042C136.596 162.153 136.581 162.266 136.567 162.378C136.419 163.531 136.267 164.723 135.578 165.648C134.823 166.663 133.137 167.098 132.309 166.142C130.67 164.251 127.795 163.854 125.382 164.518C122.97 165.181 120.905 166.714 118.904 168.216C117.696 166.326 117.596 163.781 118.652 161.803L118.67 161.77C118.868 161.399 119.096 160.972 118.921 160.594C118.812 160.359 118.572 160.216 118.335 160.114C116.915 159.505 115.102 160.025 114.22 161.294ZM156.88 193.231C157.674 193.389 158.65 193.743 158.699 194.551C159.167 202.256 165.29 209.18 172.819 210.885C180.347 212.591 188.691 209.142 193.081 202.793C197.47 196.443 197.814 187.622 194.214 180.794C190.354 173.471 180.973 169.582 173.064 172.026C172.697 170.407 172.738 168.698 173.183 167.099C173.265 166.803 173.373 166.492 173.613 166.298C173.847 166.109 174.163 166.066 174.462 166.03L196.742 163.346C198.701 163.11 200.665 162.874 202.638 162.858C211.122 162.788 219.599 161.942 227.93 160.334C229.224 177.716 229.834 195.148 229.755 212.578C229.752 213.405 229.5 214.503 228.673 214.528C214.651 214.936 200.739 216.781 186.822 218.626C177.472 219.866 168.119 221.106 158.728 221.911C156.635 222.09 154.528 222.248 152.437 222.049C152.058 222.012 151.63 221.935 151.424 221.615C151.3 221.422 151.286 221.18 151.276 220.951L150.025 193.072C150.009 192.712 150.031 192.278 150.343 192.097C150.55 191.977 150.808 192.02 151.043 192.067L156.88 193.231ZM118.517 186.777C118.296 188.225 118.046 189.854 118.995 190.949C122.533 195.035 126.209 199.401 127.149 204.724C127.589 207.21 127.4 209.768 127.212 212.316C126.975 215.525 126.74 218.718 127.762 221.728C127.789 221.807 127.816 221.885 127.844 221.964C128.031 222.501 128.223 223.048 128.162 223.609C128.092 224.251 127.534 224.898 126.897 224.788L119.5 223.512C117.051 223.09 114.463 222.679 112.136 223.553C111.686 223.722 111.168 223.425 110.927 223.01C110.686 222.594 110.654 222.094 110.634 221.613C110.608 221.034 110.589 220.45 110.57 219.865C110.451 216.182 110.329 212.431 108.625 209.204L103.187 198.91C102.384 197.391 101.562 195.803 101.507 194.085C101.47 192.938 101.78 191.811 102.087 190.705L104.8 180.933C105.371 178.876 105.975 176.753 107.328 175.101C110.613 180.676 110.938 187.888 108.165 193.735C107.909 194.276 108.692 194.833 109.251 194.617C109.809 194.402 110.093 193.79 110.29 193.225C111.078 190.96 111.355 188.573 111.632 186.182C111.856 184.248 112.08 182.311 112.576 180.436C112.88 179.287 113.318 178.114 114.206 177.323C115.093 176.532 116.54 176.262 117.47 177.002C118.181 177.569 118.412 178.537 118.548 179.436C118.905 181.809 118.903 184.236 118.543 186.608C118.534 186.664 118.526 186.72 118.517 186.777ZM131.28 167.484C132.371 168.319 133.438 169.136 134.747 168.985C136.409 168.792 137.446 167.081 137.929 165.478C138.034 165.127 138.128 164.768 138.223 164.408C138.559 163.124 138.898 161.83 139.779 160.864C140.035 160.583 140.404 160.322 140.767 160.432C141.062 160.521 141.234 160.819 141.371 161.095C141.564 161.486 141.748 161.883 141.931 162.281C142.449 163.402 142.967 164.523 143.718 165.497C144.736 166.816 146.32 167.854 147.977 167.673C149.458 167.51 150.615 166.461 151.743 165.439C151.975 165.229 152.205 165.021 152.436 164.821C155.153 162.478 158.692 161.107 162.278 161.009C161.795 162.218 162.117 163.536 162.434 164.83C162.51 165.142 162.586 165.452 162.65 165.759C163.156 168.179 162.9 170.754 161.927 173.027L137.973 174.871C132.381 175.302 126.774 175.733 121.169 175.536C120.815 175.523 120.452 175.506 120.126 175.367C119.511 175.103 119.146 174.447 119.013 173.791C118.716 172.32 119.394 170.788 120.421 169.694C121.449 168.601 122.79 167.864 124.107 167.146C125.478 166.398 127 165.626 128.529 165.945C129.546 166.157 130.42 166.826 131.28 167.484ZM176.641 202.379C173.012 202.304 169.868 199.343 168.79 195.877C168.57 195.169 169.028 194.393 169.659 194.004C170.29 193.616 171.053 193.524 171.79 193.441L177.107 192.844C175.49 189.701 174.338 186.319 173.701 182.842C173.643 182.527 173.591 182.196 173.69 181.891C173.865 181.356 174.442 181.074 174.976 180.895C179.296 179.443 184.483 181.206 187.024 184.99C189.564 188.774 189.231 194.243 186.249 197.69C184.958 199.182 183.267 200.284 181.485 201.131C179.965 201.854 178.323 202.413 176.641 202.379ZM193.862 183.697C194.507 185.83 194.694 188.072 194.782 190.299C193.332 190.079 191.868 189.954 190.402 189.926C190.115 186.181 187.623 182.798 184.346 180.963C181.07 179.128 177.115 178.731 173.413 179.36C173.382 178.832 173.286 178.281 173.189 177.731C172.935 176.277 172.681 174.824 173.621 173.792C174.189 173.169 175.054 172.92 175.882 172.765C179.657 172.062 183.682 172.799 186.962 174.794C190.243 176.788 192.749 180.023 193.862 183.697ZM167.246 195.499C167.24 195.568 167.234 195.636 167.231 195.701C167.207 196.219 167.448 196.693 167.687 197.163C167.751 197.289 167.814 197.414 167.873 197.54C168.149 198.136 168.283 198.921 167.821 199.388C166.703 200.517 165.714 201.775 164.881 203.129C164.675 203.463 164.169 203.491 163.83 203.291C163.491 203.092 163.281 202.735 163.086 202.394C161.848 200.237 160.579 197.979 160.425 195.496C160.406 195.188 160.44 194.814 160.714 194.67C160.834 194.607 160.977 194.605 161.113 194.604L166.648 194.587C166.781 194.587 166.92 194.588 167.035 194.654C167.306 194.808 167.275 195.166 167.246 195.499Z" fill="#00160A"/>
</svg>
