<svg width="333" height="333" viewBox="0 0 333 333" fill="none" xmlns="http://www.w3.org/2000/svg">
<path fill-rule="evenodd" clip-rule="evenodd" d="M90.2302 94.1389C97.9006 87.4472 108.171 84.8223 117.607 81.0045C144.905 69.9599 166.343 48.2031 191.788 33.3807C204.381 26.0455 219.376 20.317 233.323 24.5435C243.029 27.4849 251.102 35.3484 254.299 44.9738C260.333 63.146 249.414 81.9853 243.289 100.127C231.599 134.747 237.529 173.154 250.403 207.351C253.219 214.829 256.377 222.261 257.692 230.142C260.748 248.461 253.176 267.572 240.345 281C227.514 294.427 209.969 302.627 191.908 306.956C169.772 312.262 146.346 312.098 124.287 306.482C113.108 303.637 102.116 299.318 93.0521 292.183C83.9887 285.047 76.9783 274.842 75.3476 263.423C72.8921 246.226 82.554 229.691 84.2577 212.404C85.0158 204.711 84.1825 196.959 83.2924 189.281C81.9718 177.889 80.5245 166.511 78.951 155.151C77.4681 144.446 75.8695 133.626 76.9449 122.872C78.0202 112.118 82.086 101.244 90.2302 94.1389Z" fill="#DFA8A9" fill-opacity="0.21"/>
<path d="M189.323 233.443C189.46 235.225 189.552 237.073 188.923 238.747C187.824 241.671 184.841 243.369 182.075 244.821C165.832 253.347 149.407 261.74 131.939 267.345C131.161 266.082 127.093 259.106 130.007 256.612C136.309 251.219 169.017 229.357 169.017 229.357C169.017 229.357 165.256 222.067 167.367 219.929C171.422 215.824 183.324 215.164 185.923 215.693C187.661 216.047 189.217 232.072 189.323 233.443Z" fill="white"/>
<path fill-rule="evenodd" clip-rule="evenodd" d="M139.107 254.492C139.107 254.492 139.694 255.779 141.542 255.779C143.39 255.779 146.857 248.662 148.732 244.881C150.625 241.061 150.514 241.017 153.854 232.951C157.194 224.885 150.594 212.791 150.594 212.791C150.594 212.791 139.8 211.353 137.964 212.791C135.088 215.045 136.924 229.436 136.924 229.436L139.107 254.492Z" fill="white"/>
<path d="M190.863 137.513C185.277 135.503 177.923 134.654 172.707 131.818C172.92 131.789 171.591 128.008 172.815 124.133C174.18 119.811 225.668 145.062 228.575 147.909C228.881 148.209 236.035 156.48 233.282 157.038C231.609 157.377 230.541 156.232 224.456 152.888C218.371 149.545 219.381 155.308 218.371 155.442C217.497 155.558 217.155 154.1 217.167 154.309C209.793 146.849 200.733 141.065 190.863 137.513Z" fill="white"/>
<path fill-rule="evenodd" clip-rule="evenodd" d="M218.917 61.4511C220.823 64.4633 221.267 66.3559 221.752 69.888C218.89 72.2144 185.995 93.1114 162.159 102.674L162.603 102.64C166.633 102.318 169.618 101.61 170.436 100.619C174.51 115.761 174.418 132.003 170.173 147.099C169.576 149.222 172.055 150.791 174.132 151.6L174.239 151.641C188.963 157.234 202.942 164.784 215.694 174.03C208.374 177.541 201.669 182.33 195.973 188.115L195.368 188.736C193.351 190.814 191.332 192.965 188.713 194.168C185.832 195.491 181.94 195.278 180.039 192.742L183.493 199.126C175.888 203.603 167.319 206.43 158.543 207.36L158.081 207.407C157.14 207.5 156.111 207.549 155.333 207.011C154.776 206.625 154.446 206 154.15 205.386L142.533 180.999C140.416 176.543 138.348 172.003 137.547 167.143C135.81 156.6 139.763 145.785 138.163 135.221C136.45 123.911 128.255 114.822 123.385 104.472C121.51 100.487 118.747 94.6682 121.066 88.3413C123.385 82.0145 149.686 82.7853 170.173 77.3863C196.628 70.4146 218.579 60.9162 218.917 61.4511Z" fill="white"/>
<ellipse cx="144.742" cy="64.2878" rx="15.6529" ry="18.9124" fill="white"/>
<path d="M166.051 123.4C165.529 125.658 162.796 127.097 160.626 126.281C160.338 126.173 160.208 125.845 160.114 125.551C158.872 121.698 158.052 117.709 157.672 113.678C157.604 112.948 157.551 112.198 157.76 111.495C158.214 109.965 160.028 108.992 161.553 109.46C162.593 109.778 163.395 110.643 163.883 111.614C164.372 112.585 164.591 113.666 164.804 114.732C165.156 116.491 165.508 118.251 165.86 120.011C166.084 121.129 166.307 122.289 166.051 123.4Z" fill="white"/>
<path d="M155.799 220.444C155.457 220.238 152.788 213.941 153.983 213.22C158.989 210.196 198.095 195.669 202.676 192.981C207.256 190.294 201.71 187.114 202.004 185.043C202.47 181.767 212.555 179.348 212.577 177.686C219.144 181.96 225.381 185.96 229.883 192.373C231.56 194.763 233.273 199.451 231.645 201.875C230.681 203.31 228.211 204.029 226.563 204.55C213.335 208.732 153.201 224.612 155.799 220.444Z" fill="white"/>
<path d="M132.409 270.302C131.301 279.546 128.923 288.636 125.362 297.237C124.713 298.805 123.943 300.453 122.493 301.332C121.042 302.21 118.733 301.837 118.209 300.224C114.149 287.712 112.137 274.539 112.28 261.386C112.285 260.852 112.302 260.291 112.573 259.831C112.985 259.131 113.851 258.868 114.639 258.674C118.676 257.68 122.787 256.99 126.927 256.612C127.386 256.83 126.055 268.23 132.409 270.302Z" fill="white"/>
<circle cx="236.524" cy="79.1021" r="21.6907" fill="#FF611D"/>
<path fill-rule="evenodd" clip-rule="evenodd" d="M222.582 60.0404C223.205 62.7904 224.192 65.5433 226.507 65.1213C229.514 64.573 223.372 63.4877 264.035 59.7188C264.5 59.6758 263.684 58.7727 263.279 58.5415C261.141 57.3219 258.888 56.2879 256.571 55.4593C252.812 54.1152 222.225 58.4664 222.582 60.0404Z" fill="white"/>
<path fill-rule="evenodd" clip-rule="evenodd" d="M217.167 154.309C209.793 146.849 200.733 141.065 190.863 137.513C185.277 135.503 179.397 134.18 174.18 131.344C174.628 131.283 175.035 130.979 175.222 130.568C189.637 135.519 204.564 140.779 215.451 151.445C216.265 152.243 217.101 153.171 217.167 154.309Z" fill="#00160A"/>
<path fill-rule="evenodd" clip-rule="evenodd" d="M174.112 115.014C176.309 115.827 178.02 117.548 179.82 119.048C189.697 127.278 203.408 129.495 213.731 137.159C212.791 136.911 211.898 136.516 211.009 136.122C201.595 131.947 192.162 127.764 183.208 122.675C179.722 120.694 176.181 118.449 174.112 115.014L174.112 115.014Z" fill="#00160A"/>
<path fill-rule="evenodd" clip-rule="evenodd" d="M128.04 59.4795C127.074 55.6483 126.237 51.5908 127.319 47.7908C128.4 43.9908 132.035 40.6272 135.942 41.2119C138.589 41.6081 141.178 40.4096 143.612 39.2831L143.712 39.2368C146.878 37.7716 150.228 36.3884 153.714 36.5203C157.2 36.6521 160.849 38.7168 161.733 42.0914C162.114 43.5429 161.959 45.074 161.802 46.5662L160.494 58.9886C159.972 63.9386 159.363 69.1302 156.493 73.1965C153.622 77.2627 147.691 79.6282 143.509 76.9287C142.933 78.5434 144.211 80.344 145.809 80.9631C147.408 81.5823 149.195 81.3408 150.89 81.0833C170.874 78.0469 191.476 73.6804 207.578 61.4612C207.265 59.3467 208.376 57.0934 210.243 56.0535L210.42 55.9548C211.654 55.2652 213.544 54.2091 214.833 54.4774C216.335 54.7897 217.391 56.2751 218.364 57.6426C218.606 57.9835 218.844 58.3172 219.081 58.6235C221.131 61.2647 221.812 64.686 222.434 67.9711C222.63 69.0082 222.538 70.4795 221.491 70.6186C227.264 70.716 233.028 71.3644 238.678 72.5523L240.014 69.0035C236.542 63.5311 226.904 64.033 224.02 69.8363C223.137 68.7831 224.55 67.363 225.77 66.7301C225.688 66.7723 225.691 66.7684 225.768 66.7264C223.924 63.4184 222.567 59.8404 221.752 56.1423C222.491 57.7416 223.275 59.0496 224.059 60.3577C224.843 61.6657 225.626 62.9738 226.366 64.573C232.261 61.8456 238.442 61.258 244.903 60.6437L245.096 60.6254C242.551 61.5774 240.997 64.6175 241.716 67.2374C244.759 67.1736 247.778 66.2122 250.297 64.5044C248.703 63.7439 247.482 62.243 247.062 60.5279C250.086 62.0549 252.209 63.7264 251.055 65.0726C249.443 66.9539 243.344 68.2946 241.24 68.5534L240.051 72.915C245.151 74.3346 249.979 76.7254 254.199 79.9213C256.863 81.9384 259.32 86.0709 256.753 88.2097L272.86 88.442C273.919 88.4572 275.417 89.1535 274.898 90.0763L205.685 90.1123C204.732 90.1128 203.44 89.0414 204.287 88.6035C208.159 88.8113 212.052 88.6397 215.891 88.0919C214.351 84.6974 213.831 80.8476 214.416 77.1661C215.3 71.5964 212.545 65.6208 207.736 62.6759C186.633 77.7124 159.646 81.1315 133.871 83.7907C130.742 84.1135 127.391 84.5244 125.029 86.6022C122.565 88.7696 121.751 92.363 122.185 95.6158C122.619 98.8686 124.122 101.871 125.67 104.764C126.575 106.455 127.507 108.147 128.442 109.846L128.442 109.846L128.443 109.847L128.443 109.847C134.271 120.429 140.223 131.239 140.403 143.183C140.449 146.283 140.097 149.377 139.745 152.467C139.305 156.33 138.866 160.188 139.206 164.048C139.78 170.554 142.529 176.643 145.238 182.586L154.773 203.507C155.14 204.312 155.54 205.157 156.268 205.658C157.48 206.492 159.118 206.093 160.526 205.663L176.43 200.806C177.99 200.33 179.842 199.511 179.971 197.885C180.042 196.989 179.53 196.163 179.038 195.411L174.647 188.701L184.656 192.519C185.362 192.788 186.106 193.062 186.854 192.958C187.776 192.83 188.516 192.158 189.198 191.525C196.431 184.809 204.333 178.815 212.749 173.659C199.601 163.793 184.665 156.317 168.886 151.707C172.448 135.346 172.543 118.239 169.165 101.839L146.884 108.922C146.777 111.65 147.467 114.317 148.155 116.974C148.337 117.676 148.518 118.377 148.685 119.078C149.483 122.435 149.917 126.101 148.461 129.23C147.006 132.359 143.044 134.522 139.974 132.947C143.627 134.143 147.526 130.906 148.498 127.187C149.47 123.467 148.37 119.556 147.277 115.87L144.972 108.097C169.677 100.764 193.001 88.8029 213.372 73.018C201.132 84.9357 185.688 92.9221 170.436 100.619C174.51 115.762 174.418 132.003 170.173 147.099C169.566 149.259 172.141 150.844 174.239 151.641C188.963 157.234 202.942 164.784 215.694 174.03C208.374 177.541 201.669 182.331 195.973 188.115C195.684 188.409 195.396 188.706 195.108 189.004C193.177 190.997 191.22 193.017 188.713 194.168C185.832 195.491 181.94 195.278 180.039 192.742L183.493 199.126C175.755 203.682 167.017 206.529 158.081 207.407C157.14 207.5 156.111 207.549 155.333 207.011C154.739 206.599 154.403 205.916 154.092 205.263L142.906 181.784C140.663 177.076 138.395 172.289 137.547 167.143C136.669 161.813 137.358 156.413 138.048 151.011C138.722 145.729 139.397 140.444 138.606 135.221C137.481 127.792 133.559 121.321 129.619 114.822C127.561 111.427 125.499 108.024 123.828 104.472C121.953 100.487 120.541 96.0666 121.254 91.7205C121.967 87.3744 125.338 83.2234 129.726 82.8539C128.62 77.3513 129.057 71.547 130.975 66.2721C131.037 71.9177 130.756 77.5671 130.136 83.1789L144.624 81.884L140.511 75.3271C145.722 79.1087 153.629 75.8545 156.919 70.3197C160.208 64.7849 160.116 57.9376 159.7 51.5125C155.463 54.1077 149.938 54.4662 145.401 52.4401C143.295 51.4995 140.73 52.7663 139.442 54.6798C138.153 56.5933 137.829 58.9752 137.538 61.2635C136.534 60.8818 136.297 59.8077 136.051 58.6898C135.878 57.905 135.7 57.0985 135.248 56.4948C133.637 54.3399 129.803 56.672 129.9 59.3607C129.996 62.0494 132.29 64.083 134.467 65.6632C131.308 66.8658 128.866 62.7573 128.04 59.4795ZM215.981 56.7096C215.568 56.229 215.08 55.7341 214.45 55.6616C213.757 55.5819 213.128 56.0363 212.579 56.4667L210.545 58.0605C209.85 58.6049 209.135 59.1729 208.722 59.9529C208.309 60.7328 208.279 61.789 208.893 62.4234C210.995 64.5965 213.13 66.8142 214.492 69.5141C215.853 72.2141 216.347 75.5202 215.063 78.2579C214.398 79.6768 215.256 81.4542 216.599 82.2631C217.941 83.0719 219.606 83.1175 221.164 82.9559C224.014 82.6606 226.76 81.7593 229.481 80.8635L235.115 79.009C237.068 78.3661 238.442 76.2878 238.269 74.2392C238.521 73.8157 237.886 73.4297 237.402 73.3416C233.749 72.6774 230.065 72.1863 226.366 71.8705C222.916 71.576 219.099 71.5431 216.42 73.7361C217.578 71.7267 219.543 70.1977 221.775 69.5689C221.127 64.8466 219.089 60.3237 215.981 56.7096ZM237.643 79.1383C239.494 79.7724 240.781 81.4633 241.666 83.2082C241.984 83.8339 242.266 84.4789 242.548 85.1235L242.548 85.1237L242.548 85.1239C243.052 86.2766 243.555 87.428 244.261 88.4659C247.22 88.5777 250.185 88.5564 253.143 88.4022C253.93 88.3612 254.734 88.3065 255.457 87.9933C256.18 87.6802 256.816 87.0547 256.925 86.2747C256.951 86.0939 256.948 85.9092 256.945 85.7251V85.725V85.7248V85.7247C256.94 85.4536 256.936 85.1836 257.022 84.9289C257.049 84.8476 257.085 84.7628 257.121 84.6769C257.251 84.3664 257.386 84.0425 257.166 83.8243C252.585 79.2964 246.841 75.9561 240.64 74.2149C240.288 74.1161 239.873 74.0343 239.589 74.2644C239.43 74.3938 239.351 74.5955 239.278 74.7879L237.643 79.1383ZM218.022 88.3375L230.784 88.3773C231.6 88.3798 232.144 87.5633 232.532 86.8451L236.361 79.7563C234.16 80.1804 232.056 80.9604 229.95 81.7412C228.666 82.2172 227.381 82.6935 226.073 83.0896C222.619 84.1354 218.745 84.5824 215.505 82.995C215.554 84.5084 216.158 85.9978 217.178 87.1173C216.902 87.2234 216.748 87.5712 216.854 87.8468C217.017 88.267 217.572 88.3361 218.022 88.3375ZM232.738 88.3308C235.144 88.0991 237.568 88.1766 239.984 88.2543L242.692 88.3413C241.915 85.8369 240.715 83.4642 239.159 81.3537C238.862 80.9506 238.529 80.5395 238.063 80.3565C237.596 80.1734 236.966 80.3157 236.776 80.7792C235.691 83.4249 234.336 85.9595 232.738 88.3308ZM239.415 67.0734C239.626 67.1797 239.866 67.285 240.093 67.2157C240.426 67.1137 240.54 66.7091 240.602 66.3663L241.261 62.7135C241.298 62.5107 241.33 62.285 241.217 62.1124C241.04 61.84 240.625 61.8748 240.331 62.0149C240.256 62.0506 240.182 62.0914 240.108 62.1322C239.892 62.2513 239.675 62.3708 239.433 62.367C237.679 62.3395 235.92 62.7325 234.344 63.5038C235.846 64.9352 237.561 66.1425 239.415 67.0734ZM158.417 57.4541L155.579 58.7491C155.351 58.8531 155.084 58.9572 154.86 58.8439C154.574 58.6991 154.555 58.2676 154.741 58.0066C154.926 57.7456 155.24 57.6141 155.537 57.4953L156.774 57.0011C157.092 56.874 157.427 56.7444 157.767 56.7875C158.107 56.8306 158.443 57.1125 158.417 57.4541ZM148.517 60.2737C148.94 60.243 149.367 59.8219 149.207 59.429L147.5 59.0708C146.065 58.7696 144.383 58.5292 143.295 59.5129C142.942 59.832 142.71 60.4374 143.066 60.7534C144.19 59.7476 145.883 59.4252 147.299 59.9468C147.38 59.9768 147.461 60.0095 147.543 60.0422C147.86 60.1696 148.18 60.2982 148.517 60.2737ZM153.335 61.409L153.007 60.8395C152.861 60.7622 152.658 60.821 152.575 60.9648C151.983 62.7375 152.259 64.7782 153.3 66.3301C153.557 66.7124 153.112 67.2519 152.652 67.2497C152.192 67.2475 151.806 66.9112 151.495 66.5718C151.134 67.1729 151.757 68.017 152.458 68.0091C153.16 68.0012 153.733 67.3636 153.879 66.6774C154.024 65.9912 153.831 65.2792 153.578 64.6253C153.515 64.4626 153.447 64.301 153.38 64.1394C153.177 63.6512 152.974 63.1626 152.882 62.6439C152.798 62.1735 152.885 61.5703 153.335 61.409ZM141.399 69.1298C141.2 68.1973 141.154 66.9501 142.035 66.5851C142.69 66.3137 143.45 66.797 143.781 67.4244C144.033 67.9017 144.113 68.441 144.194 68.9789C144.219 69.148 144.244 69.317 144.274 69.4839C144.402 70.1817 144.676 70.9222 145.291 71.2754C147.171 72.3548 149.338 72.9283 151.505 72.92C149.406 73.843 147.014 72.756 144.985 71.6893L140.362 69.2603C140.062 69.1026 139.711 68.7785 139.895 68.4937C140.425 68.6268 140.934 68.8422 141.399 69.1298ZM142.78 68.5083C142.884 68.9694 142.912 69.4478 142.862 69.9179C143.251 69.9773 143.621 70.1611 143.903 70.4359C143.803 69.3974 143.538 68.375 143.12 67.4191C142.891 66.8942 141.998 67.0957 141.793 67.6306C141.588 68.1655 141.843 68.7606 142.134 69.2539C142.149 68.8994 142.431 68.5738 142.78 68.5083ZM145.875 157.595C153.445 156.57 161.223 155.477 167.878 151.726C168.166 151.564 168.479 151.175 168.224 150.966C160.847 154.544 152.743 156.615 144.554 157.014C144.561 157.561 145.332 157.669 145.875 157.595ZM152.807 233.822C153.229 232.906 153.56 231.948 153.792 230.966L147.938 229.661C148.057 229.176 148.717 229.118 149.212 229.184C150.828 229.4 152.419 229.801 153.945 230.374L155.034 225.839C155.265 225.713 155.551 225.692 155.799 225.783C155.053 229.952 153.866 234.043 152.264 237.965C152.032 238.534 151.655 239.195 151.04 239.19C150.996 238.828 151.055 238.453 151.208 238.122C149.733 238.207 148.09 238.238 146.984 237.26C148.435 237.073 149.918 237.136 151.347 237.448C151.928 236.555 152.375 235.575 152.667 234.55C150.97 234.468 149.288 234.092 147.717 233.444C147.878 232.978 148.532 232.983 149.017 233.078L152.807 233.822ZM120.79 299.242C117.648 287.415 115.721 275.266 115.049 263.048C114.991 261.987 114.982 260.803 115.695 260.014C116.186 272.211 117.912 284.359 120.837 296.211C121.086 297.219 121.327 298.353 120.79 299.242ZM125.231 277.979C126.918 277.598 128.698 277.638 130.366 278.093L131.121 275.167C129.067 274.999 127.035 274.572 125.088 273.898C127.165 273.511 129.36 273.785 131.278 274.669C130.95 273.145 131.382 271.476 132.409 270.302C131.301 279.546 128.923 288.636 125.362 297.237C124.713 298.805 123.943 300.453 122.492 301.332C121.041 302.211 118.733 301.837 118.209 300.224C114.149 287.712 112.137 274.539 112.28 261.386C112.285 260.852 112.302 260.291 112.573 259.831C112.984 259.131 113.85 258.868 114.639 258.674C118.676 257.68 122.787 256.99 126.927 256.612C127.386 256.83 126.784 257.458 126.284 257.552L112.872 260.075C113.014 273.487 115.056 286.878 118.919 299.722C119.069 300.221 119.246 300.754 119.665 301.065C120.746 301.867 122.137 300.582 122.822 299.423C125.956 294.119 128.17 288.273 129.335 282.223C127.911 282.851 126.188 282.752 124.845 281.964C126.367 281.559 127.989 281.539 129.52 281.906L130.281 279.178L125.231 277.979ZM202.676 189.986C202.679 189.585 202.504 189.205 202.294 188.864C201.751 187.982 200.95 187.263 200.016 186.819C199.608 187.448 200.163 188.234 200.62 188.828C201.077 189.423 201.387 190.43 200.734 190.799L189.815 196.971C189.453 197.175 189.043 197.62 189.322 197.927C191.832 197.612 194.073 196.259 196.229 194.936L201.036 191.988C201.806 191.516 202.668 190.889 202.676 189.986ZM161.327 156.281C161.62 156.198 161.28 155.775 160.978 155.743C160.675 155.711 160.252 155.433 160.482 155.234L161.756 155.285C162.312 155.517 162.128 156.451 161.581 156.704C161.034 156.957 160.395 156.76 159.826 156.56C159.757 157.264 158.992 157.814 158.303 157.655C157.613 157.496 157.166 156.667 157.412 156.004C157.812 155.66 158.41 155.567 158.896 155.773C158.943 155.979 158.731 156.043 158.5 156.112C158.367 156.151 158.228 156.193 158.129 156.265C157.729 156.557 158.309 157.234 158.772 157.061C159.236 156.889 159.42 156.344 159.547 155.865C160.073 156.194 160.71 156.343 161.327 156.281ZM148.248 61.8961C149.012 61.7782 149.346 62.9528 148.931 63.6054C148.577 64.1617 147.822 64.5118 147.233 64.2161C147.063 63.5782 147.204 62.8651 147.604 62.3399C147.766 62.1273 147.984 61.9368 148.248 61.8961ZM156.685 62.8719C157.434 62.4589 157.164 61.3316 156.794 60.5605C155.758 60.6916 155.093 62.0315 155.615 62.9361C155.974 63.0014 156.366 63.0481 156.685 62.8719ZM153.983 213.22L158.842 211.008C159.239 209.835 158.776 208.427 157.761 207.718C157.732 208.548 157.913 209.385 158.282 210.129C156.186 211.142 154.03 212.031 151.829 212.791C153.05 215.733 153.944 218.81 154.491 221.948C157.429 222.045 160.377 221.82 163.265 221.279L166.659 228.637L152.846 238.909C148.231 242.341 146.024 248.05 144.041 253.449C145.798 251.836 146.745 249.573 147.687 247.321C148.723 244.844 149.754 242.379 151.853 240.805L165.91 230.259C166.419 229.877 166.961 229.447 167.115 228.831C167.259 228.252 167.026 227.654 166.796 227.103L164.252 221.001C171.614 219.879 178.876 218.101 185.923 215.693L187.762 232.887C188.001 235.124 188.197 237.561 186.982 239.455C186.11 240.817 184.646 241.665 183.232 242.452C166.807 251.596 149.676 259.471 132.042 265.985L128.764 257.484C131.907 255.158 135.173 252.997 138.543 251.014C138.52 252.203 138.513 253.461 139.107 254.492C139.701 255.523 141.125 256.175 142.122 255.526C143.236 254.801 143.084 253.156 142.822 251.853C140.334 239.449 139.936 226.733 139.545 214.087C138.556 227.378 139.528 240.813 142.419 253.823C142.616 254.705 141.251 255.233 140.518 254.705C139.784 254.178 139.6 253.183 139.478 252.287C137.831 240.19 137.095 227.969 137.279 215.761C137.291 214.936 137.367 213.991 138.028 213.499C138.464 213.175 139.044 213.141 139.587 213.12L151.054 212.671C147.099 212.097 143.075 212.009 139.099 212.41C138.454 212.475 137.766 212.573 137.284 213.006C136.655 213.573 136.579 214.518 136.553 215.365C136.225 226.089 136.816 236.842 138.319 247.466C138.592 249.399 137.12 251.17 135.466 252.209C134.772 252.645 134.03 253.005 133.289 253.363L133.288 253.363C132.266 253.858 131.245 254.352 130.352 255.048C128.81 256.247 127.703 258.386 128.537 260.152L131.939 267.345C149.407 261.74 165.832 253.347 182.075 244.821C184.841 243.369 187.824 241.671 188.923 238.747C189.552 237.073 189.46 235.225 189.323 233.443C188.856 227.396 187.963 221.382 186.652 215.461C200.028 211.779 213.335 207.846 226.563 203.665C228.211 203.144 229.983 202.529 230.948 201.094C232.576 198.67 231.061 195.419 229.384 193.029C224.882 186.616 219.144 181.075 212.577 176.8C212.555 178.463 214.072 179.673 215.4 180.673C220.046 184.17 224.147 188.389 227.51 193.132C228.938 195.146 230.21 198.006 228.63 199.904C227.921 200.756 226.811 201.14 225.758 201.484C202.589 209.052 179.07 215.547 155.301 220.943L153.983 213.22ZM260.568 154.948C261.085 155.952 261.89 157.171 262.993 156.932C260.658 152.123 257.363 147.783 253.359 144.242L264.862 133.872L263.808 151.657C263.733 152.929 263.67 154.267 264.231 155.411C265.306 155.055 265.495 153.641 265.502 152.508C265.642 132.035 269.13 111.589 275.784 92.2267C275.089 91.2425 273.696 91.1302 272.491 91.1245C267 91.0983 261.513 91.3487 256.025 91.5991C249.896 91.8787 243.767 92.1583 237.635 92.0525C234.705 92.002 231.768 91.8639 228.831 91.7259C220.948 91.3553 213.064 90.9847 205.31 92.306C205.193 92.326 205.072 92.348 204.974 92.4155C204.677 92.6204 204.765 93.0742 204.885 93.4145C209.671 106.967 212.971 121.043 214.707 135.311C214.959 137.379 216.787 138.84 218.471 140.066L225.168 144.942C226.12 145.634 227.759 146.167 228.211 145.08C228.533 144.306 229.51 143.975 230.333 144.133C231.157 144.291 231.855 144.821 232.498 145.36C236.252 148.508 239.26 152.541 241.208 157.038L252.235 145.085C255.708 147.689 258.58 151.089 260.568 154.948ZM235.55 101.167C241.266 101.287 247.001 99.2833 251.399 95.6307C252.059 95.0829 252.692 94.4961 253.216 93.8167C253.672 93.2235 254.459 92.4889 255.017 92.988C254.481 95.1853 254.398 97.4915 254.774 99.7216C255.059 101.413 253.553 102.822 252.198 103.873L248.095 107.056C247.071 107.851 246.019 108.66 244.785 109.054C243.55 109.448 242.075 109.349 241.121 108.471L234.003 101.925C233.466 101.431 232.914 100.917 232.619 100.249C232.38 99.7096 232.326 99.1082 232.287 98.519C232.165 96.6688 232.151 94.8114 232.247 92.9597C234.426 93.3704 236.664 93.3049 238.881 93.2378L244.599 93.0647C244.985 93.053 245.378 93.0422 245.749 93.1506C246.092 93.2509 246.398 93.4482 246.698 93.6428L250.132 95.8713C249.237 95.8065 248.55 96.4323 247.856 97.0641C247.55 97.3428 247.242 97.6226 246.915 97.8449C246.239 98.3046 245.433 98.5274 244.639 98.7233C243.375 99.0352 242.099 99.2979 240.815 99.5105C238.364 99.9163 235.837 100.137 233.409 99.6133C233.15 100.601 234.529 101.145 235.55 101.167ZM227.716 122.949C228.089 122.661 228.487 122.363 228.955 122.306C229.43 122.249 229.895 122.452 230.323 122.668C234.893 124.975 238.19 129.144 241.334 133.185C238.079 134.946 235.134 137.277 232.673 140.041L232.614 140.108C232.215 140.557 231.805 141.019 231.258 141.26C230.683 141.513 229.907 141.436 229.562 140.911C226.721 136.6 223.141 132.776 219.025 129.657L227.716 122.949ZM230.916 120.667C234.268 118.037 237.732 115.55 241.296 113.216C241.661 112.977 242.046 112.733 242.48 112.695C242.953 112.653 243.409 112.862 243.83 113.082C247.837 115.172 251.055 118.736 252.726 122.935C249.047 125.142 245.747 127.977 243.011 131.28C242.7 131.655 242.101 132.046 241.806 131.658C238.673 127.542 235.002 123.837 230.916 120.667ZM257.695 127.027C259.822 128.922 262.114 130.631 264.537 132.129C259.921 135.104 255.831 138.891 252.512 143.266C250.151 139.636 247.259 136.353 243.956 133.554C243.793 133.416 243.617 133.258 243.588 133.046C243.555 132.809 243.716 132.593 243.87 132.409C247.068 128.586 251.008 125.386 255.407 123.041C255.28 124.627 256.508 125.968 257.695 127.027ZM217.163 93.0091C218.044 92.9757 219.049 93.0034 219.632 93.6648C222.705 97.1506 226.909 99.6222 231.449 100.611C228.409 103.654 224.963 106.292 221.233 108.434C220.628 108.781 219.892 108.32 219.358 107.873C214.499 103.812 210.174 99.1138 206.529 93.936C210.056 93.4535 213.606 93.144 217.163 93.0091ZM232.433 143.476C234.46 139.843 237.779 136.949 241.654 135.435C242.951 134.929 244.31 135.947 245.296 136.931C247.432 139.059 249.388 141.369 251.136 143.825C251.233 143.962 251.334 144.109 251.343 144.276C251.365 144.647 250.965 144.878 250.635 145.048C248.676 146.057 247.361 147.848 246.036 149.652L246.036 149.652C245.014 151.044 243.986 152.444 242.653 153.498C242.52 153.603 242.375 153.708 242.206 153.724C241.923 153.751 241.687 153.524 241.494 153.315L232.433 143.476ZM255.732 103.265C258.842 106.619 262.472 109.49 266.453 111.744C262.418 114.32 258.721 117.425 255.489 120.956C255.023 121.464 254.22 120.877 253.794 120.335C251.01 116.788 247.678 113.671 243.953 111.13C248.202 109.5 251.972 106.641 254.686 102.987C254.933 102.654 255.45 102.961 255.732 103.265ZM242.445 111.229C237.727 112.977 233.475 115.965 230.232 119.811C227.746 116.071 224.226 113.16 220.758 110.306C224.932 108.187 228.81 105.485 232.244 102.304C235.412 105.532 238.825 108.518 242.445 111.229ZM266.461 94.9699C267.915 93.951 269.442 92.9021 271.201 92.6618C272.147 92.5325 273.108 92.6469 274.055 92.7671C271.793 98.8654 269.958 105.122 268.569 111.476C264.386 108.93 260.483 105.925 256.952 102.533C256.851 102.437 256.746 102.332 256.713 102.197C256.642 101.908 256.917 101.66 257.161 101.489L266.461 94.9699ZM218.583 128.565C217.868 127.538 216.901 126.688 215.792 126.109L215.717 126.071L215.717 126.071C215.472 125.945 215.222 125.815 215.057 125.597C214.916 125.411 214.854 125.178 214.794 124.952C214.286 123.016 213.773 121.008 214.113 119.035C214.563 116.425 216.42 114.31 218.247 112.392C218.472 112.156 218.717 111.91 219.035 111.839C219.374 111.763 219.72 111.903 220.034 112.051C223.801 113.828 226.598 117.148 228.982 120.564C224.972 122.402 221.388 125.16 218.583 128.565ZM256.567 123.24C256.791 121.533 257.957 120.108 259.185 118.902C261.754 116.379 264.814 114.357 268.143 112.984L265.301 131.016C261.865 129.109 258.858 126.432 256.567 123.24ZM217.607 129.344C217.678 129.641 217.427 129.908 217.198 130.111L216.094 131.088C216.137 131.355 216.522 131.393 216.765 131.273C216.838 131.237 216.909 131.193 216.979 131.149C217.143 131.046 217.307 130.944 217.496 130.946C217.672 130.947 217.832 131.04 217.982 131.131C222.346 133.79 226.047 137.527 228.663 141.916C228.828 142.192 228.993 142.488 228.989 142.81C228.984 143.272 228.636 143.651 228.311 143.979C227.576 144.721 226.374 145.489 225.612 144.775C223.143 142.457 220.385 140.447 217.424 138.805C216.782 138.449 216.612 137.62 216.509 136.893L215.151 127.269C215.948 127.746 216.689 128.318 217.351 128.97C217.461 129.078 217.572 129.195 217.607 129.344ZM209.271 99.899C212.452 103.272 215.745 106.54 219.142 109.695C216.851 111.886 214.487 114.184 213.386 117.156L208.718 99.6987C208.92 99.6744 209.132 99.751 209.271 99.899ZM255.888 98.3861C255.739 96.5077 255.625 94.4767 256.639 92.8889L267.656 93.1665L256.117 101.257L255.888 98.3861ZM231.142 99.6951L228.978 98.7407L229.03 98.1553C228.705 98.4464 228.331 98.1794 227.932 97.8955C227.577 97.6423 227.202 97.3755 226.827 97.4791C226.738 97.5038 226.637 97.5427 226.535 97.582L226.535 97.582C226.216 97.7054 225.885 97.8332 225.847 97.5444C225.832 97.4273 225.913 97.3219 225.989 97.2318L228.726 93.9954C229.048 93.6145 229.397 93.2154 229.874 93.0698C230.351 92.9241 230.979 93.1639 231.054 93.6571C231.355 95.6535 231.385 97.6907 231.142 99.6951ZM227.052 93.2712C227.243 93.0568 227.642 93.0953 227.789 93.3423C227.286 94.6314 226.382 95.7609 225.235 96.535C224.906 96.757 224.32 96.8598 224.233 96.4726C224.129 96.0117 223.591 95.9148 223.092 95.825C222.986 95.806 222.882 95.7873 222.785 95.7655C221.688 95.5211 220.917 94.2945 221.172 93.2006C222.333 92.6335 223.679 92.6361 224.971 92.6504C225.718 92.6586 226.56 92.7085 227.052 93.2712ZM252.265 93.3978C251.857 93.6597 251.57 94.1044 251.501 94.5847C250.131 94.5973 248.766 94.0053 247.839 92.9965C248.8 92.8108 249.828 92.9943 250.665 93.5009C251.034 93.0224 251.837 92.9706 252.265 93.3978ZM264.066 59.9492C262.89 57.892 256.37 54.7463 251.635 53.7784C241.65 51.7373 231.129 52.3789 221.465 55.6182C229.436 51.8388 239.029 51.3428 248.135 52.2461C256.295 53.0555 267.525 60.0603 264.758 60.683C262.44 61.2045 252.917 60.683 247.839 59.4584C250.549 58.6617 256.19 59.3169 260.055 59.7658C262.503 60.0501 264.238 60.2517 264.066 59.9492Z" fill="#00160A"/>
<path fill-rule="evenodd" clip-rule="evenodd" d="M122.125 274.324C122.436 274.984 122.566 275.728 122.499 276.454C121.785 275.923 121.129 275.314 120.547 274.642C119.98 275.115 119.283 275.432 118.553 275.548C118.48 274.798 118.927 274.025 119.615 273.716C118.735 273.419 117.659 272.798 117.865 271.893C118.713 271.902 119.56 272.054 120.358 272.341C120.35 271.553 120.752 270.773 121.398 270.323C121.584 271.157 121.77 271.992 121.956 272.827C122.444 273.036 122.957 273.189 123.48 273.28C123.197 273.793 122.694 274.181 122.125 274.324L122.125 274.324Z" fill="#FF611D"/>
<path fill-rule="evenodd" clip-rule="evenodd" d="M145.195 230.503C144.408 230.288 143.697 229.805 143.207 229.153C142.687 229.544 142.041 229.764 141.39 229.771C141.58 229.268 141.872 228.803 142.243 228.414C141.671 227.905 141.144 227.344 140.671 226.741C141.462 226.165 142.796 227.507 143.44 226.77C143.638 226.542 143.646 226.211 143.751 225.927C143.856 225.644 144.19 225.38 144.439 225.551C144.74 226.086 144.866 226.719 144.791 227.329C145.23 227.468 145.669 227.607 146.108 227.747C146.092 228.258 145.507 228.665 145.023 228.501C145.08 229.169 145.137 229.836 145.195 230.503H145.195Z" fill="#FF611D"/>
<path fill-rule="evenodd" clip-rule="evenodd" d="M223.74 147.071C224.179 146.686 224.86 146.987 225.342 147.318C228.584 149.546 231.065 152.691 233.495 155.785C233.733 156.089 233.986 156.442 233.928 156.824C233.87 157.206 233.291 157.458 233.092 157.127C230.987 153.635 228.174 150.571 224.873 148.178C224.441 147.865 223.985 147.544 223.74 147.071L223.74 147.071Z" fill="#00160A"/>
<path fill-rule="evenodd" clip-rule="evenodd" d="M142.78 68.5083C142.884 68.9694 142.912 69.4477 142.862 69.9179C143.251 69.9773 143.621 70.1611 143.903 70.4359C143.803 69.3974 143.538 68.375 143.12 67.4191C142.891 66.8942 141.998 67.0957 141.793 67.6306C141.588 68.1655 141.843 68.7606 142.134 69.2538C142.149 68.8994 142.431 68.5738 142.78 68.5083Z" fill="#FF611D"/>
<path fill-rule="evenodd" clip-rule="evenodd" d="M230.798 155.892C227.851 154.22 224.772 152.777 221.601 151.581C220.903 151.318 220.036 151.642 219.681 152.297C219.239 151.976 219.5 151.2 220.003 150.989C220.506 150.777 221.081 150.943 221.598 151.118C224.357 152.05 227.045 153.192 229.632 154.53C230.196 154.821 230.836 155.259 230.798 155.892H230.798Z" fill="#00160A"/>
<path fill-rule="evenodd" clip-rule="evenodd" d="M217.804 146.551C218.745 149.163 219.098 151.986 218.83 154.75C218.801 155.053 218.676 155.441 218.371 155.442C218.019 155.444 217.934 154.955 217.958 154.603C218.157 151.705 217.776 148.769 216.843 146.018C217.092 145.633 217.648 146.119 217.804 146.551H217.804Z" fill="#00160A"/>
<path fill-rule="evenodd" clip-rule="evenodd" d="M232.368 152.888C230.85 151.112 229.333 149.335 227.815 147.559C227.633 147.346 227.445 147.038 227.609 146.812C229.608 148.463 231.243 150.552 232.368 152.888Z" fill="#00160A"/>
<path fill-rule="evenodd" clip-rule="evenodd" d="M62.4493 154.809C62.2045 154.66 62.069 154.351 62.126 154.07C62.2852 153.905 62.5859 153.91 62.7401 154.08C62.8875 154.353 62.7487 154.741 62.461 154.858L62.4493 154.809Z" fill="#00160A"/>
<path fill-rule="evenodd" clip-rule="evenodd" d="M224.474 14.8383C224.294 14.8657 224.114 14.893 223.933 14.9203C223.835 14.7564 223.797 14.557 223.828 14.3683C223.984 14.2669 224.18 14.2288 224.362 14.2645C224.464 14.4186 224.5 14.615 224.46 14.7954L224.474 14.8383Z" fill="#00160A"/>
<path fill-rule="evenodd" clip-rule="evenodd" d="M166.05 123.4C165.529 125.658 162.795 127.097 160.626 126.281C160.338 126.173 160.208 125.845 160.114 125.551C158.872 121.698 158.051 117.709 157.672 113.678C157.604 112.948 157.551 112.198 157.76 111.495C158.214 109.965 160.028 108.992 161.553 109.46C162.593 109.778 163.394 110.643 163.883 111.614C164.372 112.585 164.591 113.666 164.804 114.732C165.156 116.491 165.508 118.251 165.86 120.011C166.084 121.129 166.307 122.289 166.05 123.4ZM161.165 125.527C161.505 125.822 162.003 125.864 162.446 125.785C164.346 125.443 165.389 123.256 165.327 121.326C165.265 119.397 164.435 117.584 164.014 115.7C163.72 114.388 163.609 112.992 162.908 111.845C162.207 110.698 160.631 109.923 159.494 110.639C158.345 111.362 158.357 113.015 158.54 114.359C159.004 117.776 159.705 121.161 160.634 124.481C160.741 124.864 160.865 125.267 161.165 125.527Z" fill="#FF611D"/>
<path fill-rule="evenodd" clip-rule="evenodd" d="M163.737 123.597C163.336 123.855 162.773 123.683 162.446 123.336C162.118 122.989 161.972 122.514 161.843 122.055C161.075 119.335 160.542 116.548 160.253 113.736C160.214 113.351 160.181 112.946 160.331 112.589C160.481 112.231 160.875 111.945 161.248 112.051C161.612 112.154 161.79 112.555 161.916 112.911C162.963 115.856 163.707 118.908 164.134 122.003C164.213 122.578 164.225 123.284 163.737 123.597ZM160.874 112.562C160.948 115.945 161.579 119.315 162.736 122.495C162.868 122.859 163.237 123.298 163.546 123.066C163.325 119.438 162.414 115.854 160.874 112.562Z" fill="#FF611D"/>
<path fill-rule="evenodd" clip-rule="evenodd" d="M240.014 69.0035L238.678 72.5523C238.377 72.489 238.023 72.4118 237.624 72.3248L237.624 72.3247C234.017 71.5376 226.733 69.9478 221.776 70.6459C216.983 71.3207 214.827 74.574 214.416 77.1661C213.831 80.8476 214.351 84.6974 215.891 88.0919C215.313 88.1744 215.957 88.2364 217.45 88.2821C217.636 88.325 217.838 88.3369 218.023 88.3375L220.882 88.3464C226.691 88.4148 236.312 88.3982 244.187 88.3563C244.211 88.393 244.236 88.4295 244.261 88.4659C247.221 88.5777 250.185 88.5564 253.143 88.4022C253.585 88.3791 254.033 88.3518 254.469 88.2766C256.765 88.2497 257.786 88.2246 256.753 88.2097C259.32 86.0709 256.863 81.9384 254.199 79.9213C249.979 76.7254 245.151 74.3346 240.051 72.9151L241.24 68.5535C244.85 68.1094 248.367 66.9234 251.509 65.0908C252.432 67.1961 254.196 64.1308 247.062 60.5279C247.482 62.243 248.703 63.7439 250.297 64.5044C247.778 66.2122 244.759 67.1736 241.716 67.2374C240.997 64.6175 242.551 61.5774 245.096 60.6254C240.776 60.6254 231.421 63.2117 226.58 65.779C223.971 67.1626 223.711 69.4675 224.02 69.8363C226.904 64.033 236.542 63.5311 240.014 69.0035ZM254.469 88.2766C254.808 88.2181 255.141 88.1305 255.457 87.9934C256.18 87.6802 256.816 87.0547 256.925 86.2747C256.951 86.0938 256.948 85.909 256.945 85.7248C256.94 85.4536 256.936 85.1836 257.022 84.9289C257.049 84.8476 257.085 84.7628 257.121 84.6769C257.251 84.3664 257.387 84.0425 257.166 83.8244C252.585 79.2965 246.841 75.9561 240.64 74.2149C240.288 74.1162 239.873 74.0343 239.589 74.2644C239.43 74.3939 239.351 74.5956 239.279 74.7879L237.643 79.1383C239.494 79.7724 240.781 81.4634 241.666 83.2082C241.984 83.834 242.266 84.479 242.548 85.1236L242.548 85.1237L242.548 85.1237L242.548 85.1238L242.548 85.1238C243.034 86.2361 243.52 87.3472 244.187 88.3563C248.397 88.3339 252.107 88.3043 254.469 88.2766ZM220.882 88.3464L230.784 88.3773C231.6 88.3798 232.144 87.5633 232.532 86.8451L236.362 79.7563C234.16 80.1804 232.056 80.9604 229.95 81.7412C228.666 82.2172 227.381 82.6935 226.073 83.0896C222.619 84.1354 218.745 84.5824 215.505 82.995C215.554 84.5084 216.158 85.9978 217.178 87.1173C216.902 87.2234 216.748 87.5712 216.854 87.8468C216.95 88.0947 217.183 88.2204 217.45 88.2821C218.326 88.3089 219.495 88.3301 220.882 88.3464ZM216.599 82.2631C215.256 81.4542 214.398 79.6768 215.064 78.2579C217.82 72.3809 219.898 71.3185 226.366 71.8705C230.065 72.1863 233.749 72.6774 237.402 73.3416C237.886 73.4297 238.521 73.8157 238.269 74.2392C238.442 76.2878 237.068 78.3662 235.115 79.009L229.482 80.8635C226.761 81.7593 224.014 82.6606 221.165 82.956C219.606 83.1175 217.941 83.0719 216.599 82.2631ZM232.738 88.3308C235.144 88.0991 237.568 88.1766 239.985 88.2543L242.692 88.3414C241.915 85.8369 240.715 83.4642 239.159 81.3538C238.862 80.9506 238.529 80.5396 238.063 80.3565C237.597 80.1734 236.966 80.3158 236.776 80.7792C235.691 83.4249 234.336 85.9595 232.738 88.3308ZM240.093 67.2157C239.866 67.2851 239.626 67.1798 239.415 67.0734C237.561 66.1425 235.846 64.9352 234.344 63.5038C235.92 62.7325 237.679 62.3395 239.433 62.367C239.675 62.3708 239.892 62.2514 240.108 62.1323C240.182 62.0914 240.256 62.0506 240.331 62.0149C240.625 61.8748 241.04 61.84 241.217 62.1124C241.33 62.285 241.298 62.5107 241.261 62.7135L240.602 66.3664C240.54 66.7091 240.426 67.1138 240.093 67.2157Z" fill="white"/>
</svg>
