<svg width="333" height="333" viewBox="0 0 333 333" fill="none" xmlns="http://www.w3.org/2000/svg">
<path fill-rule="evenodd" clip-rule="evenodd" d="M166.903 62.6249C245.073 75.7562 299.585 120.372 299.585 191.607C299.585 276.99 231.863 188.275 185.166 238.056C138.47 287.837 38.9808 289.248 34.2218 191.607C29.7667 100.203 88.7341 49.4937 166.903 62.6249Z" fill="#CCDEEC"/>
<path fill-rule="evenodd" clip-rule="evenodd" d="M192.313 108.847C191.443 109.266 190.17 109.397 189.716 108.544C188.292 105.868 183.933 105.5 182.081 107.9C183.858 107.289 185.93 106.705 187.52 107.709C187.962 107.989 188.345 108.38 188.723 108.768C189.353 109.413 189.972 110.047 190.839 110.132C191.484 110.196 192.099 109.924 192.71 109.654C193.366 109.364 194.018 109.075 194.702 109.204C195.461 109.347 195.993 109.951 196.526 110.555C197.056 111.157 197.587 111.759 198.343 111.905C198.962 112.024 199.584 111.803 200.2 111.583C200.888 111.337 201.57 111.093 202.233 111.332C203.024 111.617 203.385 112.432 203.747 113.249C204.107 114.06 204.468 114.873 205.251 115.165C205.715 115.338 206.217 115.275 206.712 115.179L207.203 115.078C208.36 114.848 209.61 114.827 210.669 115.348C211.578 115.796 212.295 116.723 212.354 117.712C212.377 117.498 212.398 117.285 212.417 117.073L212.6 115.868C211.55 114.637 209.901 113.939 208.285 114.047C208.008 114.065 207.731 114.106 207.455 114.146C206.923 114.224 206.392 114.301 205.863 114.221C205.061 114.099 204.245 113.416 204.381 112.616L204.393 112.53C204.54 111.19 202.745 110.422 201.365 110.534C201.072 110.558 200.771 110.597 200.469 110.637C199.319 110.786 198.142 110.939 197.239 110.278C196.89 110.022 196.62 109.664 196.353 109.31C195.979 108.814 195.61 108.325 195.037 108.132C194.403 107.919 193.758 108.143 193.133 108.439L192.925 108.541L192.313 108.847ZM182.306 118.164C182.905 118.968 184.138 118.517 185.089 118.17L185.139 118.152C187.691 117.221 190.766 117.947 192.631 119.922C193.653 121.005 195.166 120.702 196.733 120.389C198.041 120.127 199.387 119.858 200.516 120.383C201.043 120.628 201.533 121.043 202.013 121.45C202.892 122.196 203.738 122.913 204.724 122.507C206.593 121.737 208.887 122.147 210.388 123.495L210.383 123.92L210.376 124.857C208.885 123.362 206.469 122.878 204.517 123.683C203.531 124.089 202.685 123.371 201.806 122.626C201.326 122.219 200.836 121.804 200.308 121.559C199.18 121.034 197.834 121.303 196.525 121.565C194.959 121.878 193.446 122.181 192.423 121.098C190.596 119.163 187.606 118.426 185.085 119.274L184.582 119.454C183.685 119.772 182.636 120.061 182.099 119.34C180.403 117.064 176.998 116.266 174.467 117.552L174.794 116.317L174.944 116.248C177.442 115.148 180.67 115.968 182.306 118.164ZM176.495 128.314C175.558 128.698 174.343 129.195 173.714 128.415C172.568 126.994 169.949 126.89 165.857 128.104C166.17 128.316 166.977 128.295 167.972 128.269C169.846 128.221 172.388 128.155 173.552 129.598C174.117 130.298 175.153 129.969 176.038 129.617L176.534 129.417C179.02 128.474 182.036 129.095 183.936 130.958C185 132.001 186.5 131.64 188.053 131.267C189.351 130.956 190.686 130.635 191.833 131.116C192.37 131.341 192.875 131.737 193.37 132.125C194.277 132.836 195.151 133.521 196.12 133.077L196.255 133.018C197.353 132.554 199.463 133.336 201.376 134.044C202.767 134.559 204.054 135.035 204.771 134.966C200.337 132.357 197.507 131.333 196.282 131.894L196.185 131.935C195.254 132.292 194.409 131.629 193.532 130.942C193.037 130.554 192.532 130.158 191.995 129.933C190.848 129.452 189.513 129.772 188.215 130.084C186.662 130.457 185.162 130.818 184.098 129.775C182.159 127.874 179.058 127.266 176.544 128.294L176.495 128.314ZM185.187 171.38C186.312 172.102 187.769 173.037 188.809 172.524C190.647 171.618 193.958 172.422 198.744 174.937L199.204 175.181C198.735 175.268 197.682 174.944 196.384 174.545C193.938 173.793 190.621 172.773 188.696 173.722C187.761 174.183 186.492 173.477 185.428 172.805L184.833 172.427C182.024 170.703 178.23 170.121 175.29 170.934C174.347 171.327 173.034 170.867 171.592 170.362C170.611 170.019 169.569 169.655 168.544 169.523C167.279 169.361 166.628 169.458 166.056 169.544C165.482 169.63 164.989 169.703 164.037 169.49C163.3 169.326 162.124 168.811 160.507 167.947C157.641 166.571 152.562 166.737 149.889 167.694L149.745 167.744C146.887 168.688 146.911 167.653 149.784 166.576L150.002 166.496L150.174 166.436C153.228 165.419 158.884 165.531 161.844 167.429L161.902 167.467C163.027 168.189 164.484 169.124 165.525 168.61L165.601 168.576C166.329 168.277 168.032 168.282 168.56 168.317L168.657 168.325C170.434 168.522 170.821 168.683 171.243 168.991L171.546 169.22L171.718 169.286C172.361 169.537 173.042 169.833 173.762 170.174C174.06 170.147 174.403 170.069 174.808 169.924L174.979 169.865C178.033 168.848 182.169 169.444 185.129 171.343L185.187 171.38ZM171.956 137.268C172.621 138.048 173.906 137.551 174.898 137.167L174.95 137.147C177.61 136.119 180.89 136.727 182.942 138.629C184.067 139.671 185.654 139.311 187.297 138.938C188.67 138.626 190.082 138.305 191.296 138.786C191.864 139.011 192.398 139.407 192.922 139.796C193.85 140.483 194.743 141.145 195.728 140.788L195.831 140.747C197.127 140.186 200.121 141.21 204.812 143.819C204.053 143.889 202.692 143.412 201.22 142.897L201.22 142.897C199.197 142.189 196.964 141.408 195.802 141.871L195.66 141.93C194.634 142.374 193.71 141.69 192.751 140.979C192.227 140.59 191.692 140.194 191.125 139.969C189.91 139.488 188.498 139.809 187.126 140.121C185.482 140.494 183.895 140.854 182.77 139.812C180.759 137.948 177.569 137.327 174.939 138.271L174.414 138.47C173.478 138.823 172.382 139.152 171.784 138.451C170.553 137.008 167.864 137.074 165.881 137.123C164.828 137.149 163.975 137.17 163.644 136.957C167.972 135.743 170.743 135.847 171.956 137.268ZM171.28 146.906C170.139 147.29 168.661 147.787 167.895 147.007C166.5 145.586 163.312 145.482 158.332 146.696C158.712 146.908 159.695 146.887 160.906 146.861H160.906C163.187 146.813 166.281 146.747 167.698 148.19C168.385 148.89 169.647 148.561 170.724 148.209L171.327 148.009C174.353 147.066 178.024 147.687 180.338 149.55C181.632 150.593 183.458 150.232 185.349 149.859C186.928 149.548 188.553 149.227 189.95 149.708C190.603 149.933 191.218 150.329 191.82 150.717C192.925 151.428 193.987 152.113 195.167 151.669L195.331 151.61C196.668 151.146 199.237 151.928 201.565 152.636C203.258 153.151 204.825 153.627 205.697 153.558C200.3 150.949 196.856 149.925 195.364 150.486L195.246 150.527C194.113 150.884 193.085 150.221 192.018 149.534C191.415 149.146 190.8 148.75 190.147 148.525C188.75 148.044 187.125 148.364 185.546 148.676C183.655 149.049 181.829 149.41 180.535 148.367C178.174 146.466 174.4 145.858 171.34 146.886L171.28 146.906ZM162.417 154.532C163.276 155.312 164.934 154.815 166.214 154.431L166.28 154.411C169.712 153.383 173.945 153.991 176.592 155.893C178.044 156.935 180.092 156.575 182.212 156.202C183.984 155.89 185.805 155.569 187.372 156.05C188.105 156.275 188.794 156.671 189.47 157.06L189.47 157.06C190.667 157.747 191.82 158.409 193.091 158.052L193.224 158.011C194.897 157.451 198.759 158.474 204.812 161.083C203.833 161.153 202.077 160.676 200.177 160.161C197.566 159.453 194.686 158.672 193.186 159.135L193.003 159.194C191.679 159.638 190.487 158.954 189.249 158.243C188.573 157.854 187.883 157.458 187.151 157.233C185.584 156.752 183.762 157.073 181.991 157.385C179.871 157.758 177.823 158.118 176.371 157.076C173.777 155.212 169.66 154.591 166.266 155.535L165.589 155.734C164.382 156.087 162.966 156.416 162.195 155.715C160.607 154.272 157.137 154.338 154.578 154.387H154.578C153.22 154.413 152.119 154.434 151.692 154.221C157.277 153.007 160.852 153.111 162.417 154.532ZM162.23 161.071C160.95 161.455 159.292 161.952 158.433 161.172C156.868 159.751 153.293 159.647 147.708 160.861C148.135 161.074 149.236 161.053 150.594 161.027H150.594C153.153 160.978 156.623 160.912 158.211 162.355C158.982 163.056 160.398 162.727 161.605 162.374L162.282 162.175C165.457 161.292 169.264 161.778 171.866 163.37C172.665 164.008 174.053 163.928 175.579 163.84C176.617 163.78 177.718 163.717 178.74 163.873C180 164.066 180.6 164.339 181.126 164.579C181.654 164.82 182.108 165.026 183.082 165.084C184.211 165.151 186.9 164.573 186.9 164.573C190.035 164.041 194.871 165.601 197.177 167.257L197.302 167.345C199.849 169.082 200.062 167.988 197.398 166.074L197.249 165.97C194.594 164.15 189.126 162.698 185.758 163.707L185.691 163.727L185.691 163.727C184.411 164.111 182.753 164.608 181.894 163.828C181.295 163.284 179.339 162.755 178.961 162.69C176.968 162.35 176.697 162.457 176.092 162.695C176.068 162.704 176.044 162.714 176.018 162.724C175.992 162.734 175.966 162.744 175.938 162.755L175.754 162.771C175.067 162.835 174.331 162.931 173.544 163.061C173.265 162.953 172.958 162.784 172.608 162.533L172.46 162.428C169.804 160.609 165.665 160.042 162.296 161.051L162.23 161.071Z" fill="#FF611D"/>
<path fill-rule="evenodd" clip-rule="evenodd" d="M189.124 263.635L188.115 263.3C188.032 263.272 188.022 263.159 188.098 263.117L189.065 262.592V261.376C189.065 261.29 189.167 261.244 189.231 261.3L190.031 262.003L191.349 261.309C191.437 261.263 191.531 261.359 191.483 261.446L190.733 262.814L192.181 264.327C192.252 264.401 192.179 264.521 192.081 264.493L190.088 263.918L189.311 265.287C189.26 265.376 189.124 265.34 189.124 265.237V264.625V263.635Z" fill="#FF611D"/>
<path fill-rule="evenodd" clip-rule="evenodd" d="M162.209 192.239C161.747 192.718 161.291 193.203 160.835 193.687C159.972 194.604 159.109 195.521 158.21 196.4C156.526 198.046 154.827 199.683 153.04 201.214C150.825 203.113 148.554 204.954 146.232 206.721C143.604 208.72 140.913 210.639 138.21 212.536C138.066 212.637 137.923 212.739 137.78 212.84C136.401 213.818 135.023 214.795 133.252 215.097C132.746 215.183 132.273 215.437 131.797 215.692C131.418 215.896 131.037 216.1 130.636 216.222C127.873 217.059 125.096 217.857 122.302 218.58C120.586 219.025 118.835 219.341 117.087 219.646C115.999 219.835 109.769 220.826 105.625 221.427C101.48 222.029 87.7732 222.029 84.3511 221.957C82.4308 221.917 80.5109 221.851 78.5915 221.777L78.4925 221.774C78.1013 221.76 77.6856 221.745 77.3458 221.591C75.4607 220.737 74.002 221.667 72.5239 222.61L72.4175 222.678C70.4769 223.914 69.2892 225.773 68.1156 227.678C67.4921 228.69 66.8316 229.679 66.171 230.668L66.1708 230.668C65.4598 231.733 64.7489 232.797 64.0843 233.89C63.2045 235.337 62.4199 236.843 61.636 238.347L61.6344 238.35C61.494 238.619 61.3536 238.889 61.2128 239.158C60.1766 241.136 58.6221 242.287 56.3918 242.712C55.2833 242.924 54.3338 242.595 53.3865 242.266L53.3864 242.266L53.3863 242.266C53.0353 242.145 52.6846 242.023 52.3263 241.929C51.6248 241.746 51.0594 239.85 51.3095 239.1C52.0398 236.911 52.7714 234.722 53.5031 232.533L53.5032 232.533L53.5036 232.531C55.0326 227.957 56.5615 223.383 58.0771 218.805C59.1357 215.607 60.1692 212.402 61.2027 209.196L61.2028 209.195C61.4947 208.29 61.7866 207.385 62.079 206.479C62.2183 206.048 62.3506 205.615 62.4829 205.181C62.7022 204.463 62.9215 203.744 63.1725 203.037C63.2547 202.805 63.595 202.519 63.8264 202.51C65.4986 202.443 67.1041 202.853 68.6294 203.479C71.5133 204.662 73.7324 206.658 75.3613 209.315C75.7932 210.02 76.5471 210.273 77.498 210.106C77.9564 210.025 78.4191 209.964 78.8816 209.902L78.8823 209.902C79.589 209.809 80.2953 209.716 80.9853 209.552C82.5201 209.188 84.0736 209.175 85.6267 209.163H85.6271C86.6269 209.155 87.6266 209.147 88.6208 209.045C89.3041 208.975 89.991 208.935 90.6777 208.895L90.6785 208.895C91.5958 208.842 92.5127 208.789 93.4202 208.664C95.0715 208.437 96.7148 208.15 98.358 207.864C99.1369 207.728 99.9158 207.593 100.696 207.463C101.327 207.358 101.959 207.259 102.592 207.16C103.811 206.97 105.03 206.779 106.241 206.547C107.79 206.249 109.326 205.887 110.862 205.524L111.418 205.393C113.043 205.011 114.665 204.616 116.287 204.221C116.967 204.056 117.648 203.89 118.328 203.725C118.401 203.708 118.474 203.689 118.546 203.67L118.648 203.644L118.613 203.626L118.569 203.603L118.537 203.586L118.537 203.586C118.456 203.545 118.376 203.503 118.299 203.456C118.063 203.31 117.82 203.172 117.577 203.035C117.022 202.721 116.467 202.406 115.995 201.996C114.933 201.076 115.296 199.545 116.646 199.137C117.675 198.827 118.735 198.515 119.797 198.443C121.228 198.347 122.532 197.872 123.837 197.396C124.362 197.205 124.886 197.014 125.419 196.847C126.678 196.454 127.432 195.713 128.064 194.58C128.369 194.035 128.814 193.572 129.262 193.107C129.577 192.78 129.894 192.451 130.162 192.092C131.553 190.233 132.906 188.343 134.223 186.43C134.503 186.024 134.728 185.579 134.953 185.134C135.125 184.794 135.297 184.454 135.494 184.13C135.956 183.37 136.426 182.602 136.997 181.925L137.072 181.836C138.381 180.283 139.694 178.726 141.118 177.282C141.895 176.495 142.751 175.788 143.608 175.081L143.609 175.08L143.609 175.08C144.014 174.746 144.419 174.412 144.815 174.069C145.015 173.896 145.207 173.709 145.375 173.505C145.664 173.155 145.783 172.865 145.347 172.451L145.22 172.331L145.068 172.188L145.008 172.131L145.005 172.129L145.005 172.129C143.867 171.059 142.718 169.979 142.096 168.498C142.063 168.42 142.031 168.343 141.998 168.266L141.899 168.032L141.899 168.032C141.4 166.853 140.896 165.663 140.611 164.429C140.229 162.767 140.383 161.076 140.878 159.402C141.572 157.059 143.023 155.284 144.988 154.01C146.2 153.224 147.476 152.536 148.752 151.849C149.698 151.339 150.643 150.83 151.564 150.279C152.276 149.854 152.884 149.236 153.478 148.632C153.535 148.574 153.592 148.517 153.648 148.46C156.321 145.755 158.184 142.482 160.04 139.221L160.04 139.221C160.237 138.875 160.435 138.528 160.633 138.183C162.427 135.053 164.036 131.813 165.641 128.579C166.103 127.647 166.499 126.683 166.895 125.719C167.245 124.866 167.596 124.014 167.992 123.184C168.305 122.527 168.69 121.907 169.076 121.285L169.076 121.285L169.076 121.285L169.076 121.285L169.077 121.285L169.077 121.285L169.077 121.285L169.077 121.285C169.36 120.828 169.644 120.372 169.899 119.901C170.173 119.395 170.423 118.875 170.673 118.355L170.673 118.355L170.673 118.355L170.673 118.355L170.673 118.355L170.673 118.355L170.674 118.355L170.674 118.354L170.674 118.354C171.053 117.567 171.431 116.78 171.892 116.044C172.221 115.518 172.698 115.084 173.175 114.651C173.375 114.469 173.574 114.288 173.762 114.1C173.997 113.866 174.236 113.636 174.475 113.406C174.724 113.166 174.973 112.926 175.218 112.682C175.649 112.251 176.075 111.813 176.488 111.365C177.282 110.503 178.081 109.645 178.879 108.787L178.879 108.787L178.88 108.785L178.882 108.784L178.882 108.784L178.883 108.783C180.851 106.668 182.818 104.553 184.721 102.381C186.952 99.8345 189.074 97.1887 191.158 94.5196C191.987 93.4584 192.734 92.3331 193.481 91.2078C193.814 90.7067 194.146 90.2056 194.486 89.7101C194.505 89.6821 194.521 89.6514 194.537 89.6208C194.56 89.5771 194.582 89.5337 194.614 89.4985C195.153 88.9051 195.686 88.3061 196.219 87.7071L196.219 87.7068L196.219 87.7065L196.22 87.7063L196.22 87.706L196.22 87.7057L196.22 87.7054L196.222 87.704C197.476 86.2949 198.73 84.8858 200.057 83.5492C202.025 81.5659 204.28 79.9214 206.728 78.5518C207.101 78.343 207.461 78.1059 207.82 77.8691C208.387 77.496 208.952 77.1237 209.566 76.8639C209.711 76.8026 209.857 76.7398 210.004 76.6767C211.178 76.1725 212.408 75.644 213.619 75.6192C216.175 75.5669 218.832 75.5958 220.977 77.4024C221.383 77.7446 221.492 77.664 221.53 77.2062C221.567 76.7692 221.641 76.3193 221.715 75.8691L221.715 75.8687L221.715 75.8683C221.888 74.8192 222.061 73.7692 221.76 72.8813C221.577 72.3445 221.514 71.8027 221.451 71.2656C221.379 70.6581 221.309 70.0566 221.068 69.475C220.263 67.5313 219.545 65.5511 218.828 63.572L218.828 63.5717L218.828 63.5715L218.828 63.5713L218.827 63.571L218.827 63.5708L218.827 63.5706L218.827 63.5703L218.821 63.5526L218.696 63.2079L218.503 62.6767C218.278 62.0589 218.096 61.4099 218.012 60.7599C217.953 60.2954 217.933 59.8258 217.913 59.3561C217.892 58.8741 217.872 58.3921 217.808 57.9157C217.583 56.2214 218.17 54.7326 218.76 53.2379C218.868 52.9651 218.975 52.692 219.078 52.4174C220.331 49.073 222.679 46.5438 225.214 44.1686C227.397 42.1236 231.012 41.4802 233.936 40.9759C235.016 40.7896 242.596 40.6114 246.6 40.5174L246.6 40.5173C247.906 40.4867 248.831 40.4649 249.025 40.4548C249.815 40.4135 250.35 40.0462 250.885 39.6519C251.988 38.838 252.272 37.5757 252.55 36.3335L252.551 36.3328L252.551 36.3321L252.551 36.3313L252.551 36.3306C252.578 36.2091 252.606 36.0878 252.634 35.9672C252.64 35.9376 252.647 35.9087 252.653 35.8805C252.725 35.5548 252.775 35.3265 253.265 35.3429C254.9 35.3978 255.741 36.4654 256.541 37.6852C257.443 39.0589 258.173 40.4912 258.423 42.1285C258.729 44.1221 258.565 45.974 257.147 47.6158C255.994 48.951 254.652 49.9715 253.136 50.8279C252.934 50.9416 252.807 51.5436 252.919 51.8007C254.061 54.436 254.146 57.2142 254.035 60.0033C254.008 60.6803 253.898 61.3537 253.788 62.0273C253.684 62.6655 253.58 63.3039 253.547 63.9456C253.45 65.786 253.826 67.5561 254.564 69.2677C255.065 70.4289 254.713 71.5285 253.873 72.4411C253.73 72.5975 253.55 72.7283 253.372 72.8581C253.122 73.0406 252.875 73.2209 252.734 73.4668C252.415 74.0231 252.193 74.6925 252.141 75.3305C252.101 75.8188 252.154 76.3135 252.206 76.8093C252.239 77.1174 252.272 77.4258 252.282 77.7335C252.323 78.9179 251.873 79.9309 251.266 80.942C250.166 82.7716 248.715 84.1176 246.609 84.5583C244.805 84.9359 242.931 84.9584 241.189 84.3645C239.21 83.6903 237.282 82.8273 235.42 81.8728C234.892 81.6017 234.473 81.1147 234.055 80.628L234.055 80.6278L234.055 80.6275L234.055 80.6272L234.054 80.627C233.868 80.4096 233.681 80.1923 233.484 79.9943C233.193 79.7007 233.046 79.6155 232.658 80.0257C231.275 81.4912 230.269 83.1559 229.456 84.9939C229.007 86.0082 229.298 86.842 229.608 87.7302L229.644 87.8346L229.682 87.9432L229.733 88.088C230.162 89.3176 230.59 90.5411 230.557 91.8865C230.54 92.552 230.553 93.2193 230.566 93.8864V93.887V93.8876V93.8882V93.8887V93.8893V93.8899V93.8905V93.891C230.586 94.947 230.607 96.0021 230.511 97.0474C230.409 98.1657 230.157 99.2707 229.906 100.375L229.906 100.376L229.906 100.376L229.906 100.376L229.906 100.376L229.906 100.377L229.906 100.377L229.906 100.377C229.805 100.821 229.704 101.265 229.613 101.709C229.516 102.182 229.421 102.655 229.327 103.128L229.327 103.128L229.326 103.128L229.326 103.128L229.326 103.128L229.326 103.128L229.326 103.128L229.326 103.129C229.039 104.56 228.752 105.991 228.409 107.409C228.251 108.065 228.033 108.706 227.814 109.347L227.814 109.347L227.814 109.347L227.814 109.348L227.814 109.348L227.814 109.348L227.814 109.348L227.814 109.348L227.814 109.349C227.635 109.874 227.457 110.399 227.311 110.932C227.141 111.551 226.969 112.169 226.798 112.787L226.798 112.788C226.13 115.191 225.463 117.595 224.922 120.027C224.459 122.11 224.193 124.253 224.037 126.383C223.94 127.715 223.955 129.055 223.969 130.396C223.977 131.137 223.986 131.878 223.975 132.618C223.967 133.177 223.938 133.736 223.908 134.295L223.908 134.296C223.872 135.007 223.835 135.718 223.841 136.429L223.842 136.598L223.845 136.981L223.847 137.28C223.859 139.157 223.872 141.038 224.037 142.903C224.201 144.764 224.554 146.618 224.962 148.444C225.297 149.944 226.326 151.104 227.346 152.191C227.878 152.757 228.467 153.267 229.056 153.779L229.056 153.779L229.057 153.779L229.057 153.78L229.057 153.78L229.058 153.78L229.058 153.78L229.058 153.781C229.47 154.137 229.881 154.494 230.274 154.87C230.543 155.128 230.785 155.416 231.027 155.703L231.027 155.703L231.027 155.703L231.027 155.703L231.027 155.703L231.027 155.704L231.027 155.704L231.027 155.704C231.328 156.061 231.629 156.418 231.98 156.716C233.125 157.69 234.289 158.641 235.453 159.592L235.454 159.592L235.454 159.593L235.455 159.593L235.455 159.594L235.456 159.594L235.456 159.594L235.457 159.595C236.341 160.317 237.225 161.039 238.101 161.771C238.886 162.428 239.66 163.099 240.434 163.769L240.435 163.77C241.217 164.448 241.998 165.125 242.792 165.789C243.877 166.695 244.978 167.589 246.128 168.411C246.669 168.798 247.236 169.149 247.802 169.5L247.803 169.5C248.389 169.863 248.975 170.226 249.533 170.629C250.203 171.112 250.722 170.84 251.239 170.569L251.239 170.569C251.417 170.476 251.594 170.383 251.777 170.321C253.266 169.818 254.444 170.008 255.003 171.44C255.115 171.727 255.285 171.985 255.457 172.244L255.457 172.244C255.77 172.716 256.086 173.194 256.059 173.86C256.05 174.069 256.5 174.318 256.886 174.531L256.952 174.567C256.981 174.583 257.01 174.6 257.039 174.615L257.086 174.642C257.106 174.654 257.125 174.665 257.144 174.676C258.278 175.345 259.426 175.992 260.575 176.636C260.82 176.774 261.073 176.899 261.327 177.025L261.327 177.025C261.814 177.266 262.301 177.507 262.725 177.832C263.156 178.163 263.548 178.546 263.939 178.929L263.939 178.929C264.332 179.313 264.725 179.696 265.157 180.028C266.048 180.71 266.553 181.649 267.055 182.582C267.24 182.925 267.424 183.267 267.626 183.595C268.185 184.501 268.508 185.613 268.694 186.676C268.945 188.109 269.047 189.583 269.041 191.038C269.038 191.646 268.669 192.299 268.331 192.848C267.966 193.438 267.419 193.522 266.892 192.952C266.848 192.905 266.788 192.874 266.727 192.844C266.712 192.836 266.697 192.828 266.682 192.82C266.669 192.814 266.657 192.807 266.644 192.799C266.64 192.835 266.637 192.871 266.633 192.906V192.906V192.906C266.625 192.984 266.616 193.061 266.606 193.138C266.572 193.382 266.545 193.629 266.518 193.875C266.452 194.482 266.386 195.09 266.216 195.666C266.101 196.052 265.606 196.562 265.262 196.579C264.998 196.591 264.72 196.345 264.445 196.102C264.335 196.004 264.225 195.907 264.116 195.827C264.01 195.749 263.92 195.648 263.832 195.548L263.803 195.516C263.748 195.453 263.699 195.385 263.649 195.318L263.633 195.295L263.606 195.259L263.583 195.228C263.567 195.263 263.55 195.298 263.534 195.333L263.534 195.334C263.498 195.411 263.462 195.487 263.424 195.563C263.391 195.627 263.361 195.694 263.332 195.762L263.321 195.79L263.288 195.869C263.19 196.103 263.093 196.338 262.925 196.498C262.276 197.116 261.403 196.875 261.135 196.007C260.996 195.556 260.881 195.097 260.765 194.638C260.605 194.003 260.445 193.368 260.223 192.755C260.131 192.502 260.056 192.244 259.98 191.986C259.759 191.231 259.537 190.475 258.916 189.84C258.468 189.382 258.194 188.75 257.922 188.122C257.816 187.877 257.71 187.633 257.594 187.399C256.897 185.995 255.745 185.077 254.412 184.336C254.05 184.134 253.689 183.913 253.375 183.645C252.676 183.052 252.193 183.375 251.768 183.979C251.066 184.977 249.902 185.345 248.82 184.77C247.161 183.889 245.807 182.732 245.356 180.75C245.273 180.384 244.732 180.06 244.335 179.836C243.141 179.163 241.941 178.503 240.74 177.842L240.738 177.841C238.746 176.745 236.753 175.649 234.794 174.496C232.35 173.058 229.97 171.51 227.59 169.964L227.59 169.964L227.59 169.964L227.59 169.964L227.59 169.963L227.59 169.963L227.59 169.963L227.59 169.963L226.872 169.497C223.126 167.064 219.394 164.61 215.661 162.156L215.648 162.147L215.642 162.143C214.912 161.663 214.182 161.183 213.452 160.703C212.631 160.164 211.817 159.616 211.002 159.069L210.999 159.067C210.432 158.685 209.865 158.304 209.296 157.926C209.068 157.774 208.828 157.638 208.58 157.521C207.843 157.173 207.627 157.298 207.568 158.089C207.566 158.107 207.567 158.126 207.567 158.144C207.567 158.155 207.567 158.166 207.567 158.177L207.521 161.478C207.478 164.543 207.435 167.608 207.389 170.674C207.375 171.65 207.886 172.398 208.39 173.135C208.492 173.284 208.594 173.433 208.691 173.584C210.468 176.336 212.281 179.065 214.113 181.78C214.616 182.526 215.137 183.259 215.657 183.992C216.443 185.098 217.229 186.204 217.951 187.351C218.318 187.932 218.537 188.607 218.755 189.281C218.851 189.577 218.947 189.873 219.056 190.161C219.105 190.293 219.158 190.424 219.21 190.555L219.21 190.555C219.35 190.907 219.491 191.26 219.579 191.625C220.293 194.577 219.971 197.506 219.266 200.404C219.219 200.598 219.172 200.792 219.125 200.986L219.125 200.987L219.125 200.987L219.125 200.987L219.124 200.988L219.124 200.988L219.124 200.988L219.124 200.989C218.686 202.798 218.247 204.615 217.608 206.355C217.096 207.75 216.456 209.098 215.816 210.447L215.816 210.447L215.816 210.448L215.816 210.448L215.816 210.448L215.815 210.448L215.815 210.448L215.815 210.448L215.815 210.449C215.507 211.098 215.199 211.747 214.905 212.402C214.392 213.546 213.895 214.697 213.405 215.851C212.573 217.807 211.745 219.765 210.927 221.728C210.631 222.44 210.344 223.157 210.056 223.874C209.482 225.309 208.907 226.743 208.254 228.141C207.313 230.155 206.268 232.12 205.223 234.084C205.073 234.366 204.923 234.648 204.773 234.93C204.121 236.16 203.452 237.382 202.783 238.603C202.136 239.785 201.488 240.968 200.856 242.158C200.279 243.243 199.717 244.336 199.156 245.429L199.155 245.43C198.555 246.6 197.955 247.769 197.335 248.928C196.456 250.574 195.534 252.199 194.585 253.806C193.796 255.143 194.024 255.767 194.938 256.999C195.929 258.334 197.468 258.781 198.994 259.129C203.182 260.086 207.379 261.004 211.576 261.921L211.785 261.967C212.208 262.059 212.636 262.128 213.064 262.197C213.545 262.274 214.026 262.352 214.499 262.463C216.863 263.016 218.049 264.755 218.681 266.911C219.086 268.292 219.205 269.773 218.106 270.92C217.691 271.353 216.933 271.675 216.33 271.677C208.558 271.703 200.786 271.707 193.015 271.712C188.119 271.714 183.223 271.717 178.327 271.725C177.756 271.726 177.715 271.555 177.672 271.053C177.628 270.543 177.537 270.033 177.446 269.525C177.313 268.778 177.18 268.033 177.197 267.289C177.276 263.715 178.528 260.515 180.718 257.705C180.876 257.502 181.133 257.368 181.386 257.236C181.668 257.088 181.945 256.943 182.077 256.709C182.716 255.579 183.264 254.377 183.684 253.148C184.356 251.179 185.024 249.192 185.456 247.162C185.654 246.229 185.94 245.325 186.227 244.42L186.227 244.42C186.583 243.295 186.939 242.169 187.128 240.985C187.327 239.735 187.846 238.531 188.363 237.334C188.523 236.963 188.683 236.592 188.833 236.221C189.344 234.955 189.873 233.695 190.401 232.436L190.402 232.435L190.402 232.435L190.402 232.434C191.223 230.477 192.044 228.52 192.802 226.538C193.342 225.127 193.789 223.681 194.236 222.234L194.237 222.233L194.237 222.233L194.237 222.232L194.237 222.232L194.237 222.231L194.238 222.231L194.238 222.23C194.493 221.404 194.749 220.577 195.022 219.757C195.6 218.022 196.186 216.288 196.847 214.584C196.996 214.201 196.913 214.194 196.704 214.178C196.665 214.175 196.622 214.171 196.575 214.165C193.784 213.794 191.035 213.827 188.432 215.069C187.861 215.341 187.46 215.285 187.082 214.811C186.697 214.327 186.897 213.974 187.239 213.529C189.273 210.88 190.536 207.863 191.506 204.679C191.607 204.346 191.712 204.013 191.816 203.68C192.446 201.674 193.074 199.674 193.056 197.543C193.043 195.928 192.645 194.479 191.535 193.128C191.291 192.831 191.067 192.52 190.844 192.211C190.178 191.286 189.521 190.374 188.378 189.898C187.799 189.656 187.228 189.396 186.657 189.136L186.657 189.135L186.656 189.135L186.656 189.135L186.655 189.135L186.655 189.134L186.654 189.134L186.654 189.134C186.061 188.864 185.468 188.593 184.867 188.344C184.408 188.155 183.95 187.963 183.492 187.771C181.689 187.017 179.885 186.262 178.045 185.61C176.927 185.214 175.77 184.931 174.613 184.648L174.613 184.647L174.613 184.647L174.613 184.647L174.613 184.647L174.612 184.647L174.612 184.647L174.612 184.647C174.086 184.518 173.56 184.39 173.038 184.25C172.935 184.223 172.833 184.19 172.732 184.158C172.676 184.14 172.621 184.123 172.565 184.106C172.539 184.098 172.514 184.09 172.488 184.083C171.299 183.743 170.26 183.802 169.453 184.95C169.098 185.454 168.612 185.864 168.101 186.293C168 186.379 167.898 186.465 167.796 186.553C165.874 188.448 164.038 190.34 162.209 192.239ZM205.809 160.073C205.867 159.651 205.951 159.233 206.035 158.815C206.137 158.302 206.239 157.79 206.295 157.272L206.311 157.127C206.43 156.017 206.552 154.891 206.473 153.787C206.432 153.215 206.28 152.653 206.127 152.09C206.003 151.633 205.88 151.176 205.815 150.712C205.473 148.274 205.165 145.83 204.929 143.379C204.723 141.252 204.586 139.117 204.448 136.983L204.448 136.982L204.448 136.981L204.448 136.98L204.448 136.979L204.448 136.978L204.448 136.977L204.448 136.976C204.429 136.676 204.409 136.376 204.39 136.077C204.251 133.944 204.123 131.81 204.039 129.674C203.959 127.627 203.92 125.578 203.88 123.53V123.529L203.863 122.666C203.861 122.537 203.905 122.408 203.949 122.278L203.949 122.278C203.977 122.195 204.006 122.112 204.022 122.028C204.041 121.934 204.063 121.839 204.086 121.744L204.086 121.743L204.086 121.743C204.149 121.479 204.213 121.214 204.189 120.957C204.164 120.675 204.1 120.394 204.037 120.114C203.951 119.734 203.865 119.355 203.875 118.977C203.938 116.474 204.051 113.971 204.164 111.468C204.181 111.099 204.197 110.73 204.214 110.361C204.238 109.824 204.307 109.286 204.389 108.753C204.62 107.249 204.861 105.747 205.102 104.244L205.27 103.189C205.29 103.067 205.316 102.946 205.342 102.825C205.355 102.768 205.367 102.712 205.378 102.656C205.385 102.719 205.394 102.781 205.403 102.844C205.422 102.978 205.441 103.113 205.444 103.247C205.499 106.049 205.551 108.851 205.603 111.653L205.623 112.733C205.64 113.675 205.658 114.617 205.676 115.56C205.719 117.809 205.763 120.058 205.798 122.307C205.821 123.796 205.84 125.284 205.858 126.773C205.891 129.479 205.925 132.185 205.989 134.891C206.036 136.909 206.165 138.928 206.344 140.939C206.475 142.414 206.667 143.884 206.858 145.354L206.859 145.355C206.919 145.822 206.98 146.288 207.039 146.754C207.121 147.406 207.211 148.057 207.301 148.708C207.458 149.846 207.615 150.984 207.732 152.127C207.881 153.578 208.579 154.753 209.584 155.684C210.318 156.363 211.145 156.941 211.972 157.52C212.298 157.748 212.625 157.976 212.945 158.211C213.615 158.701 214.282 159.195 214.949 159.69C216.623 160.93 218.297 162.171 220.018 163.343C221.555 164.391 223.137 165.372 224.719 166.354L224.721 166.355L224.723 166.356L224.725 166.358L224.727 166.359L224.729 166.36L224.731 166.361C225.493 166.834 226.255 167.307 227.012 167.787C227.743 168.251 228.472 168.72 229.2 169.188C230.495 170.021 231.789 170.854 233.1 171.661L233.347 171.813C235.749 173.292 238.152 174.773 240.611 176.153C241.78 176.808 243.02 177.341 244.257 177.872L244.257 177.873L244.258 177.873C244.575 178.009 244.891 178.145 245.207 178.283C245.39 178.363 245.813 178.271 245.9 178.125C246.106 177.779 246.24 177.387 246.373 176.998C246.399 176.921 246.426 176.843 246.453 176.766C246.97 175.291 247.624 173.914 248.74 172.766C249.582 171.899 249.463 171.639 248.294 171.146C248.228 171.119 248.162 171.091 248.097 171.064C247.608 170.86 247.115 170.654 246.671 170.374C245.846 169.854 245.045 169.289 244.274 168.691C243.593 168.161 242.91 167.634 242.227 167.107L242.225 167.105L242.222 167.104L242.22 167.102L242.218 167.1C239.905 165.315 237.592 163.529 235.343 161.667C233.25 159.932 231.26 158.064 229.311 156.165C229.04 155.901 228.766 155.639 228.491 155.376C226.833 153.791 225.168 152.199 224.117 150.096C223.973 149.808 223.806 149.531 223.639 149.253C223.155 148.447 222.671 147.641 222.743 146.583C222.787 145.935 222.7 145.278 222.613 144.622C222.582 144.384 222.551 144.147 222.526 143.91C222.458 143.271 222.377 142.632 222.297 141.994L222.297 141.992C222.132 140.686 221.967 139.38 221.911 138.069C221.836 136.298 221.853 134.523 221.87 132.749C221.878 131.985 221.885 131.221 221.885 130.458C221.885 130.278 221.88 130.099 221.875 129.919V129.918C221.863 129.526 221.852 129.133 221.895 128.747C222.105 126.865 222.319 124.982 222.602 123.11C222.657 122.747 222.711 122.382 222.764 122.018L222.765 122.012C223.029 120.219 223.294 118.423 223.73 116.672C224.11 115.145 224.578 113.64 225.046 112.135L225.046 112.135L225.046 112.134L225.046 112.134L225.046 112.134L225.046 112.133L225.046 112.133L225.046 112.133C225.416 110.943 225.786 109.753 226.113 108.551C226.348 107.687 226.607 106.828 226.866 105.97L226.866 105.97L226.866 105.969L226.866 105.969L226.866 105.969L226.866 105.969L226.866 105.969L226.866 105.969C227.515 103.819 228.164 101.669 228.44 99.42C228.5 98.9299 228.624 98.4417 228.747 97.9552C228.929 97.2395 229.11 96.5275 229.085 95.8188C228.994 93.2583 228.281 90.791 227.562 88.328C226.49 84.6487 224.629 81.5799 221.41 79.3957C219.553 78.1355 217.607 77.2128 215.303 77.5093C214.467 77.6168 213.64 77.7892 212.812 77.9616L212.812 77.9616L212.811 77.9618C212.413 78.0447 212.016 78.1276 211.617 78.2033C209.353 78.633 207.349 79.6324 205.544 81.0372C204.488 81.8595 203.457 82.7174 202.454 83.604C201.451 84.4906 200.448 85.3873 199.534 86.3631C198.684 87.2706 197.893 88.2345 197.103 89.1977C196.931 89.4073 196.76 89.6169 196.587 89.8258C195.229 91.4708 193.875 93.1193 192.546 94.7882C191.965 95.5191 191.395 96.2597 190.825 97.0002L190.824 97.0005C189.963 98.1198 189.101 99.2391 188.199 100.325C186.564 102.293 184.865 104.212 183.143 106.106C180.775 108.707 178.366 111.271 175.957 113.835C175.752 114.053 175.515 114.244 175.279 114.434C174.996 114.662 174.714 114.89 174.486 115.165C172.742 117.27 171.1 119.466 169.934 121.946C168.859 124.233 167.823 126.538 166.787 128.843L166.787 128.844C165.856 130.916 164.925 132.988 163.966 135.046C162.41 138.384 160.699 141.634 158.633 144.703L158.481 144.928C157.374 146.574 156.267 148.22 154.707 149.42C152.674 150.983 150.558 152.438 148.442 153.893L148.441 153.894L148.44 153.894L148.44 153.895L148.439 153.895L148.438 153.896L148.437 153.896L148.436 153.897C147.886 154.275 147.336 154.654 146.787 155.034C145.002 156.271 143.59 157.832 142.895 159.887C142.043 162.411 142.479 164.918 143.669 167.218C145.135 170.05 147.454 172.214 149.821 174.276C152.449 176.565 155.502 178.206 158.796 179.262C163.031 180.618 167.29 181.934 171.768 182.318C172.939 182.419 174.106 182.572 175.273 182.726H175.273H175.273H175.273H175.273H175.274H175.274H175.274C176.575 182.897 177.875 183.069 179.182 183.166C182.071 183.382 184.973 183.502 187.871 183.517C189.174 183.525 190.477 183.434 191.781 183.344H191.781H191.781H191.782H191.782H191.782H191.783H191.783C192.61 183.286 193.437 183.229 194.264 183.196C196.515 183.108 198.647 182.516 200.747 181.77C202.158 181.268 203.463 180.578 203.979 179.054C204.279 178.167 204.428 177.218 204.551 176.284L204.583 176.044C204.844 174.072 205.105 172.098 205.253 170.116C205.389 168.291 205.461 166.46 205.535 164.562C205.562 163.848 205.591 163.124 205.623 162.387C205.641 162.15 205.656 161.912 205.67 161.674C205.703 161.139 205.736 160.603 205.809 160.073ZM130.951 213.814C131.046 213.899 131.261 213.954 131.367 213.906C131.85 213.686 132.342 213.478 132.833 213.271L132.834 213.271C134.032 212.765 135.232 212.259 136.313 211.566C138.24 210.332 140.12 209.025 142 207.717L142.001 207.717L142.002 207.716L142.002 207.715L142.003 207.715L142.004 207.714L142.005 207.714L142.006 207.713C143.483 206.686 144.96 205.659 146.46 204.667C149.732 202.503 152.6 199.869 155.468 197.233C156.027 196.72 156.586 196.207 157.148 195.697C158.02 194.906 158.84 194.056 159.66 193.208L159.66 193.207L159.664 193.203L159.933 192.925L160.06 192.794L160.193 192.657C161.169 191.653 162.136 190.64 163.103 189.627L163.115 189.614L163.681 189.021L163.965 188.724L164.36 188.311C164.662 187.997 164.964 187.683 165.266 187.369C166.363 186.229 167.459 185.089 168.522 183.918C168.647 183.78 168.491 183.091 168.347 183.048C167.745 182.865 167.131 182.716 166.518 182.567L166.518 182.567C165.74 182.378 164.963 182.189 164.208 181.932L163.823 181.801C160.701 180.738 157.575 179.673 154.52 178.438C151.721 177.306 149.129 175.752 146.812 173.779C146.776 173.749 146.61 173.789 146.592 173.833C145.922 175.45 144.677 176.552 143.427 177.657C143.142 177.91 142.857 178.162 142.578 178.421C141.266 179.639 139.964 180.887 138.814 182.255C138.071 183.138 137.438 184.116 136.806 185.093L136.806 185.093C136.574 185.452 136.342 185.811 136.104 186.165C135.836 186.565 135.552 186.959 135.268 187.353L135.268 187.354C134.572 188.321 133.875 189.288 133.398 190.354C132.334 192.731 130.684 194.624 128.962 196.469C127.269 198.283 124.963 198.959 122.685 199.626C122.577 199.657 122.469 199.689 122.361 199.721C122.257 199.751 122.154 199.782 122.05 199.812C121.213 200.062 120.352 200.229 119.491 200.396L119.491 200.396C119.018 200.488 118.546 200.58 118.078 200.685C117.959 200.712 117.852 200.792 117.745 200.872C117.695 200.909 117.646 200.946 117.595 200.978C117.65 201.044 117.706 201.129 117.762 201.213C117.884 201.396 118.005 201.579 118.113 201.571C119.213 201.493 120.035 202.059 120.842 202.614C121.057 202.762 121.272 202.91 121.49 203.044C122.554 203.7 123.6 204.405 124.22 205.626C124.622 206.417 125.163 207.14 125.703 207.861C125.868 208.082 126.034 208.303 126.195 208.525C126.858 209.441 127.551 210.335 128.305 211.308L128.466 211.515C128.654 211.69 128.842 211.866 129.03 212.041C129.667 212.636 130.305 213.23 130.951 213.814ZM185.249 186.381C185.923 186.74 186.64 187.012 187.357 187.285C188.77 187.823 190.185 188.361 191.263 189.553C191.591 189.914 191.968 190.23 192.345 190.546L192.345 190.546L192.345 190.546L192.346 190.546L192.346 190.546L192.346 190.546L192.346 190.546L192.346 190.546L192.347 190.547C192.592 190.752 192.837 190.957 193.07 191.176C193.838 191.898 194.104 192.864 194.368 193.826L194.369 193.828L194.369 193.829L194.369 193.83C194.407 193.969 194.445 194.107 194.485 194.245C195.211 196.771 195.046 199.384 194.409 201.807L194.286 202.276C193.437 205.513 192.575 208.797 190.772 211.702C190.563 212.039 190.454 212.219 191.029 212.235C192.575 212.28 194.122 212.338 195.668 212.396C197.371 212.459 199.075 212.523 200.779 212.569C201.847 212.598 202.917 212.591 203.987 212.584C204.724 212.579 205.461 212.574 206.198 212.581C208.129 212.599 210.004 212.32 211.761 211.501C211.831 211.469 211.903 211.436 211.976 211.402C212.576 211.128 213.256 210.818 213.527 210.325C214.217 209.07 214.706 207.689 215.152 206.317C215.804 204.311 216.45 202.292 216.904 200.235C217.292 198.479 217.489 196.667 217.61 194.869C217.647 194.328 217.555 193.781 217.463 193.231L217.463 193.231C217.389 192.795 217.316 192.357 217.307 191.921C217.27 190.209 216.459 188.815 215.648 187.421L215.571 187.288L215.506 187.176C215.317 186.85 215.075 186.555 214.833 186.26L214.832 186.26C214.643 186.03 214.454 185.8 214.289 185.554C212.987 183.607 211.69 181.656 210.394 179.705C209.478 178.326 208.561 176.947 207.643 175.57C207.555 175.438 207.441 175.322 207.327 175.207C207.274 175.154 207.221 175.1 207.171 175.045C207.12 175.123 207.06 175.199 207.001 175.275C206.87 175.441 206.739 175.607 206.7 175.793C206.611 176.223 206.552 176.66 206.494 177.096L206.494 177.097C206.444 177.468 206.394 177.84 206.325 178.208C205.926 180.343 204.903 181.983 202.892 183.038C200.119 184.493 197.139 185.115 194.093 185.464C192.337 185.666 190.549 185.699 188.78 185.641C187.717 185.606 186.657 185.475 185.596 185.344C185.022 185.273 184.448 185.202 183.873 185.146C183.718 185.131 183.558 185.178 183.397 185.224C183.322 185.246 183.248 185.268 183.174 185.283C183.202 185.306 183.23 185.329 183.258 185.352L183.31 185.394L183.31 185.394C183.423 185.487 183.536 185.579 183.655 185.665C183.679 185.683 183.707 185.696 183.742 185.712C183.797 185.738 183.869 185.772 183.969 185.844C184.104 185.9 184.241 185.953 184.378 186.005C184.674 186.119 184.971 186.233 185.249 186.381ZM221.909 50.467C220.789 52.1063 220.112 53.9757 219.77 55.9409C219.423 57.9378 219.375 59.9572 219.96 61.9064C220.305 63.0573 220.697 64.1947 221.088 65.332L221.088 65.3328C221.54 66.6489 221.993 67.9648 222.375 69.3012C222.61 70.1265 223.144 70.5129 223.734 70.7207C226.518 71.7014 229.543 70.5088 231.272 67.949C231.741 67.2542 231.471 66.969 230.994 66.4832C230.348 65.8257 229.783 65.0641 229.302 64.2745C228.585 63.0958 228.889 61.8942 229.711 60.9423C230.533 59.9898 231.768 59.7781 232.917 60.1772C234.23 60.6332 235.175 61.6371 235.848 62.8665C235.88 62.9241 235.902 62.9867 235.925 63.0492C235.935 63.0782 235.946 63.1073 235.957 63.1358C235.964 63.1201 235.972 63.1046 235.98 63.0891C235.997 63.0557 236.014 63.0224 236.025 62.9872C236.125 62.6838 236.221 62.3785 236.316 62.073C236.819 60.4701 237.324 58.8629 238.341 57.4953C239.133 56.4293 239.987 55.3662 240.993 54.5154C241.745 53.8792 242.674 53.4366 243.586 53.0024C243.719 52.9389 243.852 52.8756 243.984 52.8119C244.294 52.6619 244.604 52.5087 244.915 52.3555L244.916 52.3547C246.222 51.7102 247.532 51.0632 248.906 50.6326C249.137 50.5602 249.254 50.5246 249.308 50.508C249.339 50.4987 249.349 50.4954 249.349 50.4951C249.349 50.495 249.348 50.4953 249.345 50.4958L249.341 50.4967C249.269 50.5128 248.804 50.6165 253.347 48.9781C259.69 46.6905 256.426 39.4843 254.548 37.899C254.409 37.7809 254.187 37.6541 254.036 37.6866C253.901 37.7159 253.729 37.9514 253.715 38.1086C253.574 39.684 251.266 42.1285 245.781 41.749C242.028 41.4892 241.947 41.5041 241.767 41.5371C241.684 41.5524 241.581 41.5714 241.086 41.5691C239.904 41.5637 235.81 41.9449 234.983 42.1789C234.682 42.2639 234.289 42.3461 233.826 42.4428C231.621 42.9036 227.839 43.6938 224.978 46.6905C224.662 47.0756 224.336 47.4545 224.01 47.8335C223.276 48.6879 222.541 49.5424 221.909 50.467ZM236.908 66.1079C236.908 66.9047 236.748 67.6886 236.589 68.4724C236.512 68.8492 236.435 69.226 236.376 69.6042C236.367 69.6639 236.336 69.7201 236.305 69.7764C236.29 69.8026 236.276 69.8287 236.264 69.8552C236.257 69.8297 236.25 69.8043 236.243 69.7789L236.243 69.7784C236.229 69.7241 236.214 69.6699 236.204 69.6148C236.131 69.229 236.063 68.8419 235.996 68.4549C235.843 67.5793 235.689 66.7036 235.48 65.8416C235.23 64.8083 234.951 63.7551 234.487 62.8073C233.952 61.7112 231.709 61.1941 230.605 61.769C229.976 62.0969 229.674 62.8827 230.082 63.4536C230.468 63.9937 230.942 64.5458 231.505 64.8672C232.43 65.395 232.731 66.2751 232.806 67.1379C232.947 68.7601 231.245 71.0414 229.591 71.4516C228.087 71.8246 226.554 72.0841 225.023 72.3433C224.661 72.4045 224.299 72.4656 223.938 72.5283C223.901 72.5348 223.864 72.5409 223.828 72.5469C223.346 72.6265 222.962 72.6899 223.115 73.3961C223.529 75.3132 223.665 77.2447 223.317 79.1948C223.296 79.3132 223.511 79.4989 223.648 79.6162C223.824 79.766 224.008 79.907 224.192 80.048C224.531 80.3072 224.869 80.566 225.149 80.878C225.609 81.3907 226.037 81.9312 226.466 82.4719C226.761 82.8433 227.055 83.2146 227.36 83.5771C227.44 83.6717 227.759 83.7112 227.836 83.638C228.227 83.2645 228.608 82.8804 228.988 82.4963L228.989 82.4958C229.434 82.0462 229.88 81.5966 230.342 81.1642C231.458 80.1188 232.602 79.1023 233.76 78.1035C233.91 77.9741 234.117 77.9108 234.324 77.8474C234.419 77.8181 234.514 77.7889 234.604 77.7532C234.566 77.8397 234.53 77.9267 234.493 78.0136L234.493 78.0141C234.393 78.2517 234.292 78.4893 234.174 78.7173C234.153 78.7572 234.093 78.7733 234.031 78.7902C233.977 78.8048 233.921 78.82 233.885 78.8513L233.857 78.8756L233.828 78.9003C233.605 79.0906 233.44 79.2305 233.936 79.4666C234.46 79.7163 234.945 80.0471 235.431 80.378C235.633 80.5162 235.836 80.6545 236.042 80.7868C239.209 82.8252 242.622 83.7823 246.399 83.1629C248.536 82.8126 250.002 81.6758 250.654 79.5732C251.278 77.559 251.018 76.973 249.094 76.1635C249.044 76.1426 248.994 76.1218 248.944 76.101L248.898 76.082L248.898 76.0817L248.897 76.0813C247.882 75.6592 246.874 75.2399 246.608 73.9958C246.498 73.4842 247.445 72.9327 247.653 73.4124L247.655 73.4172L247.656 73.4215C247.862 74.3596 248.574 74.6837 249.325 75.0217C250.706 75.6434 250.874 75.5564 250.874 74.1388C250.874 72.2828 250.874 72.2828 252.502 71.7047C253.445 71.3698 253.597 71.0423 253.168 70.1263C252.521 68.743 252.099 67.3338 252.278 65.7698C252.498 63.8424 252.683 61.9087 252.804 59.9728C252.882 58.7288 252.956 57.4558 252.778 56.2329C252.664 55.4498 252.385 54.6907 252.105 53.9318C251.985 53.6053 251.864 53.2789 251.757 52.9506C251.506 52.1794 250.9 51.8695 250.109 52.1547C249.615 52.3329 249.117 52.5047 248.62 52.6766C247.235 53.1551 245.849 53.6338 244.528 54.2511C243.138 54.9009 241.731 55.7069 240.65 56.7689C239.678 57.7232 236.908 62.53 236.908 66.1079ZM122.737 216.297C123.324 216.166 123.91 216.036 124.497 215.906C125.772 215.624 127.048 215.342 128.32 215.048C128.503 215.006 128.674 214.911 128.846 214.816L128.846 214.816C128.925 214.773 129.004 214.729 129.084 214.69L129.044 214.667C129.024 214.655 129.005 214.644 128.985 214.633C128.95 214.613 128.914 214.593 128.879 214.573C128.72 214.484 128.56 214.395 128.414 214.287C128.252 214.169 128.115 214.013 127.981 213.861L127.974 213.853C127.593 213.421 127.205 212.993 126.818 212.565C125.875 211.522 124.932 210.479 124.07 209.372C123.218 208.278 122.541 207.037 121.873 205.813L121.873 205.813L121.856 205.782C121.527 205.179 121.153 204.924 120.52 205.145C117.827 206.086 115.04 206.599 112.252 207.112L112.251 207.113C110.798 207.38 109.344 207.648 107.904 207.976C105.542 208.515 93.6564 210.559 92.6213 210.633C92.1185 210.669 91.6157 210.72 91.113 210.771L91.1124 210.771L91.1119 210.771L91.1114 210.771L91.1109 210.771L91.1103 210.771L91.1098 210.772L91.1093 210.772C90.1297 210.871 89.1505 210.971 88.1722 210.96C85.672 210.932 83.2214 211.201 80.7727 211.676C80.0008 211.826 79.2177 211.921 78.4349 212.016C77.5409 212.124 76.6472 212.232 75.7708 212.422C72.9485 213.034 72.0029 215.443 72.73 217.798C72.8696 218.25 73.3684 218.76 73.8161 218.918C75.8578 219.641 77.9949 219.828 80.1552 219.845C81.2679 219.854 82.3803 219.906 83.4927 219.957H83.493H83.4932C83.9175 219.977 84.3418 219.997 84.7661 220.014C86.3612 220.079 87.9563 220.145 89.5513 220.212C90.7945 220.264 92.0376 220.315 93.2808 220.366C93.369 220.37 93.4574 220.369 93.5458 220.367H93.5466C93.6348 220.366 93.723 220.365 93.811 220.368C94.2469 220.386 94.6835 220.416 95.1201 220.446H95.1203H95.1204H95.1205H95.1206H95.1208H95.1209H95.121C96.076 220.511 97.0309 220.576 97.9783 220.517C99.4649 220.425 100.946 220.25 102.428 220.074C103.116 219.993 103.804 219.911 104.492 219.838C104.914 219.793 105.338 219.756 105.761 219.72H105.761C106.528 219.653 107.296 219.587 108.056 219.471L108.439 219.413C110.381 219.118 112.326 218.823 114.242 218.4C115.73 218.072 117.208 217.697 118.717 217.313L118.718 217.313C119.823 217.032 120.946 216.747 122.102 216.472C122.169 216.454 122.236 216.434 122.303 216.415C122.447 216.372 122.591 216.33 122.737 216.297ZM190.093 257.234C191.007 255.92 191.873 254.57 192.712 253.207C193.474 251.967 194.188 250.696 194.9 249.427C195.538 248.29 196.2 247.167 196.863 246.044C198.399 243.438 199.936 240.832 201.17 238.052C201.881 236.45 202.704 234.899 203.527 233.348C203.92 232.608 204.312 231.868 204.692 231.123C204.87 230.775 205.051 230.428 205.233 230.081L205.233 230.081L205.233 230.081L205.234 230.079L205.235 230.076L205.236 230.074L205.237 230.072L205.238 230.071C205.738 229.113 206.239 228.155 206.669 227.166C206.994 226.417 207.279 225.65 207.564 224.883L207.564 224.882C208.001 223.703 208.439 222.525 209.02 221.422C209.954 219.65 210.573 217.777 211.193 215.904C211.395 215.295 211.596 214.687 211.808 214.082C211.841 213.988 211.862 213.89 211.883 213.792C211.893 213.746 211.902 213.701 211.913 213.655C211.879 213.662 211.845 213.668 211.81 213.674L211.762 213.682C211.652 213.701 211.542 213.72 211.436 213.751C211.223 213.815 211.011 213.892 210.799 213.969C210.36 214.129 209.922 214.289 209.473 214.324C207.795 214.456 206.108 214.512 204.425 214.512C203.384 214.512 202.344 214.471 201.304 214.43H201.303H201.303H201.302H201.302H201.302H201.301H201.301C200.63 214.403 199.958 214.377 199.287 214.361C199.162 214.358 198.966 214.515 198.916 214.642C198.855 214.797 198.793 214.952 198.732 215.108C198.311 216.169 197.89 217.23 197.523 218.31C196.608 220.999 195.72 223.697 194.843 226.399C193.73 229.829 192.36 233.139 190.85 236.423C189.45 239.468 188.407 242.711 187.744 246.048C187.435 247.606 186.978 249.135 186.521 250.662L186.521 250.663L186.521 250.663L186.521 250.663L186.521 250.663L186.52 250.663L186.52 250.664L186.52 250.664C186.41 251.032 186.3 251.401 186.192 251.769C185.853 252.925 185.479 254.071 185.105 255.216C184.97 255.63 184.834 256.044 184.701 256.458C184.395 257.407 184.664 258.293 185.41 258.408C186.241 258.537 187.1 258.49 188.035 258.431C188.884 258.313 189.613 257.923 190.093 257.234ZM67.9084 224.607C68.8311 223.089 69.7816 221.716 71.6574 221.305C72.3538 221.153 72.3923 220.79 71.9307 220.207C71.8295 220.079 71.7226 219.952 71.6152 219.824C71.2295 219.364 70.8365 218.896 70.6701 218.363C70.4902 217.788 70.5253 217.137 70.5598 216.498C70.5687 216.334 70.5775 216.17 70.5826 216.009C70.6437 214.078 71.189 212.43 73.1008 211.492C73.6679 211.214 74.0085 210.795 73.4396 209.974C72.1575 208.124 70.4583 206.815 68.5849 205.681C67.8506 205.237 67.1744 205.501 66.8825 206.277C66.756 206.613 66.628 206.949 66.5001 207.285L66.4989 207.288L66.4988 207.288C66.0931 208.353 65.6873 209.418 65.3275 210.498C64.9324 211.685 64.5566 212.877 64.1807 214.07L64.1806 214.07C63.7839 215.329 63.3872 216.588 62.9678 217.839C62.6215 218.873 62.3167 219.918 62.0118 220.963L62.0118 220.963C61.4608 222.852 60.9095 224.742 60.1126 226.566C58.2776 230.766 56.7944 235.11 56.0926 239.673C56.0555 239.915 56.1072 240.329 56.25 240.401C56.4671 240.512 56.838 240.472 57.0755 240.355C57.4714 240.162 57.8873 239.92 58.1646 239.589C59.0348 238.55 59.8442 237.46 60.6772 236.212C61.3668 235.109 62.059 234.007 62.7512 232.906L62.7517 232.905L62.7523 232.904L62.753 232.903L62.7532 232.902L62.7533 232.902C64.4853 230.146 66.2173 227.389 67.9084 224.607ZM197.799 260.381C197.632 260.339 197.464 260.298 197.297 260.257C195.76 259.883 194.233 259.511 193.343 257.923C192.922 257.174 192.555 257.231 192.131 258.054C191.763 258.768 191.308 259.394 190.582 259.766C190.196 259.964 189.787 260.124 189.377 260.269C187.342 260.99 185.363 261.081 183.579 259.623C182.709 258.912 182.426 258.977 181.747 259.862C180.649 261.293 180.087 262.962 179.527 264.624L179.527 264.624L179.479 264.766C178.876 266.555 179.203 266.929 181.105 266.929H215.216C215.287 266.929 215.362 266.935 215.436 266.942C215.607 266.956 215.778 266.971 215.913 266.909C216.088 266.828 216.322 266.446 216.293 266.414C216.168 266.276 216.046 266.131 215.923 265.986L215.923 265.985C215.547 265.54 215.167 265.088 214.684 264.843C213.722 264.355 212.643 264.066 211.587 263.799C207.69 262.812 203.782 261.869 199.701 260.91C199.583 260.877 199.465 260.843 199.347 260.809L199.107 260.741C198.672 260.617 198.237 260.492 197.799 260.381ZM264.508 194.837C264.548 194.986 264.727 195.098 264.906 195.21C264.988 195.262 265.071 195.314 265.139 195.369C265.184 195.305 265.24 195.242 265.296 195.18C265.418 195.043 265.539 194.906 265.546 194.764C265.556 194.574 265.568 194.383 265.581 194.191C265.631 193.445 265.681 192.691 265.534 191.983C265.246 190.596 264.793 189.233 264.278 187.911C264.15 187.581 264.303 187.424 264.447 187.276C264.552 187.168 264.651 187.066 264.635 186.907C264.727 186.966 264.826 187.02 264.925 187.074L264.925 187.075C265.151 187.199 265.377 187.322 265.526 187.508C265.657 187.672 265.717 187.89 265.778 188.11C265.814 188.241 265.851 188.373 265.902 188.494C265.975 188.665 266.047 188.836 266.12 189.007C266.471 189.84 266.823 190.673 267.23 191.478C267.302 191.621 267.52 191.691 267.737 191.761C267.837 191.793 267.937 191.825 268.023 191.864C268.06 191.783 268.106 191.701 268.153 191.62C268.255 191.442 268.357 191.264 268.355 191.087C268.347 190.286 268.284 189.482 268.189 188.685C268.174 188.559 268.16 188.433 268.147 188.305C268.087 187.731 268.025 187.145 267.804 186.637C267.129 185.087 266.413 183.543 265.552 182.092C265.008 181.174 264.267 180.315 263.445 179.635C262.716 179.031 261.875 178.558 261.038 178.086L261.037 178.086C260.813 177.96 260.59 177.834 260.37 177.706C259.019 176.923 257.651 176.171 256.279 175.427L256.258 175.415L256.235 175.402L256.234 175.402L256.234 175.401C256.073 175.31 255.884 175.202 255.715 175.571C255.398 176.264 255.061 176.949 254.724 177.634L254.724 177.634L254.724 177.634L254.724 177.634L254.724 177.634L254.724 177.635L254.724 177.635L254.724 177.635L254.724 177.636L254.724 177.636L254.724 177.636L254.724 177.636L254.723 177.636L254.723 177.636L254.723 177.636C254.198 178.705 253.672 179.774 253.222 180.874C253.212 180.897 253.202 180.922 253.191 180.948C253.014 181.368 252.702 182.11 253.659 182.52C254.686 182.96 255.696 183.593 256.506 184.361C258.89 186.619 259.965 189.637 261.033 192.634L261.116 192.869C261.322 193.446 261.469 194.044 261.616 194.642L261.616 194.642C261.686 194.926 261.756 195.209 261.832 195.491C261.855 195.573 261.88 195.655 261.906 195.736C261.928 195.803 261.95 195.869 261.97 195.936C262.02 195.899 262.079 195.866 262.137 195.833C262.262 195.761 262.388 195.689 262.432 195.583C262.882 194.502 263.017 193.415 262.682 192.24C262.416 191.306 262.319 190.318 262.225 189.345V189.345L262.216 189.256C262.204 189.137 262.37 189.001 262.536 188.864L262.536 188.864C262.613 188.801 262.689 188.738 262.748 188.677C262.788 188.73 262.834 188.78 262.881 188.831C262.981 188.942 263.082 189.052 263.118 189.181C263.193 189.451 263.262 189.722 263.333 189.998L263.334 190.002L263.335 190.006L263.335 190.007L263.336 190.008C263.466 190.516 263.6 191.04 263.778 191.598C263.839 191.881 263.899 192.164 263.959 192.447C264.128 193.247 264.296 194.048 264.508 194.837ZM253.637 176.778C253.764 176.472 253.916 176.179 254.067 175.885C254.435 175.174 254.803 174.463 254.823 173.567C254.842 172.747 254.693 172.307 254.031 171.903C253.331 171.475 252.533 171.218 251.909 171.71C250.493 172.827 249.186 174.124 248.428 175.786C247.951 176.833 247.607 177.941 247.264 179.048L247.264 179.049C247.146 179.428 247.028 179.808 246.905 180.185C246.835 180.399 246.868 180.667 246.914 180.898C247.188 182.28 248.22 182.963 249.367 183.543C249.973 183.849 250.421 183.697 250.693 183.098C250.879 182.689 251.062 182.279 251.247 181.866C251.634 181.002 252.027 180.123 252.465 179.205C252.586 178.957 252.711 178.71 252.836 178.463C253.118 177.908 253.399 177.352 253.637 176.778ZM54.1503 239.19C54.7826 237.683 55.3832 236.157 55.8898 234.605C56.2286 233.566 56.5273 232.515 56.826 231.464L56.826 231.463C57.0965 230.511 57.367 229.559 57.6673 228.617C58.1386 227.137 58.6329 225.665 59.1273 224.193C59.5893 222.817 60.0513 221.442 60.4945 220.06C61.3243 217.473 62.1336 214.879 62.943 212.286C63.3067 211.12 63.6704 209.955 64.0359 208.79C64.1322 208.483 64.2299 208.176 64.3276 207.87C64.5872 207.056 64.8467 206.242 65.0794 205.421C65.1139 205.299 65.0437 205.147 64.9735 204.995C64.941 204.925 64.9085 204.855 64.8864 204.788C64.8146 204.835 64.7314 204.878 64.6483 204.92C64.4685 205.011 64.2887 205.103 64.223 205.247C63.6006 206.609 62.9925 207.98 62.4554 209.378C61.961 210.664 61.5197 211.972 61.0786 213.278C61.0047 213.497 60.9309 213.716 60.8569 213.934C60.7748 214.176 60.6923 214.419 60.6099 214.661L60.6098 214.661C60.1469 216.022 59.6837 217.384 59.2715 218.76C58.8447 220.186 58.4403 221.617 58.0358 223.049L58.0357 223.05L58.0357 223.05C57.7395 224.098 57.4434 225.147 57.1385 226.193C57.0266 226.576 56.9157 226.961 56.8048 227.345L56.8047 227.345C56.3385 228.96 55.8722 230.577 55.3291 232.166C54.9908 233.156 54.6332 234.139 54.2742 235.126L54.2741 235.126C53.7728 236.504 53.2688 237.89 52.8112 239.311C53.4748 240.187 53.7286 240.194 54.1503 239.19ZM204.032 270.204C204.434 270.177 204.835 270.147 205.237 270.117C206.123 270.052 207.009 269.986 207.896 269.943C209.066 269.886 210.237 269.835 211.407 269.784C212.955 269.716 214.502 269.649 216.048 269.567C216.17 269.561 216.286 269.439 216.402 269.318C216.456 269.261 216.51 269.205 216.565 269.16C216.518 269.131 216.472 269.1 216.426 269.069C216.32 268.997 216.213 268.925 216.096 268.885C216.004 268.854 215.9 268.862 215.796 268.87C215.749 268.873 215.703 268.876 215.657 268.876H180.515C180.46 268.876 180.399 268.869 180.338 268.862C180.204 268.847 180.071 268.831 179.997 268.891C179.745 269.094 179.518 269.354 179.365 269.636C179.333 269.696 179.638 270.054 179.828 270.096C180.35 270.212 180.893 270.284 181.428 270.285C188.933 270.296 196.438 270.293 204.032 270.204ZM258.919 271.252C257.502 271.824 256.085 272.381 254.673 272.936L254.673 272.936L254.673 272.937L254.672 272.937L254.672 272.937L254.67 272.937C251.982 273.994 249.309 275.046 246.672 276.18C244.87 276.955 243.066 277.074 241.189 277.018C241.029 277.014 240.871 276.978 240.712 276.942C240.542 276.903 240.372 276.865 240.201 276.865C240.064 276.865 239.926 276.941 239.789 277.017C239.727 277.051 239.665 277.085 239.603 277.112C239.636 277.163 239.665 277.217 239.694 277.27C239.76 277.389 239.825 277.508 239.92 277.593C240.191 277.836 240.474 278.085 240.793 278.252C243.225 279.526 244.63 283.003 243.771 285.612C243.349 286.893 242.839 288.252 241.984 289.25C241.29 290.061 240.078 290.596 238.997 290.876C237.29 291.32 235.508 291.333 233.786 290.709C232.282 290.163 231.201 289.153 230.404 287.788C228.468 284.471 229.263 281.594 231.322 278.916C231.593 278.564 232.029 278.343 232.468 278.12C232.713 277.995 232.96 277.87 233.18 277.721C233.335 277.615 233.456 277.458 233.577 277.301L233.577 277.301C233.609 277.26 233.641 277.218 233.673 277.178C233.697 277.148 233.721 277.119 233.745 277.091C233.648 277.068 233.552 277.039 233.455 277.011C233.233 276.945 233.012 276.88 232.788 276.87C232.633 276.864 232.478 276.904 232.322 276.944C232.177 276.981 232.031 277.018 231.886 277.018L226.397 277.022C213.994 277.029 201.592 277.037 189.189 277.017C186.194 277.012 183.199 276.968 180.204 276.923L180.2 276.923C178.437 276.897 176.674 276.87 174.911 276.852C173.608 276.839 172.305 276.842 171.002 276.846C170.409 276.847 169.816 276.849 169.224 276.849C169.096 276.849 168.968 276.848 168.841 276.848C168.487 276.846 168.133 276.843 167.779 276.857C167.705 276.86 167.633 276.91 167.562 276.96L167.561 276.961C167.528 276.984 167.495 277.007 167.462 277.025C167.494 277.048 167.525 277.071 167.557 277.094L167.559 277.096C167.589 277.117 167.618 277.138 167.647 277.159C167.686 277.186 167.725 277.213 167.764 277.237C168.062 277.422 168.373 277.593 168.685 277.763C169.355 278.129 170.025 278.495 170.551 279.008C174.147 282.517 172.987 289.455 167.606 290.845C163.253 291.97 159.405 290.522 158.113 285.352C157.316 282.165 159.447 278.364 162.669 277.369C162.808 277.325 162.928 277.22 163.049 277.115C163.105 277.067 163.161 277.018 163.218 276.975C163.171 276.95 163.124 276.919 163.077 276.886L163.041 276.861C162.914 276.774 162.787 276.686 162.659 276.686C158.412 276.669 154.431 275.434 150.527 273.957C145.283 271.973 140.184 269.66 135.464 266.607L135.374 266.549C134.502 265.986 133.602 265.405 133.294 264.228C132.717 262.023 133.832 260.323 135.89 259.764C138.082 259.169 140.183 259.796 142.252 260.46C145.838 261.61 149.421 262.768 153.005 263.927L153.023 263.933C155.019 264.578 157.015 265.223 159.011 265.867L159.271 265.951C160.354 266.3 161.438 266.65 162.53 266.969C162.931 267.085 163.363 267.145 163.78 267.146C165.582 267.153 167.384 267.154 169.185 267.155C170.978 267.156 172.772 267.156 174.565 267.163C174.831 267.164 175.288 267.238 175.327 267.373C175.41 267.663 175.409 267.978 175.408 268.292C175.408 268.415 175.408 268.537 175.412 268.659C175.386 268.65 175.359 268.638 175.333 268.626C175.275 268.599 175.218 268.573 175.163 268.578C174.96 268.597 174.757 268.622 174.554 268.646L174.553 268.646C174.252 268.684 173.95 268.721 173.648 268.736C172.597 268.791 171.546 268.839 170.496 268.888C169.09 268.954 167.685 269.019 166.281 269.097C163.796 269.236 161.453 268.536 159.131 267.843L159.109 267.836C157.307 267.298 155.528 266.684 153.748 266.07L153.747 266.07L153.745 266.069L153.743 266.068L153.741 266.068L153.739 266.067L153.737 266.066L153.736 266.066L153.734 266.065C152.732 265.72 151.731 265.374 150.726 265.043C149.463 264.626 148.198 264.219 146.932 263.812L146.931 263.812L146.93 263.812L146.929 263.812L146.928 263.811L146.928 263.811L146.927 263.811L146.926 263.81C145.464 263.341 144.003 262.871 142.547 262.386C142.179 262.264 141.82 262.1 141.462 261.937C140.892 261.677 140.324 261.418 139.728 261.33C138.632 261.167 137.459 261.255 136.366 261.471C135.939 261.555 135.46 262.235 135.326 262.73C135.146 263.391 135.268 264.042 136.042 264.533C139.631 266.815 143.415 268.708 147.301 270.424C150.831 271.984 154.475 273.2 158.198 274.191C158.795 274.35 159.441 274.363 160.066 274.375C161.49 274.401 162.914 274.419 164.338 274.437H164.338H164.338H164.338H164.338H164.338L164.346 274.437C166.755 274.467 169.165 274.497 171.573 274.57C174.239 274.651 176.903 274.781 179.568 274.91H179.568H179.568H179.568H179.569H179.569H179.569H179.569C180.808 274.97 182.048 275.03 183.287 275.086C184.386 275.135 185.485 275.182 186.585 275.23C188.177 275.299 189.77 275.368 191.362 275.441C191.706 275.457 192.049 275.486 192.393 275.514L192.393 275.514C192.998 275.565 193.603 275.615 194.205 275.596C194.733 275.579 195.259 275.506 195.786 275.433H195.786H195.786H195.786H195.786H195.786H195.786H195.787C196.242 275.369 196.697 275.306 197.154 275.279C197.463 275.261 197.775 275.307 198.088 275.353C198.341 275.39 198.595 275.427 198.848 275.431C199.153 275.435 199.458 275.44 199.763 275.445C201.168 275.467 202.574 275.49 203.975 275.423C205.184 275.365 206.392 275.27 207.6 275.175C208.764 275.083 209.928 274.991 211.094 274.933C211.44 274.916 211.79 275.002 212.141 275.088C212.45 275.164 212.759 275.24 213.068 275.246C215.189 275.29 217.311 275.286 219.433 275.256C221.501 275.227 223.569 275.173 225.635 275.074C226.045 275.055 226.456 274.984 226.867 274.913L226.867 274.913C227.474 274.808 228.079 274.703 228.668 274.767C231.031 275.024 233.402 275.089 235.771 275.154H235.771C237.398 275.198 239.024 275.243 240.645 275.35C243.573 275.542 246.167 274.843 248.734 273.793C252.21 272.373 255.657 270.868 259.039 269.24C261.154 268.222 263.172 266.996 265.182 265.775L265.55 265.551C266.831 264.773 267.809 263.675 268.211 262.166C268.414 261.406 267.99 260.824 267.228 260.807C264.862 260.755 262.701 261.576 260.553 262.403C257.429 263.605 254.318 264.842 251.217 266.103C249.963 266.613 248.719 267.147 247.474 267.681C246.543 268.081 245.611 268.48 244.676 268.87C244.35 269.006 243.973 269.082 243.619 269.084C240.66 269.096 237.7 269.095 234.74 269.094C233.928 269.093 233.116 269.093 232.304 269.093C231.49 269.093 230.676 269.093 229.862 269.094C227.66 269.094 225.459 269.095 223.257 269.091C222.504 269.09 221.75 269.064 220.997 269.036C220.949 269.035 220.871 268.914 220.866 268.845C220.864 268.81 220.863 268.774 220.862 268.739C220.862 268.676 220.864 268.614 220.867 268.551V268.551C220.872 268.412 220.877 268.275 220.853 268.142C220.751 267.577 220.993 267.49 221.514 267.494C225.226 267.518 228.939 267.53 232.652 267.5C233.021 267.497 233.391 267.494 233.76 267.492C236.903 267.469 240.048 267.445 243.184 267.286C244.179 267.235 245.181 266.802 246.133 266.391L246.139 266.388C246.219 266.354 246.298 266.32 246.377 266.286C251.811 263.954 257.301 261.767 262.958 260.031C263.983 259.717 265.074 259.599 266.155 259.481C266.359 259.459 266.563 259.437 266.766 259.414C267.503 259.329 268.284 259.275 268.999 259.426C270.134 259.668 270.604 260.756 270.257 261.894C269.627 263.963 268.366 265.536 266.532 266.654C265.223 267.451 263.909 268.242 262.588 269.037C261.372 269.769 260.15 270.504 258.919 271.252ZM240.84 280.815C238.774 278.566 236.386 278.152 233.539 279.797C231.894 280.748 231.172 282.984 231.311 284.401C231.459 285.926 232.222 287.191 233.387 288.182C234.784 289.37 236.418 289.373 238.101 289.011C241.839 288.207 242.96 283.353 240.84 280.815ZM160.213 283.283C160.213 283.444 160.21 283.604 160.207 283.765C160.201 284.113 160.194 284.462 160.217 284.808C160.406 287.665 163.723 289.884 166.646 289.044C168.727 288.446 169.927 287.203 170.353 285.02C171.005 281.672 168.926 279.261 166.054 278.845C163.217 278.435 160.883 280 160.213 283.283ZM182.782 293.415H189.512H222.136C223.669 293.415 225.201 293.415 226.733 293.416C234.018 293.417 241.304 293.418 248.589 293.392C249.064 293.391 249.588 293.117 249.98 292.848C250.085 292.775 249.861 292.201 249.644 291.955C249.497 291.788 249.098 291.727 248.811 291.727C225.499 291.72 202.187 291.719 178.875 291.717C169.768 291.717 160.661 291.716 151.554 291.715C151.215 291.715 150.877 291.693 150.539 291.67H150.539H150.538H150.538C150.417 291.662 150.297 291.653 150.177 291.646C149.617 291.614 148.892 292.359 149.123 292.786C149.455 293.401 150.135 293.416 150.803 293.416C161.446 293.415 172.089 293.415 182.782 293.415ZM124.621 293.852L120.239 293.853C113.731 293.853 107.27 293.853 100.81 293.85C100.743 293.85 100.674 293.852 100.605 293.854C100.17 293.868 99.7369 293.883 99.5636 293.317C99.3629 292.661 99.6381 292.185 100.369 292.1C100.508 292.083 100.649 292.088 100.791 292.092H100.791C100.856 292.094 100.921 292.096 100.986 292.096L107.65 292.096C119.128 292.096 130.605 292.096 142.082 292.094C142.12 292.094 142.157 292.093 142.195 292.093C142.788 292.09 143.348 292.087 143.323 292.887C143.302 293.551 142.909 293.852 141.994 293.852C137.566 293.852 133.137 293.852 128.669 293.852H124.621ZM278.443 293.855L283.061 293.855C284.049 293.855 285.034 293.855 286.016 293.855H286.025H286.034H286.043H286.052C289.816 293.856 293.536 293.857 297.256 293.848C297.644 293.847 298.037 293.77 298.414 293.682C298.518 293.658 298.622 293.476 298.647 293.353C298.838 292.408 298.531 292.099 297.423 292.099L256.336 292.099C256.29 292.099 256.244 292.098 256.197 292.096L256.141 292.094C255.998 292.088 255.856 292.081 255.72 292.104C254.966 292.232 254.696 292.755 254.996 293.389C255.226 293.875 255.651 293.866 256.079 293.856C256.109 293.855 256.139 293.855 256.169 293.854L256.2 293.854C256.219 293.854 256.238 293.853 256.257 293.853C263.629 293.855 271.002 293.855 278.424 293.855H278.429H278.434H278.439H278.443ZM246.465 59.3595C246.619 59.3438 247.342 59.4563 248.233 59.5949C249.451 59.7845 250.984 60.0231 251.806 60.0495C252.629 60.076 251.848 60.9578 251.712 60.9636C249.895 61.0408 245.957 59.8411 246.465 59.3595ZM249.119 66.3159C248.349 66.0245 248.717 63.6673 249.48 63.6673C250.233 63.6673 249.87 66.6002 249.119 66.3159ZM238.034 282.453C238.699 283.962 238.654 284.579 237.861 285.4C237.32 285.961 236.34 286.056 235.726 285.608C235.07 285.129 234.765 283.997 235.082 283.212C235.638 281.831 236.862 281.493 238.034 282.453ZM166.78 282.569C165.746 281.612 164.716 281.665 163.452 282.905C162.992 283.971 163.217 285.1 164.924 285.401C165.844 285.564 166.388 285.292 166.896 284.742C167.425 284.169 167.274 283.026 166.78 282.569Z" fill="#00160A"/>
<path fill-rule="evenodd" clip-rule="evenodd" d="M226.755 90.3482C225.218 89.8971 224.854 87.5661 223.303 87.1634C221.769 86.765 220.296 88.5815 218.766 88.1667C217.726 87.8846 217.241 86.7364 216.665 85.8258C216.105 84.9399 214.925 84.1402 214.082 84.712L214.013 84.7629C212.844 85.6845 211.09 85.1023 209.913 84.1909C208.736 83.2794 207.737 82.0509 206.324 81.582C207.066 80.8496 208.352 81.3811 209.07 82.1367C209.789 82.8924 210.373 83.8881 211.372 84.1904C212.901 84.6535 214.624 83.2331 216.068 83.9184C216.965 84.3446 217.33 85.3973 217.868 86.2329C218.405 87.0685 219.575 87.7689 220.338 87.1327C222.19 85.5885 225.5 86.5674 226.213 88.8703C226.42 89.5382 227.334 90.5182 226.755 90.3482Z" fill="#E7EAEE"/>
<path fill-rule="evenodd" clip-rule="evenodd" d="M135.07 265.371C139.34 267.887 152.717 275.298 162.523 275.543L243.631 275.799C243.631 275.799 286.279 260.8 255.097 266.459C253.333 266.78 248.278 269.803 240.152 270.461C225.297 271.665 162.523 270.896 162.523 270.896C162.523 270.896 133.947 264.709 135.07 265.371Z" fill="#E7EAEE"/>
<path fill-rule="evenodd" clip-rule="evenodd" d="M65.4146 215.472C65.5144 215.361 65.6356 215.283 65.7108 215.314C66.5649 215.667 67.0576 215.36 67.3171 214.516C67.3602 214.376 67.5795 214.29 67.7174 214.179C67.8442 214.348 68.0777 214.517 68.0782 214.686C68.08 215.249 68.3242 215.513 68.8587 215.68C69.0866 215.752 69.2214 216.116 69.3986 216.348C69.2201 216.389 68.9511 216.374 68.8823 216.483C68.7428 216.705 68.6697 216.991 68.6486 217.257C68.6307 217.483 68.7439 217.716 68.7637 217.948C68.7897 218.254 68.7406 218.478 68.3805 218.17C67.6614 217.555 67.0375 217.786 66.4233 218.366C66.2744 218.506 66.0124 218.529 65.8024 218.605C65.8408 218.414 65.8523 218.213 65.9222 218.034C66.2885 217.096 66.0354 216.29 65.4146 215.472Z" fill="#FF611D"/>
<circle cx="241.596" cy="72.0827" r="3.09867" fill="#FF611D"/>
<path fill-rule="evenodd" clip-rule="evenodd" d="M197.259 99.6639L197.615 100.214L197.733 100.391C198.48 101.487 199.615 102.564 200.876 102.244C204.234 101.395 208.054 102.878 209.958 105.77C210.899 107.2 212.99 106.919 214.699 106.553L214.924 106.504C216.638 106.124 219.009 106.303 219.442 107.964L219.464 108.059C219.664 109.016 220.868 109.307 221.859 109.281L222.166 109.27C224.658 109.27 224.984 110.641 224.985 110.5C224.985 110.5 219.507 110.085 218.353 108.226L218.283 108.108C217.549 106.822 215.694 107.031 214.244 107.468L213.845 107.593L213.644 107.651C212.228 108.048 210.51 108.192 209.799 106.97C208.168 104.166 204.771 102.5 201.554 102.927C200.726 103.036 199.868 103.269 199.075 103.006C197.178 102.378 196.931 99.4502 195.065 98.7364C192.71 97.8357 190.431 101.258 187.994 100.612C189.476 99.4813 191.119 98.5619 192.858 97.8901C193.441 97.6649 194.06 97.4645 194.68 97.5397C195.829 97.679 196.6 98.6664 197.259 99.6639ZM227.174 103.042C226.938 103.766 226.766 104.409 226.65 104.955C226.411 103.382 224.849 101.929 223.376 102.438L223.291 102.47C222.356 102.842 221.366 102.069 220.762 101.265L220.617 101.069L220.399 100.769C219.91 100.102 219.384 99.4437 218.602 99.2536C217.172 98.9061 215.909 100.33 214.446 100.5C211.062 100.894 209.371 94.8351 206.048 95.5869C205.321 95.7513 204.693 96.249 203.955 96.3499C201.917 96.6282 200.824 94.0375 199.107 92.9062C197.815 92.0547 195.991 92.1062 194.749 93.0293C194.812 91.5498 196.824 90.8979 198.198 91.4545C199.571 92.0112 200.514 93.2626 201.655 94.2084C202.767 95.1306 204.417 95.764 205.628 95.0136L205.72 94.9532C207.176 93.9448 209.125 95.2238 210.263 96.582L210.676 97.0769C211.714 98.3128 212.901 99.5969 214.458 99.4784C215.887 99.3695 217.104 98.0376 218.522 98.2506C220.588 98.561 221.432 101.891 223.509 101.665C224.844 101.52 226.233 101.969 227.232 102.867L227.174 103.042ZM228.246 96.0757C227.913 96.5429 227.578 96.9182 227.243 97.2016L227.131 97.2927L226.852 97.0929C225.493 96.1279 224.01 95.1887 222.358 95.2276C221.755 95.2418 221.137 95.3875 220.558 95.2175C219.021 94.7664 218.656 92.4354 217.106 92.0327C215.572 91.6344 214.098 93.4508 212.569 93.036C211.529 92.754 211.043 91.6057 210.467 90.6952C209.907 89.8092 208.727 89.0095 207.884 89.5813L207.815 89.6322C206.646 90.5539 204.893 89.9716 203.715 89.0602C202.538 88.1488 201.54 86.9202 200.126 86.4513C200.868 85.7189 202.154 86.2504 202.873 87.0061C203.591 87.7617 204.176 88.7574 205.174 89.0597C206.704 89.5229 208.426 88.1025 209.87 88.7877C210.768 89.2139 211.133 90.2666 211.67 91.1022C212.207 91.9378 213.377 92.6382 214.14 92.002C215.992 90.4579 219.302 91.4367 220.015 93.7396C220.222 94.4075 221.112 94.563 221.799 94.4288C222.485 94.2946 223.191 93.9952 223.858 94.2054C224.707 94.4728 225.142 95.4597 225.96 95.8106C226.81 96.1757 227.827 95.7115 228.396 94.9768L228.454 94.8998C228.911 94.2585 228.697 95.4443 228.246 96.0757Z" fill="#FF611D"/>
<path fill-rule="evenodd" clip-rule="evenodd" d="M210.424 113.638L210.68 113.713C211.023 113.818 211.282 113.973 211.583 114.228L211.732 114.359L211.921 114.531C212.013 114.614 212.084 114.677 212.158 114.737C212.659 115.148 213.228 115.403 214.176 115.554C214.812 115.655 215.26 115.554 216.033 115.194L216.312 115.061C217.561 114.458 218.287 114.29 219.458 114.559C220.458 114.789 220.918 115.176 221.292 115.905L221.386 116.098C221.565 116.471 222.142 116.816 222.597 117.089C222.938 117.293 223.211 117.456 223.197 117.56C223.164 117.802 221.052 117.41 220.632 116.572L220.541 116.384C220.268 115.821 220.019 115.596 219.26 115.422C218.369 115.217 217.829 115.324 216.835 115.792L216.556 115.925C215.547 116.41 214.93 116.57 214.037 116.428C212.934 116.253 212.22 115.932 211.596 115.421C211.553 115.386 211.511 115.35 211.467 115.312L211.096 114.978C210.836 114.746 210.66 114.633 210.421 114.56L210.275 114.516C209.657 114.335 208.243 114.804 207.212 115.146L207.212 115.146C206.566 115.361 206.07 115.526 206.016 115.448C205.9 115.281 209.193 113.307 210.424 113.638ZM210.273 120.366L210.51 120.432C210.829 120.524 211.068 120.66 211.348 120.884L211.486 120.999L211.661 121.151C211.746 121.224 211.813 121.279 211.881 121.332C212.346 121.693 212.873 121.917 213.752 122.05C214.342 122.138 214.757 122.05 215.474 121.733L215.733 121.616C216.891 121.087 217.564 120.939 218.651 121.176C219.578 121.378 220.005 121.718 220.351 122.358L220.439 122.528C220.604 122.856 221.139 123.159 221.561 123.399C221.878 123.578 222.131 123.721 222.118 123.812C222.088 124.025 220.129 123.681 219.74 122.944L219.655 122.779C219.402 122.285 219.171 122.087 218.467 121.934C217.641 121.754 217.14 121.848 216.218 122.259L215.96 122.376C215.024 122.802 214.451 122.943 213.623 122.818C212.6 122.664 211.938 122.382 211.36 121.933C211.32 121.902 211.281 121.871 211.24 121.837L210.896 121.543C210.655 121.34 210.491 121.24 210.27 121.176L210.134 121.137C209.562 120.978 208.25 121.391 207.294 121.692L207.294 121.692C206.695 121.88 206.235 122.025 206.185 121.957C206.078 121.81 209.131 120.075 210.273 120.366ZM210.712 127.515L210.488 127.449C209.41 127.158 206.526 128.893 206.628 129.04C206.675 129.108 207.109 128.963 207.675 128.774C208.578 128.474 209.817 128.061 210.358 128.22L210.486 128.259C210.695 128.323 210.85 128.423 211.077 128.626L211.402 128.92C211.44 128.954 211.477 128.985 211.515 129.016C212.061 129.465 212.686 129.747 213.653 129.901C214.434 130.025 214.975 129.885 215.859 129.459L216.103 129.342C216.974 128.931 217.447 128.837 218.227 129.016C218.892 129.17 219.11 129.367 219.349 129.862L219.429 130.027C219.797 130.764 221.647 131.108 221.675 130.895C221.688 130.804 221.449 130.66 221.15 130.481C220.751 130.242 220.246 129.939 220.089 129.611L220.007 129.441C219.679 128.801 219.277 128.46 218.401 128.258C217.375 128.022 216.739 128.169 215.645 128.699L215.401 128.816C214.724 129.132 214.331 129.221 213.774 129.132C212.944 129 212.446 128.776 212.007 128.414C211.942 128.362 211.88 128.307 211.799 128.233L211.634 128.082L211.503 127.967C211.24 127.743 211.013 127.607 210.712 127.515ZM210.488 135.859L210.712 135.925C211.013 136.018 211.24 136.154 211.503 136.378L211.634 136.493L211.799 136.644C211.88 136.717 211.942 136.772 212.007 136.825C212.446 137.186 212.944 137.411 213.774 137.543C214.331 137.632 214.724 137.543 215.401 137.226L215.645 137.11C216.739 136.58 217.375 136.432 218.401 136.669C219.277 136.871 219.679 137.211 220.007 137.852L220.089 138.021C220.246 138.35 220.751 138.653 221.15 138.892C221.449 139.071 221.688 139.215 221.675 139.306C221.647 139.519 219.797 139.175 219.429 138.438L219.349 138.273C219.11 137.778 218.892 137.58 218.227 137.427C217.447 137.247 216.974 137.341 216.103 137.752L215.859 137.87C214.975 138.296 214.434 138.436 213.653 138.311C212.686 138.157 212.061 137.876 211.515 137.427C211.477 137.396 211.44 137.364 211.402 137.331L211.077 137.037C210.85 136.833 210.695 136.734 210.486 136.67L210.358 136.631C209.817 136.472 208.578 136.884 207.675 137.185L207.675 137.185C207.109 137.374 206.675 137.518 206.628 137.45C206.526 137.304 209.41 135.569 210.488 135.859ZM211.395 144.336L211.158 144.27C210.017 143.979 206.963 145.714 207.071 145.861C207.12 145.929 207.58 145.784 208.18 145.596C209.135 145.295 210.447 144.882 211.02 145.041L211.156 145.08C211.377 145.144 211.541 145.244 211.782 145.447L212.125 145.741C212.166 145.775 212.205 145.806 212.245 145.837C212.823 146.286 213.486 146.568 214.509 146.722C215.336 146.847 215.909 146.706 216.845 146.28L217.103 146.163C218.025 145.752 218.526 145.658 219.352 145.838C220.056 145.991 220.287 146.189 220.54 146.683L220.625 146.848C221.014 147.585 222.973 147.929 223.003 147.716C223.016 147.625 222.763 147.482 222.447 147.303C222.025 147.063 221.49 146.76 221.324 146.432L221.236 146.262C220.89 145.622 220.464 145.282 219.536 145.08C218.45 144.843 217.776 144.991 216.618 145.52L216.36 145.637C215.643 145.954 215.227 146.042 214.637 145.954C213.758 145.821 213.231 145.597 212.766 145.236C212.698 145.183 212.632 145.128 212.546 145.055L212.371 144.903L212.233 144.788C211.954 144.564 211.714 144.428 211.395 144.336ZM213.571 152.053L213.816 152.076C214.146 152.112 214.406 152.204 214.72 152.376L214.876 152.466L215.075 152.584C215.171 152.641 215.246 152.684 215.322 152.724C215.843 152.999 216.401 153.129 217.29 153.106C217.886 153.091 218.28 152.932 218.931 152.496L219.165 152.336C220.214 151.613 220.852 151.35 221.962 151.395C222.911 151.433 223.39 151.694 223.842 152.264L223.958 152.416C224.178 152.711 224.758 152.916 225.215 153.079C225.558 153.2 225.832 153.298 225.835 153.39C225.842 153.605 223.853 153.606 223.342 152.948L223.23 152.8C222.895 152.357 222.633 152.202 221.913 152.174C221.068 152.14 220.591 152.319 219.755 152.884L219.521 153.045C218.673 153.627 218.134 153.864 217.297 153.885C216.262 153.912 215.561 153.749 214.914 153.407L214.779 153.333L214.39 153.104C214.117 152.945 213.938 152.875 213.71 152.851L213.569 152.836C212.977 152.779 211.757 153.413 210.868 153.875C210.311 154.165 209.883 154.387 209.822 154.329C209.691 154.203 212.397 151.964 213.571 152.053ZM219.155 157.785L218.959 157.804C218.02 157.913 216.154 159.977 216.273 160.051C216.328 160.085 216.639 159.857 217.044 159.559C217.691 159.083 218.577 158.431 219.052 158.385L219.165 158.375C219.348 158.359 219.498 158.385 219.733 158.462L220.068 158.574L220.184 158.609C220.736 158.766 221.31 158.782 222.124 158.609C222.783 158.468 223.18 158.211 223.779 157.653L223.945 157.5C224.537 156.956 224.892 156.752 225.563 156.651C226.136 156.565 226.361 156.64 226.68 156.919L226.786 157.012C227.27 157.424 228.841 157.127 228.809 156.969C228.796 156.901 228.567 156.87 228.282 156.83C227.901 156.778 227.418 156.712 227.209 156.526L227.099 156.431C226.672 156.075 226.262 155.953 225.508 156.066C224.625 156.198 224.153 156.488 223.412 157.18L223.247 157.334C222.785 157.754 222.494 157.932 222.024 158.032C221.325 158.181 220.868 158.168 220.423 158.041C220.358 158.023 220.294 158.002 220.211 157.974L220.039 157.916L219.905 157.873C219.636 157.792 219.42 157.762 219.155 157.785ZM223.828 161.788L224.025 161.769C224.289 161.746 224.506 161.776 224.775 161.857L224.909 161.9L225.08 161.958C225.163 161.986 225.228 162.007 225.293 162.025C225.738 162.152 226.194 162.165 226.894 162.016C227.363 161.916 227.655 161.738 228.116 161.318L228.282 161.164C229.023 160.472 229.495 160.182 230.377 160.05C231.132 159.937 231.542 160.059 231.968 160.415L232.078 160.51C232.287 160.696 232.77 160.762 233.151 160.814C233.437 160.854 233.665 160.885 233.679 160.953C233.71 161.111 232.139 161.408 231.656 160.996L231.549 160.903C231.231 160.624 231.005 160.549 230.433 160.635C229.761 160.736 229.406 160.94 228.814 161.484L228.649 161.637C228.05 162.195 227.652 162.452 226.993 162.593C226.179 162.766 225.606 162.75 225.053 162.593L224.938 162.558L224.602 162.446C224.367 162.369 224.218 162.343 224.034 162.359L223.921 162.369C223.447 162.415 222.56 163.067 221.913 163.543C221.508 163.841 221.197 164.069 221.142 164.035C221.023 163.961 222.889 161.897 223.828 161.788ZM230.257 166.076L230.102 166.119C229.367 166.338 228.166 168.251 228.272 168.294C228.321 168.313 228.537 168.087 228.819 167.791C229.269 167.32 229.886 166.674 230.259 166.57L230.347 166.546C230.492 166.508 230.615 166.507 230.814 166.535L231.098 166.578L231.195 166.589C231.659 166.637 232.12 166.569 232.746 166.316C233.253 166.111 233.534 165.85 233.935 165.319L234.045 165.173C234.442 164.655 234.697 164.441 235.219 164.266C235.665 164.117 235.856 164.145 236.15 164.323L236.248 164.383C236.693 164.644 237.907 164.185 237.859 164.063C237.839 164.01 237.652 164.018 237.418 164.026C237.106 164.038 236.711 164.053 236.517 163.935L236.416 163.874C236.025 163.649 235.68 163.609 235.093 163.806C234.406 164.037 234.069 164.334 233.575 164.993L233.464 165.139C233.154 165.54 232.946 165.723 232.585 165.869C232.047 166.086 231.68 166.14 231.307 166.102C231.252 166.096 231.198 166.089 231.127 166.078L230.982 166.056L230.869 166.04C230.642 166.013 230.465 166.02 230.257 166.076ZM235.022 169.695L235.177 169.652C235.385 169.597 235.562 169.59 235.789 169.617L235.902 169.632L236.047 169.655C236.118 169.666 236.172 169.673 236.227 169.678C236.6 169.717 236.967 169.663 237.505 169.445C237.866 169.299 238.074 169.116 238.384 168.715L238.495 168.569C238.989 167.911 239.326 167.613 240.013 167.383C240.6 167.186 240.945 167.226 241.336 167.45L241.437 167.511C241.631 167.63 242.026 167.615 242.338 167.603C242.572 167.594 242.759 167.587 242.779 167.639C242.827 167.761 241.613 168.22 241.168 167.959L241.07 167.9C240.776 167.722 240.585 167.693 240.139 167.843C239.617 168.018 239.362 168.231 238.965 168.749L238.855 168.895C238.454 169.426 238.173 169.687 237.666 169.892C237.04 170.146 236.579 170.214 236.115 170.166L236.018 170.154L235.734 170.112C235.535 170.084 235.412 170.084 235.267 170.123L235.179 170.147C234.806 170.25 234.189 170.897 233.739 171.368C233.457 171.663 233.241 171.89 233.192 171.87C233.086 171.828 234.287 169.915 235.022 169.695ZM240.931 173.194L240.777 173.236C240.042 173.456 238.841 175.369 238.946 175.412C238.995 175.431 239.212 175.205 239.494 174.909C239.943 174.438 240.56 173.792 240.933 173.688L241.022 173.664C241.167 173.626 241.29 173.625 241.488 173.653L241.772 173.696L241.87 173.707C242.334 173.755 242.794 173.687 243.421 173.434C243.927 173.229 244.209 172.967 244.609 172.437L244.72 172.291C245.117 171.772 245.372 171.559 245.894 171.384C246.34 171.235 246.531 171.263 246.825 171.441L246.923 171.501C247.368 171.762 248.581 171.303 248.534 171.181C248.513 171.128 248.326 171.135 248.093 171.144C247.781 171.156 247.386 171.171 247.192 171.053L247.091 170.992C246.699 170.767 246.354 170.727 245.768 170.924C245.08 171.154 244.744 171.452 244.249 172.11L244.139 172.256C243.829 172.658 243.621 172.84 243.26 172.986C242.721 173.204 242.355 173.258 241.981 173.22C241.927 173.214 241.872 173.207 241.802 173.196L241.656 173.174L241.543 173.158C241.317 173.131 241.14 173.138 240.931 173.194Z" fill="#FF611D"/>
</svg>
