<svg width="98" height="98" viewBox="0 0 98 98" fill="none" xmlns="http://www.w3.org/2000/svg">
<path d="M41.5924 1.86142C46.493 -0.168462 51.9992 -0.168464 56.8998 1.86142L76.9478 10.1656C81.8483 12.1954 85.7418 16.0889 87.7717 20.9895L96.0758 41.0375C98.1057 45.938 98.1057 51.4443 96.0758 56.3448L87.7717 76.3928C85.7418 81.2934 81.8483 85.1869 76.9478 87.2168L56.8998 95.5209C51.9992 97.5508 46.493 97.5508 41.5924 95.5209L21.5444 87.2168C16.6439 85.1869 12.7504 81.2934 10.7205 76.3928L2.41635 56.3448C0.38647 51.4443 0.386468 45.9381 2.41635 41.0375L10.7205 20.9895C12.7504 16.0889 16.6439 12.1954 21.5444 10.1656L41.5924 1.86142Z" fill="#E5DED6" fill-opacity="0.34"/>
</svg>
