<svg width="402" height="432" viewBox="0 0 402 432" fill="none" xmlns="http://www.w3.org/2000/svg">
<path d="M221.365 213.892C225.775 212.065 230.731 212.065 235.141 213.892L278.994 232.057C283.404 233.883 286.909 237.388 288.735 241.798L306.9 285.651C308.727 290.061 308.727 295.017 306.9 299.427L288.735 343.28C286.909 347.69 283.404 351.195 278.994 353.021L235.141 371.186C230.731 373.013 225.775 373.013 221.365 371.186L177.512 353.021C173.102 351.195 169.598 347.69 167.771 343.28L149.606 299.427C147.779 295.017 147.779 290.061 149.606 285.651L167.771 241.798C169.598 237.388 173.102 233.883 177.512 232.057L221.365 213.892Z" fill="#DFA8A8" fill-opacity="0.37"/>
<path d="M198.859 307.272C198.859 313.347 203.784 318.272 209.859 318.272C215.934 318.272 220.859 313.347 220.859 307.272H198.859ZM209.859 272.853L199.855 268.28C199.199 269.715 198.859 271.275 198.859 272.853H209.859ZM246.647 272.853H257.647C257.647 270.86 257.105 268.903 256.079 267.194L246.647 272.853ZM220.859 307.272V272.853H198.859V307.272H220.859ZM219.863 277.427C220.679 275.641 221.573 274.056 222.799 272.905C223.748 272.013 225.155 271.105 227.991 271.105V249.105C209.278 249.105 202.081 263.41 199.855 268.28L219.863 277.427ZM227.991 271.105C230.795 271.105 232.226 271.993 233.295 272.977C234.764 274.33 235.668 275.935 237.215 278.513L256.079 267.194C253.911 263.579 246.594 249.105 227.991 249.105V271.105ZM235.647 272.853V303.173H257.647V272.853H235.647Z" fill="url(#paint0_linear_21_100)"/>
<path d="M235.647 306.381C235.647 312.456 240.572 317.381 246.647 317.381C252.722 317.381 257.647 312.456 257.647 306.381H235.647ZM235.647 278.697V306.381H257.647V278.697L235.647 278.697Z" fill="white"/>
<circle cx="246.647" cy="307.272" r="11" fill="url(#paint1_linear_21_100)"/>
<path d="M163.484 63.5044C167.894 61.6775 172.85 61.6775 177.26 63.5044L221.113 81.6688C225.523 83.4956 229.028 86.9998 230.855 91.4103L249.019 135.263C250.846 139.673 250.846 144.629 249.019 149.039L230.855 192.892C229.028 197.303 225.523 200.807 221.113 202.634L177.26 220.798C172.85 222.625 167.894 222.625 163.484 220.798L119.631 202.634C115.221 200.807 111.717 197.303 109.89 192.892L91.7253 149.039C89.8984 144.629 89.8984 139.673 91.7253 135.263L109.89 91.4103C111.717 86.9998 115.221 83.4956 119.631 81.6688L163.484 63.5044Z" fill="#D9DFA8" fill-opacity="0.59"/>
<path d="M140.2 160.234C140.2 166.31 145.125 171.234 151.2 171.234C157.275 171.234 162.2 166.31 162.2 160.234H140.2ZM151.2 125.816L141.196 121.243C140.54 122.678 140.2 124.238 140.2 125.816H151.2ZM187.988 125.816H198.988C198.988 123.823 198.446 121.866 197.421 120.157L187.988 125.816ZM162.2 160.234V125.816H140.2V160.234H162.2ZM161.204 130.39C162.02 128.604 162.914 127.019 164.14 125.868C165.089 124.976 166.497 124.068 169.332 124.068V102.068C150.619 102.068 143.422 116.373 141.196 121.243L161.204 130.39ZM169.332 124.068C172.136 124.068 173.567 124.955 174.636 125.94C176.105 127.292 177.009 128.898 178.556 131.476L197.421 120.157C195.252 116.542 187.935 102.068 169.332 102.068V124.068ZM176.988 125.816V156.135H198.988V125.816H176.988Z" fill="url(#paint2_linear_21_100)"/>
<path d="M176.988 159.344C176.988 165.419 181.913 170.344 187.988 170.344C194.063 170.344 198.988 165.419 198.988 159.344H176.988ZM176.988 131.66V159.344H198.988V131.66L176.988 131.66Z" fill="white"/>
<circle cx="187.988" cy="160.234" r="11" fill="url(#paint3_linear_21_100)"/>
<path d="M310.259 3.08766C314.669 1.26077 319.625 1.26077 324.035 3.08766L367.888 21.252C372.298 23.0789 375.803 26.583 377.629 30.9935L395.794 74.8461C397.621 79.2566 397.621 84.2122 395.794 88.6227L377.629 132.475C375.803 136.886 372.298 140.39 367.888 142.217L324.035 160.381C319.625 162.208 314.669 162.208 310.259 160.381L266.406 142.217C261.996 140.39 258.491 136.886 256.665 132.475L238.5 88.6227C236.673 84.2122 236.673 79.2566 238.5 74.8461L256.665 30.9935C258.491 26.583 261.996 23.0789 266.406 21.252L310.259 3.08766Z" fill="#DFA8A8" fill-opacity="0.59"/>
<path d="M286.975 98.8177C286.975 104.893 291.9 109.818 297.975 109.818C304.05 109.818 308.975 104.893 308.975 98.8177H286.975ZM297.975 64.3994L287.971 59.8261C287.315 61.2615 286.975 62.8212 286.975 64.3994H297.975ZM334.763 64.3994H345.763C345.763 62.4058 345.221 60.4496 344.195 58.74L334.763 64.3994ZM308.975 98.8177V64.3994H286.975V98.8177H308.975ZM307.979 68.9728C308.795 67.1876 309.689 65.6024 310.915 64.4512C311.864 63.5596 313.271 62.6511 316.107 62.6511V40.6511C297.394 40.6511 290.197 54.956 287.971 59.8261L307.979 68.9728ZM316.107 62.6511C318.911 62.6511 320.342 63.5387 321.411 64.5234C322.88 65.8757 323.784 67.4813 325.331 70.0589L344.195 58.74C342.027 55.1254 334.71 40.6511 316.107 40.6511V62.6511ZM323.763 64.3994V94.7187H345.763V64.3994H323.763Z" fill="url(#paint4_linear_21_100)"/>
<path d="M323.763 97.9269C323.763 104.002 328.688 108.927 334.763 108.927C340.838 108.927 345.763 104.002 345.763 97.9269H323.763ZM323.763 70.2433V97.9269H345.763V70.2433L323.763 70.2433Z" fill="white"/>
<circle cx="334.763" cy="98.8177" r="11" fill="url(#paint5_linear_21_100)"/>
<path d="M19.1405 123.542C23.551 121.715 28.5066 121.715 32.9171 123.542L76.7697 141.706C81.1802 143.533 84.6844 147.037 86.5112 151.447L104.676 195.3C106.502 199.711 106.502 204.666 104.676 209.077L86.5112 252.929C84.6844 257.34 81.1802 260.844 76.7697 262.671L32.9171 280.835C28.5066 282.662 23.551 282.662 19.1405 280.835L-24.7121 262.671C-29.1226 260.844 -32.6267 257.34 -34.4536 252.929L-52.618 209.077C-54.4449 204.666 -54.4449 199.71 -52.618 195.3L-34.4536 151.447C-32.6267 147.037 -29.1226 143.533 -24.7121 141.706L19.1405 123.542Z" fill="#B1A8DF" fill-opacity="0.59"/>
<path d="M-4.14319 220.272C-4.14319 226.347 0.781679 231.272 6.85681 231.272C12.9319 231.272 17.8568 226.347 17.8568 220.272H-4.14319ZM6.85681 185.853L-3.14741 181.28C-3.80357 182.715 -4.14319 184.275 -4.14319 185.853H6.85681ZM43.6448 185.853H54.6448C54.6448 183.86 54.103 181.903 53.0773 180.194L43.6448 185.853ZM17.8568 220.272V185.853H-4.14319V220.272H17.8568ZM16.861 190.427C17.6771 188.641 18.5703 187.056 19.7965 185.905C20.7462 185.013 22.1532 184.105 24.9886 184.105V162.105C6.2757 162.105 -0.921058 176.41 -3.14741 181.28L16.861 190.427ZM24.9886 184.105C27.7927 184.105 29.2237 184.993 30.2929 185.977C31.7614 187.33 32.6658 188.935 34.2124 191.513L53.0773 180.194C50.9085 176.579 43.5922 162.105 24.9886 162.105V184.105ZM32.6448 185.853V216.173H54.6448V185.853H32.6448Z" fill="url(#paint6_linear_21_100)"/>
<path d="M32.6448 219.381C32.6448 225.456 37.5697 230.381 43.6448 230.381C49.72 230.381 54.6448 225.456 54.6448 219.381H32.6448ZM32.6448 191.697V219.381H54.6448V191.697L32.6448 191.697Z" fill="white"/>
<circle cx="43.6448" cy="220.272" r="11" fill="url(#paint7_linear_21_100)"/>
<path d="M76.5897 271.12C81.0002 269.293 85.9558 269.293 90.3663 271.12L134.219 289.284C138.629 291.111 142.134 294.615 143.96 299.026L162.125 342.878C163.952 347.289 163.952 352.244 162.125 356.655L143.96 400.507C142.134 404.918 138.629 408.422 134.219 410.249L90.3663 428.413C85.9558 430.24 81.0002 430.24 76.5897 428.413L32.7371 410.249C28.3266 408.422 24.8225 404.918 22.9956 400.507L4.83125 356.655C3.00436 352.244 3.00436 347.289 4.83125 342.878L22.9956 299.026C24.8225 294.615 28.3266 291.111 32.7371 289.284L76.5897 271.12Z" fill="#DFC6A8" fill-opacity="0.59"/>
<path d="M54.084 364.499C54.084 370.574 59.0089 375.499 65.084 375.499C71.1591 375.499 76.084 370.574 76.084 364.499H54.084ZM65.084 330.081L55.0798 325.507C54.4236 326.943 54.084 328.503 54.084 330.081H65.084ZM101.872 330.081H112.872C112.872 328.087 112.33 326.131 111.304 324.421L101.872 330.081ZM76.084 364.499V330.081H54.084V364.499H76.084ZM75.0882 334.654C75.9043 332.869 76.7975 331.284 78.0237 330.133C78.9734 329.241 80.3804 328.333 83.2158 328.333V306.333C64.5029 306.333 57.3061 320.637 55.0798 325.507L75.0882 334.654ZM83.2158 328.333C86.0199 328.333 87.4509 329.22 88.5201 330.205C89.9886 331.557 90.893 333.163 92.4396 335.74L111.304 324.421C109.136 320.807 101.819 306.333 83.2158 306.333V328.333ZM90.872 330.081V360.4H112.872V330.081H90.872Z" fill="url(#paint8_linear_21_100)"/>
<path d="M90.872 363.608C90.872 369.683 95.7969 374.608 101.872 374.608C107.947 374.608 112.872 369.683 112.872 363.608H90.872ZM90.872 335.925V363.608H112.872V335.925L90.872 335.925Z" fill="white"/>
<circle cx="101.872" cy="364.499" r="11" fill="url(#paint9_linear_21_100)"/>
<path d="M369.083 150.125C373.493 148.298 378.449 148.298 382.859 150.125L426.712 168.289C431.123 170.116 434.627 173.62 436.454 178.031L454.618 221.883C456.445 226.294 456.445 231.249 454.618 235.66L436.454 279.513C434.627 283.923 431.123 287.427 426.712 289.254L382.859 307.418C378.449 309.245 373.493 309.245 369.083 307.418L325.23 289.254C320.82 287.427 317.316 283.923 315.489 279.513L297.324 235.66C295.498 231.249 295.498 226.294 297.324 221.883L315.489 178.031C317.316 173.62 320.82 170.116 325.23 168.289L369.083 150.125Z" fill="#A8C7DF" fill-opacity="0.59"/>
<path d="M345.799 246.855C345.799 252.93 350.724 257.855 356.799 257.855C362.874 257.855 367.799 252.93 367.799 246.855H345.799ZM356.799 212.437L346.795 207.863C346.139 209.299 345.799 210.858 345.799 212.437H356.799ZM393.587 212.437H404.587C404.587 210.443 404.045 208.487 403.02 206.777L393.587 212.437ZM367.799 246.855V212.437H345.799V246.855H367.799ZM366.803 217.01C367.62 215.225 368.513 213.64 369.739 212.488C370.689 211.597 372.096 210.688 374.931 210.688V188.688C356.218 188.688 349.021 202.993 346.795 207.863L366.803 217.01ZM374.931 210.688C377.735 210.688 379.166 211.576 380.235 212.561C381.704 213.913 382.608 215.518 384.155 218.096L403.02 206.777C400.851 203.163 393.535 188.688 374.931 188.688V210.688ZM382.587 212.437V242.756H404.587V212.437H382.587Z" fill="url(#paint10_linear_21_100)"/>
<path d="M382.587 245.964C382.587 252.039 387.512 256.964 393.587 256.964C399.662 256.964 404.587 252.039 404.587 245.964H382.587ZM382.587 218.281V245.964H404.587V218.281L382.587 218.281Z" fill="white"/>
<circle cx="393.587" cy="246.855" r="11" fill="url(#paint11_linear_21_100)"/>
<defs>
<linearGradient id="paint0_linear_21_100" x1="228.253" y1="260.105" x2="228.253" y2="307.272" gradientUnits="userSpaceOnUse">
<stop stop-color="#FFB61D"/>
<stop offset="1" stop-color="#C79C42"/>
</linearGradient>
<linearGradient id="paint1_linear_21_100" x1="246.647" y1="296.272" x2="246.647" y2="318.272" gradientUnits="userSpaceOnUse">
<stop stop-color="#995121"/>
<stop offset="1" stop-color="#6A3D1E"/>
</linearGradient>
<linearGradient id="paint2_linear_21_100" x1="169.594" y1="113.068" x2="169.594" y2="160.234" gradientUnits="userSpaceOnUse">
<stop stop-color="#FFB61D"/>
<stop offset="1" stop-color="#C79C42"/>
</linearGradient>
<linearGradient id="paint3_linear_21_100" x1="187.988" y1="149.234" x2="187.988" y2="171.234" gradientUnits="userSpaceOnUse">
<stop stop-color="#995121"/>
<stop offset="1" stop-color="#6A3D1E"/>
</linearGradient>
<linearGradient id="paint4_linear_21_100" x1="316.369" y1="51.6511" x2="316.369" y2="98.8177" gradientUnits="userSpaceOnUse">
<stop stop-color="#FFB61D"/>
<stop offset="1" stop-color="#C79C42"/>
</linearGradient>
<linearGradient id="paint5_linear_21_100" x1="334.763" y1="87.8177" x2="334.763" y2="109.818" gradientUnits="userSpaceOnUse">
<stop stop-color="#995121"/>
<stop offset="1" stop-color="#6A3D1E"/>
</linearGradient>
<linearGradient id="paint6_linear_21_100" x1="25.2508" y1="173.105" x2="25.2508" y2="220.272" gradientUnits="userSpaceOnUse">
<stop stop-color="#FFB61D"/>
<stop offset="1" stop-color="#C79C42"/>
</linearGradient>
<linearGradient id="paint7_linear_21_100" x1="43.6448" y1="209.272" x2="43.6448" y2="231.272" gradientUnits="userSpaceOnUse">
<stop stop-color="#995121"/>
<stop offset="1" stop-color="#6A3D1E"/>
</linearGradient>
<linearGradient id="paint8_linear_21_100" x1="83.478" y1="317.333" x2="83.478" y2="364.499" gradientUnits="userSpaceOnUse">
<stop stop-color="#FFB61D"/>
<stop offset="1" stop-color="#C79C42"/>
</linearGradient>
<linearGradient id="paint9_linear_21_100" x1="101.872" y1="353.499" x2="101.872" y2="375.499" gradientUnits="userSpaceOnUse">
<stop stop-color="#995121"/>
<stop offset="1" stop-color="#6A3D1E"/>
</linearGradient>
<linearGradient id="paint10_linear_21_100" x1="375.193" y1="199.688" x2="375.193" y2="246.855" gradientUnits="userSpaceOnUse">
<stop stop-color="#FFB61D"/>
<stop offset="1" stop-color="#C79C42"/>
</linearGradient>
<linearGradient id="paint11_linear_21_100" x1="393.587" y1="235.855" x2="393.587" y2="257.855" gradientUnits="userSpaceOnUse">
<stop stop-color="#995121"/>
<stop offset="1" stop-color="#6A3D1E"/>
</linearGradient>
</defs>
</svg>
