<svg width="164" height="164" viewBox="0 0 164 164" fill="none" xmlns="http://www.w3.org/2000/svg">
<path d="M75.1117 3.08186C79.5222 1.25497 84.4778 1.25497 88.8883 3.08186L132.741 21.2462C137.151 23.0731 140.656 26.5772 142.482 30.9877L160.647 74.8403C162.474 79.2508 162.474 84.2064 160.647 88.6169L142.482 132.47C140.656 136.88 137.151 140.384 132.741 142.211L88.8883 160.375C84.4778 162.202 79.5222 162.202 75.1117 160.375L31.2591 142.211C26.8486 140.384 23.3445 136.88 21.5176 132.47L3.35322 88.6169C1.52633 84.2064 1.52634 79.2508 3.35323 74.8403L21.5176 30.9877C23.3445 26.5772 26.8486 23.0731 31.2591 21.2462L75.1117 3.08186Z" fill="#DFA8A9" fill-opacity="0.21"/>
<path d="M51.828 99.8119C51.828 105.887 56.7529 110.812 62.828 110.812C68.9031 110.812 73.828 105.887 73.828 99.8119H51.828ZM62.828 65.3937L52.8238 60.8203C52.1676 62.2557 51.828 63.8154 51.828 65.3937H62.828ZM99.616 65.3937H110.616C110.616 63.4 110.074 61.4438 109.048 59.7342L99.616 65.3937ZM73.828 99.8119V65.3937H51.828V99.8119H73.828ZM72.8322 69.967C73.6483 68.1818 74.5415 66.5966 75.7677 65.4454C76.7174 64.5538 78.1244 63.6453 80.9598 63.6453V41.6453C62.2469 41.6453 55.0501 55.9502 52.8238 60.8203L72.8322 69.967ZM80.9598 63.6453C83.7639 63.6453 85.1949 64.533 86.2641 65.5176C87.7326 66.8699 88.637 68.4755 90.1836 71.0531L109.048 59.7342C106.88 56.1196 99.5634 41.6453 80.9598 41.6453V63.6453ZM88.616 65.3937V95.7129H110.616V65.3937H88.616Z" fill="url(#paint0_linear_14_3)"/>
<path d="M88.616 98.9211C88.616 104.996 93.5409 109.921 99.616 109.921C105.691 109.921 110.616 104.996 110.616 98.9211H88.616ZM88.616 71.2375V98.9211H110.616V71.2375L88.616 71.2375Z" fill="white"/>
<circle cx="99.616" cy="99.8119" r="11" fill="url(#paint1_linear_14_3)"/>
<defs>
<linearGradient id="paint0_linear_14_3" x1="81.222" y1="52.6453" x2="81.222" y2="99.8119" gradientUnits="userSpaceOnUse">
<stop stop-color="#FFB61D"/>
<stop offset="1" stop-color="#C79C42"/>
</linearGradient>
<linearGradient id="paint1_linear_14_3" x1="99.616" y1="88.8119" x2="99.616" y2="110.812" gradientUnits="userSpaceOnUse">
<stop stop-color="#995121"/>
<stop offset="1" stop-color="#6A3D1E"/>
</linearGradient>
</defs>
</svg>
