<svg width="282" height="80" viewBox="0 0 282 80" fill="none" xmlns="http://www.w3.org/2000/svg">
<rect x="0.677979" y="0.787354" width="280.359" height="78.4819" rx="39.241" fill="#92D044"/>
<mask id="mask0_303_367" style="mask-type:alpha" maskUnits="userSpaceOnUse" x="0" y="0" width="281" height="80">
<rect x="0.677979" y="0.787354" width="279.637" height="78.4819" rx="39.241" fill="#8172D5"/>
</mask>
<g mask="url(#mask0_303_367)">
<path d="M61.0274 57.3543C61.0274 87.7818 36.219 112.64 5.37882 112.64C-25.4614 112.64 -50.2698 87.7818 -50.2698 57.3543C-50.2698 26.9268 -25.4614 2.06836 5.37882 2.06836C36.219 2.06836 61.0274 26.9268 61.0274 57.3543Z" stroke="white" stroke-opacity="0.22" stroke-width="50"/>
<path d="M299.092 104.538C299.092 134.966 274.283 159.824 243.443 159.824C212.603 159.824 187.795 134.966 187.795 104.538C187.795 74.1109 212.603 49.2524 243.443 49.2524C274.283 49.2524 299.092 74.1109 299.092 104.538Z" stroke="white" stroke-opacity="0.22" stroke-width="50"/>
</g>
</svg>
