<svg width="113" height="37" viewBox="0 0 113 37" fill="none" xmlns="http://www.w3.org/2000/svg">
<rect x="0.197144" width="111.326" height="36.4404" rx="15.3387" fill="#92D044"/>
<rect x="0.197144" width="111.326" height="36.4404" rx="15.3387" fill="#92D044"/>
<mask id="mask0_279_342" style="mask-type:alpha" maskUnits="userSpaceOnUse" x="0" y="0" width="113" height="37">
<rect x="1.64417" y="0.75" width="109.826" height="34.9404" rx="14.5887" fill="#92D044" stroke="#11006C" stroke-width="1.5"/>
</mask>
<g mask="url(#mask0_279_342)">
<path d="M1.67444 15.3262C6.08054 0.149511 14.9907 -22.8113 15.3824 6.75882C15.8721 43.7215 47.4495 69.6688 36.1894 29.2791C24.9292 -11.1106 21.747 60.8565 67.7668 27.8104C113.787 -5.23574 10.9764 -70.5936 50.6317 -7.68361C90.2871 55.2264 127.25 77.7468 120.641 40.5394C114.031 3.3319 106.443 -70.5937 97.1411 -7.68361C89.6996 42.6445 109.707 62.8965 120.641 66.7315" stroke="white" stroke-width="1.5" stroke-dasharray="2 2"/>
</g>
</svg>
